<?xml version="1.0" encoding="UTF-8" standalone="no"?>
<!-- Generator: Adobe Illustrator 19.0.0, SVG Export Plug-In . SVG Version: 6.00 Build 0)  -->

<svg
   xmlns:dc="http://purl.org/dc/elements/1.1/"
   xmlns:cc="http://creativecommons.org/ns#"
   xmlns:rdf="http://www.w3.org/1999/02/22-rdf-syntax-ns#"
   xmlns:svg="http://www.w3.org/2000/svg"
   xmlns="http://www.w3.org/2000/svg"
   xmlns:sodipodi="http://sodipodi.sourceforge.net/DTD/sodipodi-0.dtd"
   xmlns:inkscape="http://www.inkscape.org/namespaces/inkscape"
   version="1.1"
   id="Capa_1"
   x="0px"
   y="0px"
   viewBox="0 0 512 336.67001"
   xml:space="preserve"
   sodipodi:docname="cup_1-4.svg"
   width="512"
   height="336.67001"
   inkscape:version="0.92.5 (2060ec1f9f, 2020-04-08)"><metadata
   id="metadata3907"><rdf:RDF><cc:Work
       rdf:about=""><dc:format>image/svg+xml</dc:format><dc:type
         rdf:resource="http://purl.org/dc/dcmitype/StillImage" /><dc:title></dc:title></cc:Work></rdf:RDF></metadata><defs
   id="defs3905" /><sodipodi:namedview
   pagecolor="#ffffff"
   bordercolor="#666666"
   borderopacity="1"
   objecttolerance="10"
   gridtolerance="10"
   guidetolerance="10"
   inkscape:pageopacity="0"
   inkscape:pageshadow="2"
   inkscape:window-width="1920"
   inkscape:window-height="1024"
   id="namedview3903"
   showgrid="false"
   inkscape:zoom="0.8125"
   inkscape:cx="173.36375"
   inkscape:cy="118.43778"
   inkscape:window-x="0"
   inkscape:window-y="30"
   inkscape:window-maximized="1"
   inkscape:current-layer="Capa_1" />
<g
   id="g3834"
   transform="translate(0,-175.33)">
	<g
   id="g3832">
		<path
   d="m 502,206.5 h -82 v -21.167 c 0,-5.523 -4.478,-10 -10,-10 H 194 c -5.522,0 -10,4.477 -10,10 0,5.523 4.478,10 10,10 h 206 v 76.666 c 0,67.348 -35.957,129.942 -94.018,164 H 114.018 C 55.957,401.942 20,339.347 20,272 v -76.666 h 67 c 5.522,0 10,-4.477 10,-10 0,-5.523 -4.478,-10 -10,-10 H 10 c -5.522,0 -10,4.477 -10,10 V 272 c 0,37.8 10.16,74.864 29.382,107.183 12.963,21.797 29.783,41.045 49.48,56.817 H 10 c -5.522,0 -10,4.477 -10,10 0,36.393 29.607,66 66,66 h 312 c 36.393,0 66,-29.607 66,-66 0,-5.523 -4.478,-10 -10,-10 h -92.862 c 18.129,-14.516 33.812,-31.983 46.302,-51.667 h 28.227 C 468.785,384.333 512,341.118 512,288 v -71.5 c 0,-5.523 -4.477,-10 -10,-10 z M 422.905,456 C 418.327,476.572 399.931,492 378,492 H 66 C 44.069,492 25.674,476.572 21.095,456 h 90.244 197.322 z M 420,272 v -5.5 h 32 V 288 c 0,20.034 -16.299,36.333 -36.333,36.333 h -2.271 C 417.761,307.327 420,289.745 420,272 Z m 72,16 c 0,42.09 -34.243,76.333 -76.333,76.333 h -17.02 c 3.193,-6.521 6.045,-13.197 8.537,-20 h 8.483 C 446.73,344.333 472,319.062 472,288 v -31.5 c 0,-5.523 -4.478,-10 -10,-10 h -42 v -20 h 72 z"
   id="path3830"
   inkscape:connector-curvature="0" />
	</g>
</g>



<g
   id="g3858"
   transform="translate(0,-175.33)">
	<g
   id="g3856">
		<path
   d="m 150.28,178.26 c -1.86,-1.86 -4.44,-2.93 -7.07,-2.93 -2.63,0 -5.21,1.07 -7.07,2.93 -1.859,1.87 -2.93,4.44 -2.93,7.07 0,2.63 1.07,5.21 2.93,7.08 1.86,1.86 4.44,2.92 7.07,2.92 2.63,0 5.21,-1.06 7.07,-2.92 1.869,-1.87 2.93,-4.44 2.93,-7.08 0,-2.63 -1.061,-5.21 -2.93,-7.07 z"
   id="path3854"
   inkscape:connector-curvature="0" />
	</g>
</g>
<g
   id="g3864"
   transform="translate(0,-175.33)">
	<g
   id="g3862">
		<path
   d="m 362,262 c -5.522,0 -10,4.477 -10,10 0,37.119 -15.056,73.598 -41.308,100.083 -3.888,3.922 -3.859,10.254 0.063,14.142 1.95,1.933 4.495,2.898 7.04,2.898 2.574,-10e-4 5.148,-0.989 7.103,-2.962 C 354.832,355.961 372,314.351 372,272 c 0,-5.523 -4.478,-10 -10,-10 z"
   id="path3860"
   inkscape:connector-curvature="0" />
	</g>
</g>
<g
   id="g3870"
   transform="translate(0,-175.33)">
	<g
   id="g3868">
		<path
   d="m 293.885,399.225 c -2.714,-4.811 -8.813,-6.51 -13.623,-3.797 l -0.228,0.129 c -4.811,2.714 -6.51,8.813 -3.797,13.623 1.838,3.258 5.227,5.089 8.719,5.089 1.664,0 3.352,-0.417 4.904,-1.292 l 0.228,-0.129 c 4.811,-2.714 6.51,-8.813 3.797,-13.623 z"
   id="path3866"
   inkscape:connector-curvature="0" />
	</g>
</g>
<g
   id="g3872"
   transform="translate(0,-175.33)">
</g>
<g
   id="g3874"
   transform="translate(0,-175.33)">
</g>
<g
   id="g3876"
   transform="translate(0,-175.33)">
</g>
<g
   id="g3878"
   transform="translate(0,-175.33)">
</g>
<g
   id="g3880"
   transform="translate(0,-175.33)">
</g>
<g
   id="g3882"
   transform="translate(0,-175.33)">
</g>
<g
   id="g3884"
   transform="translate(0,-175.33)">
</g>
<g
   id="g3886"
   transform="translate(0,-175.33)">
</g>
<g
   id="g3888"
   transform="translate(0,-175.33)">
</g>
<g
   id="g3890"
   transform="translate(0,-175.33)">
</g>
<g
   id="g3892"
   transform="translate(0,-175.33)">
</g>
<g
   id="g3894"
   transform="translate(0,-175.33)">
</g>
<g
   id="g3896"
   transform="translate(0,-175.33)">
</g>
<g
   id="g3898"
   transform="translate(0,-175.33)">
</g>
<g
   id="g3900"
   transform="translate(0,-175.33)">
</g>
<path
   style="stroke-width:1.23076928"
   d="M 48.948148,333.70233 C 31.593521,329.03509 15.328975,315.62409 7.8087207,299.78065 0.5950992,284.58321 -1.3262602,269.48159 3.3193834,264.49508 c 2.4712385,-2.65257 3.0589589,-2.69362 38.5641016,-2.69362 19.830041,0 36.372505,-0.31788 36.761032,-0.70641 0.388527,-0.38853 -3.257627,-4.16289 -8.102564,-8.38747 C 44.866904,230.32 23.092554,197.15299 11.699867,163.07845 1.9945809,134.05077 1.7548582,131.83647 1.154738,65.67389 L 0.6205211,6.7770836 3.3912895,3.8277359 6.1620578,0.87838821 H 48.135202 c 45.508624,0 46.277542,0.108272 47.944797,6.75113849 0.899649,3.5844893 -1.858983,9.7928503 -4.863701,10.9458693 -1.095785,0.420491 -17.731654,0.764531 -36.968597,0.764531 H 19.271439 v 42.510048 c 0,23.380525 0.580147,47.888215 1.289218,54.461535 3.385105,31.38108 14.070243,60.61126 32.065718,87.71872 10.295633,15.50881 34.681507,39.9192 50.110335,50.1607 l 11.46527,7.61053 h 95.72854 95.72852 l 7.88116,-5.09384 c 37.5042,-24.24012 66.97274,-63.93312 79.31508,-106.83436 6.46812,-22.48281 6.90289,-27.09725 7.57322,-80.379487 l 0.63098,-50.153846 H 296.41997 c -57.55174,0 -105.53606,-0.34404 -106.63185,-0.764531 -3.00472,-1.153019 -5.76335,-7.36138 -4.8637,-10.9458693 1.77519,-7.07295282 -3.82502,-6.75113849 117.48325,-6.75113849 h 111.51161 l 2.67608,2.84855529 c 2.386,2.5397729 2.67608,4.2074602 2.67608,15.3846155 v 12.53606 h 42.94058 c 40.43634,0 43.11002,0.137135 45.84615,2.35149 l 2.90558,2.351492 0.38086,39.802355 c 0.41858,43.744624 -0.40905,53.563484 -5.79857,68.793674 -4.51987,12.77258 -10.09326,21.78265 -20.20861,32.66967 -13.14226,14.14485 -29.17227,23.61 -47.90509,28.28629 -4.7007,1.17344 -16.10443,2.18905 -29.28024,2.60771 l -21.58086,0.68573 -3.87138,5.85046 c -6.80614,10.28547 -22.52254,28.17298 -32.40403,36.88041 -5.27057,4.64437 -9.26104,8.76611 -8.86773,9.15944 0.39332,0.39332 22.41391,0.71512 48.93464,0.71512 47.48858,0 48.25504,0.0394 50.5641,2.5957 1.86443,2.0641 2.28393,4.17246 2.04839,10.2947 -1.04185,27.07966 -21.61158,52.00052 -48.93456,59.28573 -9.52213,2.5389 -335.595457,2.27882 -345.092522,-0.27526 z M 397.39423,312.6499 c 4.73503,-2.24308 10.61259,-6.32434 13.73573,-9.53781 5.57888,-5.74025 11.83379,-16.64409 11.83379,-20.6292 0,-2.13029 -8.12546,-2.21989 -201.31371,-2.21989 H 20.336331 l 0.829988,2.76923 c 4.729723,15.78057 17.316329,28.36725 32.479703,32.47991 4.364798,1.18382 42.583607,1.47339 170.548498,1.29214 l 164.92307,-0.23358 z m 34.43201,-124.79824 c 18.00357,-3.68354 38.13317,-17.65469 48.26761,-33.50066 10.93598,-17.09918 13.33419,-31.12013 12.77767,-74.703381 l -0.36931,-28.923077 -36.61539,-0.326007 -36.61538,-0.326007 v 11.095237 11.095239 h 23.38461 c 31.06306,0 28.61349,-2.611452 28.08009,29.935836 l -0.40698,24.83339 -3.887,8.24988 c -6.33471,13.44498 -18.94161,25.08667 -32.45403,29.96925 -3.01726,1.09025 -10.34907,2.35236 -16.29291,2.80465 l -10.80699,0.82238 -4.26994,9.83351 c -2.34846,5.40843 -4.26993,9.97766 -4.26993,10.15385 0,0.9629 27.95372,0.11618 33.47788,-1.01409 z m -0.62082,-41.72514 c 7.66123,-3.38517 15.60159,-11.96485 18.6746,-20.17817 2.11562,-5.65452 2.62219,-9.73387 2.62219,-21.11613 V 90.724542 h -16.42558 -16.42557 l -0.81368,16.307688 c -0.71726,14.3755 -2.02957,24.20349 -5.20133,38.95309 l -0.89969,4.18384 6.65215,-0.88029 c 3.65869,-0.48414 8.97629,-1.90721 11.81691,-3.16235 z"
   id="path3934"
   inkscape:connector-curvature="0" /><path
   style="stroke-width:1.23076928"
   d="M 51.886823,313.74634 C 39.016181,309.2562 27.755349,298.46361 23.692664,286.72454 l -1.810276,-5.23077 H 221.11966 c 128.02818,0 199.50222,0.42869 199.97857,1.19945 1.39808,2.26215 -5.95219,14.86882 -11.92856,20.45902 -3.28727,3.07484 -9.14377,7.07496 -13.01445,8.88916 l -7.03763,3.29853 -165.53846,0.27664 C 68.878728,315.8751 57.637767,315.75265 51.886823,313.74634 Z"
   id="path3938"
   inkscape:connector-curvature="0" /></svg>