<?xml version="1.0" encoding="UTF-8" standalone="no"?>
<!-- Generator: Adobe Illustrator 19.0.0, SVG Export Plug-In . SVG Version: 6.00 Build 0)  -->

<svg
   xmlns:dc="http://purl.org/dc/elements/1.1/"
   xmlns:cc="http://creativecommons.org/ns#"
   xmlns:rdf="http://www.w3.org/1999/02/22-rdf-syntax-ns#"
   xmlns:svg="http://www.w3.org/2000/svg"
   xmlns="http://www.w3.org/2000/svg"
   xmlns:xlink="http://www.w3.org/1999/xlink"
   xmlns:sodipodi="http://sodipodi.sourceforge.net/DTD/sodipodi-0.dtd"
   xmlns:inkscape="http://www.inkscape.org/namespaces/inkscape"
   version="1.1"
   id="Capa_1"
   x="0px"
   y="0px"
   viewBox="0 0 512 280.36328"
   xml:space="preserve"
   sodipodi:docname="cup_1-2.svg"
   width="512"
   height="280.36328"
   inkscape:version="0.92.5 (2060ec1f9f, 2020-04-08)"><metadata
   id="metadata3907"><rdf:RDF><cc:Work
       rdf:about=""><dc:format>image/svg+xml</dc:format><dc:type
         rdf:resource="http://purl.org/dc/dcmitype/StillImage" /><dc:title /></cc:Work></rdf:RDF></metadata><defs
   id="defs3905"><linearGradient
   inkscape:collect="always"
   id="linearGradient4671"><stop
     style="stop-color:#000000;stop-opacity:1;"
     offset="0"
     id="stop4667" /><stop
     style="stop-color:#000000;stop-opacity:0;"
     offset="1"
     id="stop4669" /></linearGradient>
		
	<radialGradient
   inkscape:collect="always"
   xlink:href="#linearGradient4671"
   id="radialGradient4673"
   cx="256"
   cy="315.51363"
   fx="256"
   fy="315.51363"
   r="256.5"
   gradientTransform="matrix(1,0,0,0.54845896,0,142.46735)"
   gradientUnits="userSpaceOnUse" /></defs><sodipodi:namedview
   pagecolor="#ffffff"
   bordercolor="#666666"
   borderopacity="1"
   objecttolerance="10"
   gridtolerance="10"
   guidetolerance="10"
   inkscape:pageopacity="0"
   inkscape:pageshadow="2"
   inkscape:window-width="1920"
   inkscape:window-height="1024"
   id="namedview3903"
   showgrid="false"
   inkscape:zoom="1.8101934"
   inkscape:cx="272.14854"
   inkscape:cy="110.2097"
   inkscape:window-x="0"
   inkscape:window-y="30"
   inkscape:window-maximized="1"
   inkscape:current-layer="Capa_1"
   inkscape:snap-grids="true"
   inkscape:snap-to-guides="true" />
<g
   id="g3834"
   transform="translate(0,-175.33)"
   style="stroke:#000000;stroke-opacity:1">
	<path
   d="m 10,0.00390625 c -5.522,0 -10,4.47700005 -10,9.99999975 v 86.666016 c 0,37.799998 10.160813,74.864598 29.382812,107.183598 12.963001,21.797 29.781516,41.0444 49.478516,56.8164 17.862475,16.66511 34.677732,19.69336 34.677732,19.69336 l 193.23047,-0.30859 c 0,0 20.14315,-5.8472 34.36914,-19.38477 0.83639,-0.79591 1.78176,-1.55748 2.80664,-2.29492 16.94192,-14.0497 31.65434,-30.7118 43.49414,-49.37109 h 28.22852 c 53.118,0 96.33203,-43.21599 96.33203,-96.33399 V 41.169922 c 0,-5.523 -4.477,-10 -10,-10 H 420 V 10.003906 C 420,4.4809063 415.522,0.00390625 410,0.00390625 H 194 c -5.522,0 -10,4.47700005 -10,9.99999975 0,5.523 4.478,10 10,10 H 400 V 96.669922 C 400,164.01792 364.04342,226.61192 305.98242,260.66992 H 114.01758 C 55.956578,226.61292 20,164.01692 20,96.669922 V 20.003906 h 67 c 5.522,0 10,-4.477 10,-10 C 97,4.4809063 92.522,0.00390625 87,0.00390625 Z M 420,51.169922 h 72 v 61.499998 c 0,42.09 -34.24203,76.33399 -76.33203,76.33399 h -17.02149 c 3.193,-6.521 6.04511,-13.197 8.53711,-20 h 8.48438 c 31.063,0 56.33203,-25.27199 56.33203,-56.33399 V 81.169922 c 0,-5.523 -4.478,-10 -10,-10 h -42 z m 0,40 h 32 v 21.499998 c 0,20.034 -16.29803,36.33399 -36.33203,36.33399 h -2.27149 C 417.76148,131.99791 420,114.41492 420,96.669922 Z"
   transform="translate(0,175.33)"
   id="path3830"
   inkscape:connector-curvature="0"
   style="stroke:#000000;stroke-opacity:1" />
</g>



<g
   id="g3858"
   transform="translate(0,-175.33)">
	<g
   id="g3856">
		<path
   d="m 150.28,178.26 c -1.86,-1.86 -4.44,-2.93 -7.07,-2.93 -2.63,0 -5.21,1.07 -7.07,2.93 -1.859,1.87 -2.93,4.44 -2.93,7.07 0,2.63 1.07,5.21 2.93,7.08 1.86,1.86 4.44,2.92 7.07,2.92 2.63,0 5.21,-1.06 7.07,-2.92 1.869,-1.87 2.93,-4.44 2.93,-7.08 0,-2.63 -1.061,-5.21 -2.93,-7.07 z"
   id="path3854"
   inkscape:connector-curvature="0" />
	</g>
</g>
<g
   id="g3864"
   transform="translate(0,-175.33)"
   style="stroke:#000000;stroke-opacity:1">
	<g
   id="g3862"
   style="stroke:#000000;stroke-opacity:1">
		<path
   d="m 362,262 c -5.522,0 -10,4.477 -10,10 0,37.119 -15.056,73.598 -41.308,100.083 -3.888,3.922 -3.859,10.254 0.063,14.142 1.95,1.933 4.495,2.898 7.04,2.898 2.574,-10e-4 5.148,-0.989 7.103,-2.962 C 354.832,355.961 372,314.351 372,272 c 0,-5.523 -4.478,-10 -10,-10 z"
   id="path3860"
   inkscape:connector-curvature="0"
   style="stroke:#000000;stroke-opacity:1" />
	</g>
</g>
<g
   id="g3870"
   transform="translate(0,-175.33)">
	<g
   id="g3868">
		<path
   d="m 293.885,399.225 c -2.714,-4.811 -8.813,-6.51 -13.623,-3.797 l -0.228,0.129 c -4.811,2.714 -6.51,8.813 -3.797,13.623 1.838,3.258 5.227,5.089 8.719,5.089 1.664,0 3.352,-0.417 4.904,-1.292 l 0.228,-0.129 c 4.811,-2.714 6.51,-8.813 3.797,-13.623 z"
   id="path3866"
   inkscape:connector-curvature="0" />
	</g>
</g>
<g
   id="g3872"
   transform="translate(0,-175.33)">
</g>
<g
   id="g3874"
   transform="translate(0,-175.33)">
</g>
<g
   id="g3876"
   transform="translate(0,-175.33)">
</g>
<g
   id="g3878"
   transform="translate(0,-175.33)">
</g>
<g
   id="g3880"
   transform="translate(0,-175.33)">
</g>
<g
   id="g3882"
   transform="translate(0,-175.33)">
</g>
<g
   id="g3884"
   transform="translate(0,-175.33)">
</g>
<g
   id="g3886"
   transform="translate(0,-175.33)">
</g>
<g
   id="g3888"
   transform="translate(0,-175.33)">
</g>
<g
   id="g3890"
   transform="translate(0,-175.33)">
</g>
<g
   id="g3892"
   transform="translate(0,-175.33)">
</g>
<g
   id="g3894"
   transform="translate(0,-175.33)">
</g>
<g
   id="g3896"
   transform="translate(0,-175.33)">
</g>
<g
   id="g3898"
   transform="translate(0,-175.33)">
</g>
<g
   id="g3900"
   transform="translate(0,-175.33)">
</g>
<path
   style="fill:none;stroke:none;stroke-width:1.06505299px;stroke-linecap:butt;stroke-linejoin:miter;stroke-opacity:1"
   d="M 0.04181223,278.31934 2.5029836,142.17847 512.58073,140.78216 l 0.6153,138.93349 z"
   id="path68"
   inkscape:connector-curvature="0" /><g
   id="g1485"><path
     inkscape:connector-curvature="0"
     id="path4599"
     d="M 108.4103,256.81966 C 100.37213,251.74841 90.332009,244.0673 82.459523,236.96622 75.768257,230.93062 65.247475,219.64108 61.329957,214.2927 l -1.915688,-2.61538 H 185.18354 c 124.55432,0 125.79259,0.0119 128.18336,1.23077 3.05088,1.55543 5.17642,1.55309 8.8092,-0.01 2.70324,-1.1629 3.99653,-1.23024 20.6846,-1.07692 l 17.80108,0.16353 -4.86242,5.84616 c -12.67294,15.23686 -28.39196,29.0857 -44.47254,39.1814 l -5.22466,3.28013 h -96.09345 -96.09346 z m 182.55273,-19.57591 c 2.77853,-1.83006 4.25002,-4.87662 4.25002,-8.7992 0,-3.8968 -1.82709,-6.7478 -5.51997,-8.61338 -3.31525,-1.67482 -5.65991,-1.73004 -9.00245,-0.21205 -8.04185,3.65218 -7.60448,15.84806 0.67627,18.85755 3.11459,1.13194 6.70625,0.67048 9.59613,-1.23292 z"
     style="fill:#000000;stroke:#000000;stroke-width:0.61538464;stroke-opacity:1" /><path
     inkscape:connector-curvature="0"
     id="path4653"
     d="M 182.12841,211.36947 59.371515,211.25916 55.900701,206.36457 C 45.337622,191.46835 37.051055,175.46348 31.287469,158.826 c -2.299056,-6.63659 -4.836868,-15.43162 -4.538808,-15.72968 0.251341,-0.25134 278.287809,-1.1115 301.264719,-0.93202 l 16.16579,0.12628 -1.70524,4.56899 c -2.18103,5.84378 -7.71784,17.19028 -11.25522,23.06511 -5.15703,8.56474 -11.21506,16.57778 -18.03335,23.85296 -2.09097,2.23108 -4.17318,4.87457 -4.62713,5.87442 -1.58833,3.49833 -0.86972,8.21304 1.65329,10.84712 l 1.14618,1.19665 -3.2362,-0.10802 c -1.7799,-0.0594 -58.4768,-0.15767 -125.99309,-0.21834 z"
     style="fill:#000000;stroke:#000000;stroke-width:0.43514264;stroke-opacity:1" /><path
     inkscape:connector-curvature="0"
     id="path4655"
     d="m 327.8907,208.07362 c 16.87907,-18.51883 28.43897,-37.97268 35.92221,-60.45255 l 1.84688,-5.54807 h 14.05496 14.05496 l -1.49448,5.3305 c -5.59918,19.97111 -14.21019,38.47358 -25.87124,55.58947 -2.36429,3.47027 -4.64109,6.74514 -5.05957,7.27751 l -0.76085,0.96795 -17.89802,0.11991 -17.89802,0.11991 z"
     style="fill:#000000;stroke:#000000;stroke-width:0.43514264;stroke-opacity:1" /></g><path
   style="fill:#000000;stroke:#000000;stroke-width:0.43514264;stroke-opacity:1"
   d="m 400.10024,187.65419 c 0.12616,-0.29916 1.20015,-2.69788 2.38666,-5.33049 1.1865,-2.63262 2.81171,-6.47372 3.61157,-8.5358 l 1.4543,-3.74922 7.19295,-0.30768 c 8.66365,-0.37058 13.10452,-1.09276 19.15938,-3.11568 8.77986,-2.93335 16.1998,-7.67054 22.78081,-14.5442 2.18925,-2.2866 4.923,-5.56952 6.07499,-7.29536 l 2.09453,-3.1379 h 10.22757 10.22758 l -0.3042,0.97907 c -0.68112,2.19225 -3.79451,7.86104 -6.65623,12.1195 -12.06418,17.95244 -30.91907,29.75984 -52.39882,32.81344 -5.89011,0.83735 -26.19477,0.91929 -25.85109,0.10432 z"
   id="path4657"
   inkscape:connector-curvature="0" /><path
   style="fill:#000000;stroke:#000000;stroke-opacity:1"
   id="path4675"
   d="m 293.35944,211.67431 c 3.74058,-0.7126 7.45292,-1.54618 11.16299,-2.40579 4.04553,-1.09523 8.19871,-1.60653 12.36613,-1.93165 2.4912,-0.17552 4.90864,-0.39161 7.28767,0.48702 1.02448,0.48364 1.68249,1.24705 1.9536,2.33232 0.11741,0.9768 0.17874,1.97083 -0.0969,2.92139 -0.0864,0.16915 -0.1564,0.3477 -0.25912,0.50745 -0.27997,0.4354 -0.73636,0.95368 -1.1696,1.21969 -4.24516,2.60649 -5.47481,3.44293 -9.18007,4.87455 -2.54527,1.05715 -5.15221,1.87385 -7.88421,2.24117 -2.75499,0.31869 -5.50559,0.28143 -8.24221,-0.14526 -2.0098,-0.46668 -4.01015,-0.98411 -5.9983,-1.53604 -1.5006,-0.36244 -2.50529,-0.54108 -3.7303,-1.54104 -0.11589,-0.21091 -0.28085,-0.40154 -0.34767,-0.63274 -0.44074,-1.52511 1.13138,-2.61129 2.23536,-3.26115 2.28635,-1.34586 4.61054,-2.62639 6.91581,-3.93959 3.49027,-1.64521 7.23623,-2.72361 11.01,-3.49264 2.80656,-0.51148 5.66134,-0.63296 8.50734,-0.68308 1.70308,0.049 3.42741,-0.14717 5.12279,0.0536 0.68157,0.1026 1.36213,0.19936 2.03501,0.34821 0,0 -5.26995,3.6787 -5.26995,3.6787 v 0 c -0.66325,-0.10702 -1.32548,-0.22428 -1.99295,-0.30169 -1.66224,-0.10702 -3.33212,-0.0443 -4.9966,-0.0574 -2.79968,0.0567 -5.60786,0.17527 -8.36257,0.72228 -3.74347,0.80944 -7.46774,1.87816 -10.89046,3.62726 1.25393,-0.74429 2.50498,-1.49346 3.7618,-2.23288 0.40757,-0.23978 -0.82155,0.47016 -1.21401,0.73396 -0.35358,0.23766 -0.97929,0.69299 -1.19907,1.12569 -0.21956,0.43226 -0.0687,0.52562 0.11732,0.89104 1.05247,0.78207 2.31554,1.00332 3.55787,1.35329 1.95214,0.54041 3.89965,1.11359 5.88478,1.5194 2.70613,0.37668 5.43076,0.36106 8.14082,-0.0113 2.68134,-0.44547 5.25048,-1.28111 7.75876,-2.32756 0.47179,-0.19436 0.94932,-0.37533 1.41537,-0.58308 1.68353,-0.75046 5.66646,-2.99923 -3.05916,1.94307 -0.44781,0.25364 0.85906,-0.58816 1.19381,-0.97906 0.10976,-0.12818 0.19442,-0.27589 0.29164,-0.41383 0.44713,-0.78728 0.3032,-1.69072 0.2515,-2.56753 -0.15489,-0.89737 -0.7052,-1.45672 -1.55069,-1.80844 -2.26592,-0.7397 -4.64556,-0.52545 -6.99184,-0.37813 -4.13048,0.31336 -8.23152,0.88548 -12.2416,1.95521 -3.79222,0.88576 -7.6099,1.66333 -11.38658,2.60661 0,0 5.0935,-3.91199 5.0935,-3.91199 z"
   inkscape:connector-curvature="0" /><path
   style="fill:#000000;stroke:#000000;stroke-opacity:1"
   id="path4677"
   d="m 280.2148,225.8794 c -1.49436,0.85779 -2.97931,1.73221 -4.48309,2.57338 -0.45478,0.2544 0.8923,-0.53853 1.33545,-0.81268 2.22678,-1.37756 4.43046,-2.77636 6.69271,-4.09648 3.5441,-1.81213 6.85505,-4.11349 10.48068,-5.78665 1.58422,-0.73108 3.21521,-1.2838 4.87762,-1.80183 2.54367,-0.78764 5.18745,-1.15102 7.77264,-1.76937 2.4468,-0.70779 4.93576,-1.22663 7.43252,-1.72326 1.53217,-0.27091 3.07341,-0.50543 4.6297,-0.56269 1.08898,-0.0232 2.17844,-0.0146 3.26762,-0.0125 1.12087,-0.21855 2.26848,-0.23562 3.38975,-0.4333 1.55167,-0.42828 3.14324,-0.68683 4.7176,-1.01621 2.05938,-0.34057 4.12034,-0.67558 6.19192,-0.93505 1.13617,-0.10756 0.56703,-0.0419 1.70735,-0.19746 0,0 -5.10755,3.81155 -5.10755,3.81155 v 0 c -1.15028,0.139 -0.58211,0.0751 -1.70443,0.19233 -2.05987,0.25594 -4.11198,0.58154 -6.15104,0.96908 -1.59817,0.33192 -3.19449,0.67158 -4.78826,1.0225 -1.1527,0.13885 -2.3066,0.29511 -3.4649,0.3687 -1.08016,-0.006 -2.16104,-0.0155 -3.24039,0.0357 -1.50585,0.0974 -3.00468,0.28486 -4.48681,0.57143 -2.49232,0.49119 -4.96224,1.06179 -7.41236,1.73352 -2.56606,0.57558 -5.17851,0.96184 -7.68803,1.76843 -2.24797,0.73348 -4.37884,1.60879 -6.47515,2.7081 -0.57639,0.30226 -2.2662,1.27883 -1.71724,0.9292 1.15479,-0.73548 2.35796,-1.3921 3.53693,-2.08815 -0.71906,0.41581 -2.73426,1.57467 -3.43551,2.00624 -3.6118,2.22284 -7.03377,4.74103 -10.89461,6.55852 0,0 5.01688,-4.01303 5.01688,-4.01303 z"
   inkscape:connector-curvature="0" /><path
   style="fill:#000000;stroke:#000000;stroke-opacity:1"
   id="path4679"
   d="m 314.66335,208.59613 c -0.25648,0.1265 -0.51843,0.24248 -0.76945,0.3795 -0.37029,0.20212 -1.46273,0.84121 -1.0934,0.63734 1.3514,-0.74592 2.64571,-1.60092 4.03979,-2.26364 0.5488,-0.26089 -1.00104,0.68955 -1.48935,1.05122 -1.59211,1.17917 -1.5568,1.20862 -3.06674,2.54769 -2.59893,2.36345 -5.11322,4.80837 -7.79601,7.07764 -3.59868,3.04447 -7.76317,5.35298 -12.05845,7.26682 -2.69724,1.23954 -5.52629,2.04754 -8.44882,2.51985 -2.68471,0.39246 -5.37626,0.75301 -8.07351,1.04935 -2.06673,0.20159 -4.14314,0.24995 -6.21794,0.28584 -1.61367,0.0433 -3.23084,-0.0521 -4.84067,0.0763 -0.86025,0.14393 -1.70079,0.3748 -2.55244,0.56132 0,0 5.06025,-3.84961 5.06025,-3.84961 v 0 c 0.86995,-0.19908 1.73856,-0.42974 2.63218,-0.49505 1.61511,-0.0729 3.23239,-0.0132 4.84873,-0.0449 2.05081,-0.0252 4.10338,-0.0874 6.14397,-0.30732 2.67127,-0.30299 5.34488,-0.60713 7.99848,-1.04077 2.90037,-0.53763 5.70496,-1.40626 8.37855,-2.66788 1.98356,-0.92024 6.52687,-3.42914 -1.99147,1.39604 -0.37407,0.21189 0.7337,-0.4492 1.08699,-0.69416 0.6263,-0.43425 1.63903,-1.24492 2.23321,-1.71185 2.72001,-2.26763 5.28769,-4.68856 7.88956,-7.08969 0.49988,-0.46474 0.98333,-0.94778 1.49962,-1.3942 3.4744,-3.00426 7.56353,-5.2002 11.63156,-7.28763 0,0 -5.04464,3.99779 -5.04464,3.99779 z"
   inkscape:connector-curvature="0" /><path
   style="fill:#000000;stroke:#000000;stroke-opacity:1"
   id="path4681"
   d="m 296.48868,202.39962 c -1.15502,2.54717 -2.09869,5.17994 -3.03792,7.81238 -0.84405,2.40011 -1.78088,4.76642 -2.61084,7.17142 -0.48802,1.80387 -0.83771,3.63425 -1.39525,5.42037 -0.57038,1.77411 -1.29071,3.50049 -2.1031,5.17687 -0.59272,1.19992 -1.44488,2.22723 -2.3402,3.20945 -0.74289,0.93357 -1.40819,1.91009 -2.23368,2.7759 -0.86715,0.84162 -1.65768,1.74866 -2.62785,2.47394 -1.51161,-0.17342 -4.6524,3.2726 -7.14068,3.8489 -0.17724,0.0411 -0.3601,0.12694 -0.53829,0.0902 -0.75324,-0.15516 -0.7912,-0.63707 -1.13312,-1.26617 -0.0703,-0.50227 -0.17844,-1.00068 -0.2109,-1.5068 -0.20448,-3.18916 0.41021,-6.56994 0.89662,-9.71547 0.45632,-2.62558 1.0958,-5.22608 2.01424,-7.72922 0.54272,-1.52514 1.31816,-2.56512 2.66104,-3.4462 2.0301,-1.16515 4.05344,-2.34217 6.09031,-3.49546 0.18867,-0.10683 1.20273,-0.58301 1.37526,-0.67515 0.25273,-0.13498 0.9921,-0.57374 0.7438,-0.43079 -4.34267,2.50027 -9.44163,5.44585 1.60722,-0.9324 1.61819,-0.99373 3.33102,-1.65508 5.17182,-2.08371 1.78841,-0.34349 2.36172,-0.46064 2.36012,1.691 -0.49411,2.74991 -2.46474,4.71038 -4.48336,6.47447 -2.19917,1.62933 -4.55441,3.0373 -6.92406,4.40185 -7.18357,4.13663 -4.67069,2.84691 -8.61214,4.80907 -2.14192,1.09744 -4.46678,1.63034 -6.85059,1.79865 -1.12005,-0.023 -2.28804,0.22749 -3.38684,-0.0877 -0.71686,-0.20564 -0.89064,-0.37065 -1.52514,-0.75682 -1.40362,-1.13218 -2.5699,-2.538 -3.72888,-3.9126 -2.0621,-2.47973 -4.31091,-4.79396 -6.62278,-7.03936 -3.64656,-3.14274 -7.94701,-5.53169 -12.47799,-7.15039 -1.12834,-0.40311 -2.28532,-0.72108 -3.42798,-1.08162 -6.64448,-1.77401 -13.4848,-2.63915 -20.31532,-3.31144 -5.13572,-0.44537 -10.26786,-0.97543 -15.31158,-2.06124 -2.85441,-0.69692 -5.65433,-1.59263 -8.5377,-2.16928 -0.7558,-0.12956 -1.47222,-0.40355 -2.20317,-0.62384 -0.19069,-0.0575 -0.39482,-0.0783 -0.57446,-0.16427 -0.19053,-0.0912 -0.34753,-0.24024 -0.5213,-0.36036 0,0 5.40292,-3.48479 5.40292,-3.48479 v 0 c 0.96604,0.51322 2.07349,0.7255 3.1235,1.00632 2.81063,0.6815 5.55307,1.60876 8.36573,2.28298 4.97941,1.05079 10.02816,1.67625 15.09523,2.1331 6.84283,0.72023 13.6995,1.57292 20.34147,3.43899 1.16611,0.36331 2.3466,0.68335 3.49834,1.08992 4.6377,1.63716 8.98894,4.11214 12.7917,7.22238 2.37195,2.22703 4.6614,4.5435 6.79384,7.00297 1.15521,1.2881 2.27431,2.65117 3.65799,3.70067 0.22698,0.11684 0.44357,0.25656 0.68093,0.35051 1.2623,0.49966 2.68324,0.21035 3.99493,0.19235 2.30123,-0.23986 4.52713,-0.81117 6.58791,-1.89788 2.82454,-1.44207 1.99004,-1.05452 -1.98802,1.28563 -0.59814,0.35186 1.19925,-0.69866 1.79684,-1.05145 1.73376,-1.02354 3.45643,-2.06744 5.10507,-3.22538 1.94203,-1.61227 3.90173,-3.39076 4.53744,-5.93661 0.008,-0.0627 0.15462,-0.71579 0.0203,-0.8969 -0.13461,-0.18143 -1.55312,0.18414 -1.74017,0.21064 -1.79618,0.46773 -3.44667,1.25089 -5.03704,2.20646 1.54035,-0.88919 6.16302,-3.554 4.62106,-2.66759 -2.08339,1.19766 -4.15955,2.40791 -6.24537,3.60135 -0.59241,0.33895 -0.8911,0.46683 -1.48794,0.77372 -0.22091,0.11358 -0.87331,0.47342 -0.65934,0.34725 1.61992,-0.95521 3.25188,-1.88984 4.87782,-2.83476 -1.52578,0.85841 -2.17043,1.404 -2.87621,3.0828 -1.00223,2.47445 -1.71043,5.05663 -2.21111,7.67841 -0.59581,3.53517 -1.28539,7.18549 -0.72461,10.76504 0.1019,0.17243 0.14653,0.3957 0.30569,0.51729 0.85476,0.65303 11.25843,-6.00355 -2.9918,2.32384 1.05581,-0.6037 1.80058,-1.49718 2.65961,-2.34124 0.85802,-0.83974 1.63057,-1.7275 2.24985,-2.76356 0.90281,-0.94303 1.79316,-1.91073 2.4376,-3.05591 0.87003,-1.6289 1.59466,-3.34652 2.17947,-5.09692 0.57415,-1.78768 0.95626,-3.61066 1.39487,-5.43413 0.81112,-2.44093 1.86191,-4.79798 2.70741,-7.22783 0.92232,-2.58654 1.83441,-5.17809 2.84171,-7.73223 0,0 5.84711,-2.71964 5.84711,-2.71964 z"
   inkscape:connector-curvature="0" /><path
   style="fill:#000000;stroke:#000000;stroke-opacity:1"
   id="path4683"
   d="m 31.224523,151.24973 c 0.442602,1.51001 1.161071,2.91662 1.773076,4.35915 0.358946,0.84606 1.418603,3.57654 1.725886,4.36265 1.563362,4.08693 3.119268,8.17762 4.580451,12.30248 0.698028,2.03407 1.950797,3.76278 3.190633,5.48901 1.192707,1.52183 2.293951,3.10571 3.354734,4.72125 1.072123,1.42185 2.116843,2.86507 3.209162,4.2715 1.028252,1.07985 2.068804,2.14412 3.076656,3.24407 1.164607,1.04303 2.230914,2.17076 3.237755,3.36566 1.218076,1.34544 2.117971,2.8818 2.846777,4.5323 0.72398,1.55277 1.413111,3.11881 2.07928,4.69676 0.479645,1.11312 0.769572,2.29327 1.210154,3.42033 0.413392,1.14928 1.049129,2.19454 1.745792,3.19088 0.771023,0.94283 1.400604,1.95319 1.834301,3.09092 0.368004,0.85596 0.834808,1.66779 1.291889,2.47904 0.245297,0.38847 0.374635,0.83138 0.561244,1.24661 0.0415,0.0923 0.06473,0.20276 0.141516,0.26876 0.02882,0.0248 0.08869,-0.11737 0.05496,-0.0999 -1.876075,0.97342 -3.732515,1.98422 -5.598773,2.97633 -0.271063,-2.08559 -1.531265,-3.8257 -2.681567,-5.51654 -1.962732,-2.47975 -3.612625,-5.16572 -5.27837,-7.84616 -1.391811,-2.24769 -2.879142,-4.41654 -4.600786,-6.42383 -1.024822,-1.38803 -2.533833,-2.1662 -3.924053,-3.11326 -0.317532,-0.088 -1.565123,-1.28554 -1.797593,-1.32382 -0.06879,-0.0113 0.0124,0.23001 0.07321,0.19591 1.918259,-1.07562 3.767242,-2.27037 5.650862,-3.40556 2.193251,1.85019 4.019903,4.03832 5.697008,6.35426 1.969122,2.84588 3.894087,5.70933 6.111382,8.36994 1.376868,1.59783 2.668778,3.26543 4.026195,4.87928 0.114857,0.37522 0.572071,0.57429 0.711132,0.94245 0.814762,2.15703 -3.863065,2.62359 -6.050521,3.35276 -0.284322,0.0948 -0.497422,-0.33592 -0.729535,-0.52552 -0.356242,-0.29098 -0.688944,-0.60965 -1.033416,-0.91447 -3.032963,-3.51257 -5.02771,-7.74886 -7.443539,-11.67932 -2.138652,-3.24676 -4.526574,-6.31634 -6.670178,-9.55919 -1.880207,-2.72453 -3.348069,-5.68594 -4.784442,-8.65792 -1.242853,-2.47238 -2.191909,-5.06915 -3.246768,-7.62264 -0.811291,-1.91842 -1.582474,-3.84909 -2.222709,-5.8316 -0.4982,-1.7333 -0.765833,-3.52549 -1.07567,-5.30045 -0.139852,-1.10776 -0.341863,-2.20343 -0.599312,-3.28969 -0.230428,-1.17849 -0.8759,-2.20188 -1.364253,-3.28205 -0.563028,-1.2924 -1.312637,-2.49183 -2.127735,-3.63805 -0.8567,-0.91922 -1.305554,-2.0628 -1.793645,-3.19509 -1.005067,-2.20188 -0.447588,-0.74381 5.649348,-3.15678 0.174256,-0.069 0.150914,0.34314 0.231231,0.51247 0.360267,0.75951 0.810868,1.45752 1.236235,2.18168 0.81264,1.42985 1.576103,2.88713 2.383929,4.31956 0.437049,0.89198 0.813773,1.802 1.258342,2.69232 0.666733,1.53812 0.95289,3.17584 1.170266,4.82597 0.159389,1.27909 0.219091,2.56685 0.242527,3.85461 0.123164,2.43977 2.049132,0.0835 -5.753548,3.021 -0.156813,0.059 0.01223,-0.33491 0.01558,-0.50243 0.01445,-0.72283 0.0073,-0.57978 -0.02244,-1.37822 -0.139651,-1.72924 -0.372728,-3.45872 -0.798004,-5.14189 -0.455418,-1.32926 -1.058123,-2.58464 -1.420369,-3.94525 -0.223354,-1.08285 -0.392502,-2.17376 -0.759959,-3.21939 -0.596787,-0.99705 -1.250254,-1.96052 -1.857865,-2.9547 -0.593293,-1.02013 -1.242334,-2.00198 -1.911256,-2.97425 -2.146226,-3.12425 -1.657958,-1.37755 5.00114,-4.10561 2.601696,3.87127 4.995622,7.83923 7.302063,11.892 0.54606,0.98405 1.084778,1.97222 1.63818,2.95216 1.534571,2.71736 1.829319,3.27362 3.597288,5.85257 1.969522,2.87296 4.168695,5.57175 6.321983,8.30627 0.768718,0.97919 1.524448,1.96872 2.306152,2.93757 2.182036,2.70444 3.033128,3.70582 5.458529,6.24789 3.270616,3.42794 6.770317,6.62578 10.212316,9.87819 7.613468,7.10069 15.97107,13.3139 24.187984,19.68153 1.109752,0.82146 2.219505,1.64292 3.329257,2.46438 0,0 -4.901962,3.09708 -4.901962,3.09708 v 0 c -1.084604,-0.84118 -2.169208,-1.68237 -3.253812,-2.52355 -8.144406,-6.47491 -16.459527,-12.74755 -24.165238,-19.75412 -6.4374,-5.97994 -12.984874,-11.90934 -18.233773,-19.00783 -0.698749,-0.87773 -3.698301,-4.63097 -4.390876,-5.55812 -2.070505,-2.77182 -3.883764,-5.6664 -5.60819,-8.66099 -0.560179,-0.97279 -1.116425,-1.94784 -1.674638,-2.92176 -2.369364,-3.98069 -4.781923,-7.94524 -7.592735,-11.63522 5.554108,-4.49927 3.968746,-5.49889 6.002457,-2.39201 0.659994,0.98927 1.358553,1.95143 1.919568,3.0025 0.63512,1.02836 1.339483,2.01148 1.931723,3.0619 0.398011,1.06117 0.614127,2.16163 0.779412,3.28096 0.334458,1.36948 0.95176,2.62296 1.392881,3.95884 0.449155,1.71475 0.662035,3.48334 0.859656,5.24224 0.007,0.0719 0.140493,1.85283 0.106732,1.87447 -7.935401,5.08638 -5.851373,5.28981 -5.752052,2.8521 -6.63e-4,-1.27501 -0.0192,-2.55157 -0.148867,-3.8212 -0.182048,-1.57922 -0.452733,-3.14061 -1.117583,-4.59917 -0.46154,-0.87947 -0.840611,-1.77587 -1.237139,-2.68339 -0.771111,-1.44487 -1.48917,-2.91868 -2.329185,-4.32678 -0.43689,-0.73163 -0.893902,-1.44418 -1.30648,-2.18967 -1.326345,-2.3966 -0.766704,-0.56223 5.240003,-3.95209 0.08104,-0.0457 0.05257,0.17852 0.07886,0.26778 0.440265,1.10463 0.874958,2.19578 1.691962,3.08936 0.830559,1.18423 1.605664,2.41358 2.184039,3.74352 0.511778,1.1103 1.211493,2.14883 1.450602,3.36675 0.294375,1.10005 0.475633,2.22495 0.589543,3.35736 0.266115,1.75418 0.527954,3.5205 0.999973,5.23197 0.636869,1.96897 1.352879,3.90691 2.163266,5.81196 1.017692,2.55787 1.94247,5.15224 3.172657,7.62047 1.399804,2.95912 2.86071,5.89225 4.711794,8.6022 2.13054,3.25786 4.491103,6.35339 6.605429,9.62243 2.337772,3.8931 4.257251,8.13794 7.469557,11.41763 0.355217,0.26752 0.6959,0.55552 1.06565,0.80256 0.229434,0.1533 0.944247,0.22489 0.727281,0.39537 -1.610309,1.26532 -3.596212,1.97978 -5.263501,3.16901 -0.134209,0.0957 0.223703,0.34746 0.384482,0.31105 0.357379,-0.0809 -1.269478,-1.05948 -0.615574,-0.91076 -1.322343,-1.63628 -2.579796,-3.32409 -3.928944,-4.93908 -2.182673,-2.69791 -4.062918,-5.60327 -6.052108,-8.44338 -1.696775,-2.26424 -3.533821,-4.42424 -5.858514,-6.07391 1.705522,-1.28223 3.366266,-2.62629 5.116566,-3.84668 0.06277,-0.0438 0.06703,0.13978 0.117844,0.197 0.07865,0.0886 0.174687,0.16018 0.266174,0.23541 0.464786,0.3822 0.971837,0.70564 1.448617,1.07206 1.425331,0.9813 2.929741,1.85265 3.959414,3.29399 1.703124,2.05977 3.167448,4.27348 4.56042,6.55361 1.655051,2.67796 3.338753,5.33002 5.301093,7.79828 0.198311,0.28518 1.37686,1.96872 1.567248,2.28636 0.656125,1.0947 1.096027,2.30577 1.498118,3.5106 -1.521989,0.94106 -4.914252,5.54109 -6.038621,2.89245 -0.164858,-0.38835 -0.263763,-0.8075 -0.500104,-1.165 -0.478115,-0.83945 -0.960891,-1.68454 -1.328444,-2.57877 -0.389414,-1.10148 -1.027626,-2.03456 -1.739795,-2.95536 -0.722213,-1.03811 -1.401619,-2.11686 -1.822814,-3.3171 -0.453121,-1.12116 -0.759178,-2.29141 -1.19396,-3.41957 -0.641272,-1.5849 -1.301031,-3.15814 -2.031428,-4.70533 -0.709093,-1.59615 -1.596717,-3.0686 -2.787542,-4.36003 -0.995385,-1.19561 -2.089362,-2.28176 -3.228163,-3.33986 -1.014191,-1.11655 -2.092142,-2.16951 -3.093645,-3.29585 -1.090231,-1.42654 -2.127944,-2.89219 -3.204144,-4.32943 -1.0604,-1.60738 -2.16581,-3.17863 -3.357611,-4.69207 -1.265175,-1.78787 -2.514648,-3.59351 -3.173606,-5.71086 -1.350369,-4.15917 -2.792203,-8.29142 -4.431613,-12.34653 -1.199657,-2.90968 -2.562486,-5.7325 -3.852747,-8.60078 0,0 5.672301,-3.09194 5.672301,-3.09194 z"
   inkscape:connector-curvature="0" /><path
   style="fill:#000000;stroke:#000000;stroke-opacity:1"
   id="path4685"
   d="m 346.28282,211.2076 c 2.43072,-0.81178 4.96274,-1.20156 7.49875,-1.50145 2.60215,-0.2995 5.22365,-0.3995 7.80582,0.0818 1.58149,0.52321 2.94766,1.49354 4.48699,2.11721 0.53151,0.22508 1.12864,0.32377 1.67319,0.0773 0.12491,-0.0565 0.47665,-0.27125 0.35713,-0.20406 -1.71134,0.96197 -3.42174,1.92562 -5.13261,2.88844 0.82178,-0.71059 1.486,-1.64061 2.05537,-2.56584 0.51617,-1.06734 0.6349,-2.26049 0.95129,-3.39387 0.50627,-1.95346 1.0995,-3.87961 1.91484,-5.72657 0.84081,-1.64786 1.6667,-3.29629 2.39974,-4.99511 0.63496,-1.48813 1.44461,-2.89081 2.25991,-4.28514 0.87199,-1.39697 1.67169,-2.83303 2.34906,-4.33413 0.4939,-1.36614 1.18601,-2.645 1.6498,-4.02169 0.31517,-1.41516 0.98021,-2.70472 1.62965,-3.98822 0.67404,-1.31407 1.24209,-2.67369 1.60859,-4.10496 0.35342,-1.57895 0.75071,-3.14695 1.15158,-4.71454 0.56938,-1.96922 0.9276,-3.9875 1.28251,-6.00348 0.18436,-1.34536 0.48342,-2.67012 0.68161,-4.01297 0.15635,-1.34698 0.49482,-2.6386 0.9129,-3.92357 0.43216,-1.37766 1.04181,-2.68037 1.85735,-3.87004 0.73183,-1.00207 1.69845,-1.74521 2.74338,-2.38835 2.1314,-1.34538 4.12199,-2.77946 6.54227,-3.74525 0.26934,-0.10748 0.30959,0.52235 0.31137,0.81233 0.002,0.25967 -0.75037,1.00488 -0.83575,1.09859 -1.61724,1.83321 -3.19753,3.69164 -4.51929,5.75063 -1.76183,3.03791 -3.13582,6.27743 -4.53243,9.49338 -1.02028,2.36922 -2.07274,4.72338 -3.11786,7.08182 -1.11743,2.24918 -2.28524,4.46754 -3.36242,6.73692 -1.06828,1.99399 -2.12927,3.98781 -3.13717,6.01324 -0.86901,1.77275 -1.85647,3.47396 -2.65809,5.27935 -0.98907,2.08753 -1.98295,4.17196 -2.79887,6.33426 -0.73099,2.13937 -1.48303,4.27077 -2.20106,6.41445 -0.47056,1.35621 -0.81915,2.75116 -1.14502,4.1481 -0.53859,2.63066 -0.16633,0.90664 -5.82495,3.39229 -0.17196,0.0755 0.30961,-0.21648 0.44099,-0.35069 0.19624,-0.20047 0.35785,-0.43212 0.53678,-0.64819 1.63632,-2.11451 2.81951,-4.52954 4.00592,-6.91292 1.11911,-2.24094 1.8822,-4.62652 2.75374,-6.96713 1.43372,-3.67062 2.52629,-7.46161 3.78796,-11.19301 0.66457,-2.04489 1.31591,-4.09177 2.1202,-6.08693 1.3985,-3.2685 2.72915,-3.60232 7.1202,-5.22643 0.2513,-0.093 0.19226,0.5002 0.28839,0.7503 -0.2668,3.08478 -1.54247,6.01343 -2.70029,8.85639 -1.60351,3.99042 -4.03774,7.54965 -6.16259,11.26607 -1.74535,3.00928 -3.38844,6.07926 -4.90219,9.21164 -0.0268,0.3242 -0.78286,1.20702 -0.46699,1.60096 0.40426,0.5042 1.40109,0.26542 1.88095,0.21196 0.40595,-0.11474 0.82274,-0.19643 1.21786,-0.34423 0.48743,-0.18233 1.86912,-0.91051 1.42249,-0.64341 -1.19616,0.71535 -2.36365,1.52361 -3.67653,1.99141 -0.67841,0.24173 1.16882,-0.8431 1.72791,-1.29708 1.49115,-1.21078 2.03487,-1.80527 3.40272,-3.14487 2.6557,-2.90136 5.29617,-5.80471 8.16973,-8.49281 2.04773,-1.82408 4.07204,-3.67573 6.04129,-5.58472 1.26492,-1.40159 2.59647,-2.81404 3.43157,-4.52533 0.0224,-0.0857 0.0572,-0.16914 0.0671,-0.25719 0.02,-0.17731 -0.31368,0.39748 -0.17164,0.32272 5.46956,-3.08403 7.24754,-3.99727 5.21938,-2.95212 -0.49507,0.38424 1.01033,1.39574 1.25199,1.57637 1.7133,1.1216 3.57724,2.0018 5.43342,2.85904 2.00481,0.82989 4.1027,1.39862 6.2454,1.7229 1.53093,0.15606 3.04674,0.42662 4.58033,0.56011 1.22145,0.0847 2.44681,0.0837 3.67057,0.0908 1.6748,0.008 3.34957,0.007 5.02437,0.004 1.40923,0.002 2.81839,-0.0151 4.2276,-0.015 1.15774,0.002 2.31548,-0.004 3.47321,-0.001 1.12613,0.0884 2.13099,-0.34259 3.15737,-0.72604 0.45118,-0.1459 0.61559,-0.18228 1.04223,-0.38593 0.16419,-0.0784 0.63849,-0.34909 0.48078,-0.25839 -1.67533,0.96352 -6.71829,3.82434 -5.0338,2.87693 6.47573,-3.64218 3.85139,-2.57269 6.56558,-3.64848 2.487,-1.40782 -4.19211,2.37129 -5.01574,2.91618 -0.4697,0.31074 0.58884,0.36647 -0.0674,0.4323 -0.32199,0.0323 -0.6466,-0.0284 -0.97001,-0.0398 -2.04263,-0.0776 -4.08032,0.13799 -6.11997,0.22865 -2.71376,0.0839 -5.43136,0.21016 -8.14556,0.10183 -1.59544,-0.18441 -3.23036,-0.24858 -4.75766,-0.79513 -0.88448,-0.3165 -1.13777,-0.5014 -1.93465,-0.9503 -1.75898,-1.09069 -2.61968,-1.98725 -3.56297,-3.81819 -0.65757,-1.36602 -0.83243,-2.87258 -0.92091,-4.36671 -0.16578,-1.41385 0.41366,-2.62385 1.11104,-3.80254 0.60605,-1.02859 1.36439,-1.95234 2.1922,-2.80827 0.76097,-0.69718 1.5583,-1.35505 2.37486,-1.98591 0.83442,-0.68118 1.75412,-1.25353 2.59851,-1.91889 0.0494,-0.0542 0.0987,-0.10834 0.14806,-0.16251 0.01,0.002 0.0382,0.003 0.0286,0.005 -0.41389,0.0652 -0.94989,-0.10687 -1.36846,-0.1431 -1.14412,-0.20925 -2.3014,-0.42779 -3.46677,-0.34805 -0.58041,0.11595 -0.66599,0.0976 -1.20223,0.34228 -0.18178,0.0829 -0.70036,0.38501 -0.52693,0.28577 8.91815,-5.10315 5.80758,-3.52733 4.02456,-2.15016 -0.80594,0.64342 -1.62749,1.26461 -2.36292,1.98931 -0.79003,0.698 -1.59193,1.38432 -2.35093,2.1164 0.25387,-0.11236 -0.38115,0.30801 -0.25177,0.39583 0.1766,0.11987 1.95531,-0.20157 2.16285,-0.2299 1.58612,-0.2829 3.04977,-0.91008 4.4943,-1.59225 2.52861,-1.45189 -3.20786,1.82466 -4.80109,2.75546 -0.0365,0.0213 0.0992,-0.0528 0.12527,-0.0195 0.0668,0.0855 0.12973,0.20462 0.10111,0.30922 -0.0267,0.0977 -0.39364,0.054 -0.63633,0.0439 -1.08297,-0.15902 -2.24002,0.15487 -3.30121,-0.11025 -0.30436,-0.35475 -0.4547,-0.91214 0.0343,-1.20256 3.31001,-1.96577 4.15787,-3.04543 6.86564,-3.61253 3.01601,-0.38661 3.37273,-1.46052 -4.41857,3.68917 -0.16874,0.11153 -0.38237,0.13205 -0.57391,0.19703 -0.26244,0.089 -0.52534,0.17668 -0.78801,0.26502 -1.77414,0.73895 -3.6562,1.22617 -5.30695,2.22789 12.37754,-6.43426 4.48325,-3.43795 3.96614,-1.77584 -0.13295,0.42731 -0.0527,0.57293 0.0239,0.99998 0.0883,0.21324 0.16412,0.43205 0.2648,0.63972 0.29471,0.60792 0.64509,1.18747 0.95005,1.79033 0.63794,1.26112 1.20422,2.55677 1.80292,3.83671 1.25068,2.76662 2.92826,5.25433 4.79135,7.63619 1.43821,1.72326 2.96565,3.44716 4.85783,4.68985 0.37836,0.24849 0.78416,0.45243 1.17624,0.67865 2.17354,1.09325 4.56944,1.37573 6.96267,1.51225 1.77137,0.0713 3.35288,-0.57841 4.87483,-1.40838 3.00957,-1.71731 -3.86513,2.20578 -4.13853,2.35611 -0.20195,0.11106 0.37812,-0.26387 0.56139,-0.40362 0.513,-0.39118 0.98228,-0.83017 1.45149,-1.27148 2.43887,-2.11518 5.46348,-3.49318 8.23437,-5.0555 1.23046,-0.496 2.3922,-1.14702 3.54415,-1.80122 -1.57568,0.8976 -6.28229,3.62536 -4.72706,2.69278 2.05343,-1.23131 4.14458,-2.39861 6.22192,-3.58915 1.08356,-0.5878 0.43481,-0.2254 1.47183,-0.8283 0.23546,-0.13689 0.94358,-0.54453 0.70733,-0.40901 -1.59589,0.91553 -3.19086,1.83267 -4.78629,2.749 1.27258,-0.84366 2.58764,-1.62543 3.79692,-2.55954 0.99518,-0.88637 1.91351,-1.84937 2.91276,-2.73189 0.75782,-0.78168 1.59342,-1.46886 2.44869,-2.13924 1.00823,-0.8447 2.09986,-1.57985 3.15311,-2.36557 2.5169,-1.91193 5.37163,-3.31925 8.1034,-4.88712 0.22174,-0.12726 0.88989,-0.50391 0.66765,-0.37753 -1.61001,0.91556 -3.22062,1.83003 -4.83093,2.74505 1.30731,-0.90337 2.42167,-2.02081 3.33339,-3.31704 0.80639,-1.40687 1.68074,-2.76101 2.64278,-4.06579 0.82177,-1.1517 1.55801,-2.35771 2.4135,-3.48569 0.85175,-0.93627 1.55376,-1.98254 2.28605,-3.01038 0.61407,-0.87971 1.51559,-1.47102 2.34492,-2.12579 0.20854,-0.15903 0.478,-0.37457 0.70524,-0.50786 1.95535,-1.14697 3.94376,-2.23802 5.88047,-3.41618 1.68865,-1.02726 -6.88651,3.88149 -5.13612,2.96337 2.01173,-1.0552 3.94659,-2.25089 5.9207,-3.3749 0.13277,-0.0756 0.26662,-0.14929 0.39993,-0.22393 0.14116,-0.0637 0.55729,-0.26895 0.42349,-0.191 -1.71156,0.9972 -6.83992,3.99749 -5.15875,2.94988 1.96429,-1.22403 4.57502,-2.90566 6.99858,-3.89929 0.89102,-0.22522 1.66895,-0.69908 2.47822,-1.11076 -0.53638,0.4964 1.97655,-1.04073 1.29537,-0.65198 -8.79601,5.01984 -6.04096,3.77066 -4.31009,2.3221 1.93112,-1.65396 2.26509,-1.43103 6.42959,-2.8032 0.2453,-0.0808 -0.14998,0.7262 -0.49083,1.41171 -0.75069,1.32688 -1.7335,2.51127 -2.68991,3.69394 -1.29579,1.34098 -2.57032,2.69095 -3.80523,4.08909 -1.24362,1.27422 -2.40889,2.62185 -3.6689,3.87977 -1.18705,1.08397 -2.1345,2.38805 -3.19652,3.58826 -0.94552,1.06489 -1.85826,2.16406 -2.90245,3.13469 -1.14539,0.81419 -2.31855,1.59362 -3.49378,2.36545 -0.21061,0.137 -0.41494,0.2842 -0.63184,0.41101 -2.03561,1.19012 -4.07476,2.37437 -6.12489,3.5393 -0.92484,0.52551 -1.91745,0.91897 -2.84087,1.4554 -0.22625,0.1322 -0.90619,0.52674 -0.67874,0.39661 16.22639,-9.28316 -14.1186,8.09507 2.19851,-1.21938 -1.35757,0.91786 -2.57442,2.01812 -3.74698,3.15728 -1.47363,1.51903 -3.2253,2.69595 -4.98169,3.85439 -2.50341,1.58907 -4.9759,3.30566 -7.72521,4.43037 -0.56553,0.23135 -1.16027,0.36049 -1.73952,0.55026 -1.05892,0.25397 -2.12082,0.51641 -3.19407,0.71075 -0.47277,-0.0368 -1.02068,0.2229 -1.49042,0.12799 -0.11853,-0.024 -0.26134,-0.0772 -0.31048,-0.18764 -0.36297,-0.8163 -0.12809,-0.74765 0.42127,-1.15127 4.01906,-2.70379 8.50046,-4.47623 12.74722,-6.74022 -8.11311,4.67162 -3.9714,2.3459 -2.27039,1.11441 0.82917,-0.60031 1.61833,-1.24813 2.40331,-1.90417 2.94647,-2.43642 6.39504,-4.2173 9.77738,-5.96514 1.52059,-0.77751 3.06408,-1.52343 4.66733,-2.11478 0.41563,-0.18726 0.97355,-0.43172 1.37999,-0.64193 0.2143,-0.11084 0.84221,-0.47122 0.63243,-0.35204 -8.49403,4.82546 -5.54731,3.31555 -3.66965,1.86005 1.16344,-0.96055 2.10613,-2.14552 3.1277,-3.24732 1.39567,-1.49632 2.92869,-2.85466 4.46818,-4.19943 1.55778,-1.36566 3.17372,-2.66099 4.72631,-4.0323 0.9779,-0.96187 2.00421,-1.87692 2.95475,-2.86621 0.95592,-1.04438 1.73971,-2.22043 2.42167,-3.45648 0.72038,-1.3539 1.5446,-2.64856 2.32056,-3.97058 0.40111,-0.68608 0.81532,-1.36454 1.17554,-2.07352 0.0634,-0.12477 0.12127,-0.25229 0.17923,-0.37967 0.0142,-0.0312 0.006,-0.0822 0.0372,-0.096 1.92383,-0.84524 3.86696,-1.64586 5.80045,-2.4688 -1.12211,1.52385 -2.41651,2.90123 -3.7554,4.23364 -1.42085,1.39643 -3.05895,2.53421 -4.66684,3.69878 -1.76853,1.12148 -3.42596,2.39614 -4.96766,3.81107 -2.46986,2.61963 -4.77392,5.37142 -7.38254,7.85865 -2.28061,2.16529 -4.71519,4.15916 -7.35699,5.86596 -2.11197,1.22035 -4.22212,2.44385 -6.33591,3.66104 -0.2771,0.15956 -0.55778,0.3128 -0.83667,0.4692 1.55267,-0.8883 3.09845,-1.78875 4.65801,-2.66492 0.26456,-0.14864 -0.51476,0.32152 -0.77236,0.48194 -1.05544,0.65729 -0.50214,0.29662 -1.52381,0.98912 -1.65342,1.24476 -3.21822,2.60042 -4.83459,3.89145 -1.45617,1.18219 -3.03622,2.1811 -4.5995,3.21005 -1.43994,1.07423 -2.91393,2.10387 -4.34085,3.19593 -1.47524,1.15236 -2.87749,2.38686 -4.26728,3.63932 -0.57009,0.53016 -1.1539,1.04501 -1.73169,1.56653 -0.11822,0.1067 -0.23595,0.21409 -0.34898,0.32626 -0.0317,0.0315 -0.0429,0.0877 -0.0846,0.10398 -1.86381,0.72637 -3.74341,1.41155 -5.61512,2.11733 1.90247,-1.7866 4.00355,-3.34963 6.06072,-4.95221 2.10715,-1.66116 4.07327,-3.49812 6.22332,-5.10483 1.91936,-1.09601 3.69867,-2.48554 5.75808,-3.28803 0.3032,-0.11815 0.32299,0.61286 0.2795,0.93535 -0.033,0.24441 -0.31278,0.38186 -0.4814,0.56183 -0.64481,0.68823 -1.35325,1.3238 -2.04498,1.96374 -1.8552,1.63173 -1.32566,1.23391 -6.22492,2.69923 -0.30595,0.0915 0.33574,-0.54522 0.5353,-0.79453 0.96535,-1.20602 2.12004,-2.29787 3.18384,-3.41486 0.9895,-1.03056 1.98432,-2.05493 2.95075,-3.10721 0.19119,-0.20817 0.38414,-0.41479 0.57169,-0.62625 0.0546,-0.0616 0.0784,-0.16141 0.15463,-0.19268 1.87122,-0.76802 3.77197,-1.46202 5.65795,-2.19303 -2.17165,1.68904 -4.29534,3.43916 -6.59107,4.9595 -0.26691,0.17047 -1.55251,1.20354 -0.54813,-0.77828 0.13919,-0.27465 1.07625,-0.59874 0.8093,-0.44529 -8.60026,4.94387 -3.39513,1.86769 -1.56076,0.7526 3.27473,-1.92245 6.54801,-3.85066 9.86044,-5.70702 1.69756,-0.95135 3.52716,-1.71645 5.28911,-2.53851 2.53362,-1.34554 5.21411,-2.40285 7.72585,-3.78864 -10.8474,6.38347 -0.62297,0.0283 3.19208,-1.75542 0.40868,-0.19375 0.81892,-0.38828 1.22001,-0.59675 0.0972,-0.0506 0.36795,-0.23764 0.28055,-0.1715 -5.38789,4.07786 -3.36663,3.07106 -5.92797,4.29021 -3.1093,1.02529 -6.26532,1.90342 -9.38785,2.88947 -4.53501,1.43743 -9.11265,2.73446 -13.71372,3.94219 -5.3322,1.6143 -10.674,3.19688 -16.01157,4.79425 -4.0517,1.28431 -8.20545,2.14747 -12.4255,2.61621 -1.31929,0.10854 -1.48922,0.13244 -2.75427,0.20106 -0.71998,0.0391 -2.04947,0.28946 -2.31256,-0.73418 -0.0774,-0.30116 0.0417,-0.62049 0.0626,-0.93074 0.20315,-0.32594 0.36127,-0.68472 0.60946,-0.97782 0.54656,-0.64549 2.01455,-1.85653 2.67503,-2.25821 2.43035,-1.47803 4.89978,-2.89262 7.39295,-4.26203 0.50941,-0.27981 4.44003,-2.03638 4.92675,-2.2555 4.37784,-1.95969 8.90137,-3.57537 13.43128,-5.14367 3.61183,-1.15912 7.26991,-2.11796 10.77707,-3.57716 3.08997,-1.15678 5.9829,-2.73058 8.88595,-4.27984 3.56032,-2.0185 -2.09353,1.22835 -3.15141,1.82301 -0.33338,0.18741 0.65153,-0.4007 0.97698,-0.60156 0.77355,-0.47744 1.55318,-0.94396 2.32189,-1.4291 0.19229,-0.12459 0.37906,-0.25813 0.57686,-0.37376 1.99631,-1.16697 3.99156,-2.33609 6.00478,-3.47364 0.59024,-0.33351 1.33384,-0.43123 1.96077,-0.69252 2.0382,-0.89853 5.14614,-2.66338 -3.77523,2.2496 -0.19009,0.10468 0.35841,-0.24477 0.53674,-0.36843 0.36265,-0.25147 0.75162,-0.52751 1.11203,-0.78219 0.47013,-0.33171 0.92051,-0.69153 1.3866,-1.02846 0.04,-0.0289 0.10927,-0.12319 0.12656,-0.077 0.27488,0.735 0.0766,0.60583 -0.4979,0.86142 -2.66081,0.92616 -5.26052,1.99333 -7.83896,3.12666 -0.41803,0.18939 -0.83476,0.38168 -1.25409,0.56818 -1.09013,0.48486 -2.18647,0.94772 -3.23118,1.52836 -0.34989,0.19446 -1.38085,0.8104 -1.03158,0.61483 1.44814,-0.8109 2.88565,-1.64064 4.32847,-2.46095 -3.37674,2.282 -6.83518,4.43921 -10.27072,6.63123 -5.4445,3.4727 -11.04139,6.69519 -16.69287,9.81768 -2.59826,1.55338 -5.27069,2.96376 -7.94731,4.37336 -1.96314,1.11427 -5.8617,3.03789 3.21651,-1.84499 0.22168,-0.11923 -0.40234,0.30265 -0.60001,0.45848 -0.38,0.29958 -0.86105,0.7056 -1.22971,1.01322 -2.88453,2.69361 -6.3572,4.3842 -9.7744,6.35729 -0.24706,0.11975 -0.97872,0.49693 -0.74117,0.35926 1.65443,-0.9588 3.32629,-1.88723 4.99351,-2.82363 0.0538,-0.0302 -0.10262,0.14088 -0.15259,0.10471 -0.048,-0.0348 0.0158,-0.14742 0.0732,-0.16217 0.16957,-0.0435 0.35007,0.01 0.52514,0.009 0.31119,-0.002 0.62226,-0.013 0.93339,-0.0195 3.31436,-0.11336 6.62863,-0.22787 9.94393,-0.3106 2.42046,-0.0502 4.83682,-0.0607 7.25015,-0.25444 2.42901,-0.23394 4.69677,-1.20187 6.91678,-2.15653 2.32471,-0.89819 12.26764,-6.68546 2.10705,-0.86292 1.22213,-0.77268 2.33663,-1.71088 3.33163,-2.75881 0.30659,0.67928 0.16761,0.76307 -0.40541,1.11212 0,0 5.00673,-4.04126 5.00673,-4.04126 v 0 c 0.70163,-0.35766 0.91891,-0.427 1.3445,0.3657 -0.74687,1.20356 -2.30194,2.16078 -3.37501,3.04889 -4.23841,2.45418 -8.43775,5.04088 -12.93057,7.01973 -2.28902,0.93914 -4.60524,1.89687 -7.10626,2.04505 -2.38638,0.16733 -4.77675,0.1005 -7.16736,0.15344 -3.35463,0.0739 -6.70649,0.20517 -10.0578,0.37008 -0.47274,-0.0147 -1.31128,0.0477 -1.77486,-0.24724 -0.041,-0.0261 -0.85759,-0.76195 -0.43223,-1.04839 1.91517,-1.28973 3.96628,-2.3652 5.95909,-3.53138 0.2339,-0.13688 0.48012,-0.25153 0.72018,-0.3773 -9.63391,5.61922 -2.98182,1.96931 -1.10319,0.0439 0.44526,-0.38586 1.33138,-1.23558 1.80426,-1.52748 2.51779,-1.55422 5.04102,-3.11411 7.67506,-4.46645 2.63657,-1.35142 5.22334,-2.78729 7.79044,-4.26698 1.39659,-0.76867 5.27411,-2.92761 -1.48652,0.95566 -0.64545,0.37074 1.27249,-0.77265 1.91074,-1.15565 2.93938,-1.76385 0.89335,-0.50376 3.80099,-2.30541 0.66217,-0.4103 1.32334,-0.82219 1.98502,-1.23329 3.38074,-2.1562 6.79129,-4.26986 10.08104,-6.56331 3.93051,-2.30888 7.73276,-4.75446 11.98304,-6.4209 2.63103,-1.13502 5.28836,-2.19933 7.9891,-3.15853 0.24406,-0.0518 0.49442,-0.23101 0.73219,-0.15539 1.66534,0.52961 -0.40859,1.61678 -0.85493,1.96628 -2.78069,2.0221 -5.69351,3.94434 -8.89466,5.22405 -0.47852,0.16704 -0.97358,0.30791 -1.43374,0.52294 -0.15599,0.0729 -0.60724,0.32458 -0.45882,0.23729 6.04176,-3.55317 6.47002,-3.83068 4.36006,-2.50859 -3.52021,2.36776 -7.33924,4.29443 -10.98005,6.45524 -2.89911,1.53369 -5.81055,3.04426 -8.88765,4.19895 -3.51425,1.38888 -7.16535,2.32686 -10.74888,3.51455 -4.48755,1.55841 -8.97539,3.14556 -13.30288,5.11409 -0.84048,0.38395 -1.68581,0.75745 -2.52143,1.15184 -0.80998,0.38229 -3.05402,1.80556 -2.41497,1.17802 0.85982,-0.84434 2.01499,-1.33717 3.10352,-1.85417 0.44516,-0.21143 -1.44995,0.91387 -2.61417,2.02735 -0.23722,0.22688 -0.42731,0.49838 -0.64097,0.74756 -0.10498,0.13136 -0.27627,0.23043 -0.31493,0.39408 -0.0678,0.28682 0.52989,0.30949 0.82444,0.3194 1.23716,0.0416 2.48106,-0.16895 3.71324,-0.22326 4.14105,-0.4702 8.21011,-1.33885 12.19297,-2.57681 5.35407,-1.58839 10.69481,-3.22168 16.05132,-4.80068 4.63016,-1.22774 9.22594,-2.57662 13.78863,-4.03605 3.18827,-0.99883 6.41607,-1.88797 9.54638,-3.061 0.22764,-0.0696 0.86025,-0.36767 0.68293,-0.20885 -2.48259,2.22367 -3.78076,3.52012 -6.32597,4.65439 -0.12813,0.0657 -0.86502,0.44301 -0.98415,0.50492 -0.16394,0.0852 -0.64994,0.3514 -0.49059,0.25791 1.66628,-0.97756 3.33888,-1.94435 5.01186,-2.91042 0.18785,-0.10848 -0.37091,0.22505 -0.55637,0.33758 -2.03717,1.18028 -4.07434,2.36057 -6.11152,3.54085 -2.50954,1.26091 -5.08963,2.37683 -7.59525,3.64642 -1.10287,0.51894 -2.47656,1.15666 -3.56683,1.70405 -0.57402,0.2882 -2.25304,1.23134 -1.70984,0.88856 7.63839,-4.82013 2.56116,-1.27927 0.78732,-0.44134 -0.45509,0.26982 -0.91018,0.53964 -1.36528,0.80946 -0.41927,0.27458 -0.82734,0.5671 -1.25783,0.82375 -2.18597,1.30323 -4.39072,2.57472 -6.59017,3.85507 -0.28792,0.16761 -0.53938,0.51067 -0.8718,0.48874 -0.37553,-0.0248 -0.82789,-0.25324 -0.95073,-0.60897 -0.0776,-0.2247 0.41119,-0.23869 0.61679,-0.35804 2.30762,-1.41217 4.45172,-3.09474 6.47753,-4.88309 2.10854,-0.88767 4.20211,-1.81176 6.32561,-2.663 0.10502,-0.0421 -0.17066,0.1488 -0.2514,0.22806 -0.21493,0.21101 -0.42788,0.42415 -0.63537,0.64248 -1.0017,1.05401 -1.99334,2.11716 -3.02081,3.14686 -0.89811,0.94448 -1.36093,1.42027 -2.22755,2.37303 -0.0143,0.0157 -1.1556,1.34589 -1.37076,1.45381 -1.96255,0.98436 -3.98075,1.85393 -5.98296,2.75489 -0.15927,0.0717 0.301,-0.17722 0.4515,-0.26583 0.69012,-0.62448 1.34055,-1.27854 2.01339,-1.91878 0.14945,-0.14219 0.26851,-0.41178 0.4743,-0.39752 0.24488,0.017 0.34301,0.56967 0.56719,0.46968 1.8557,-0.82773 3.51034,-2.04757 5.26552,-3.07135 -2.29811,1.47042 -4.22701,3.45205 -6.37226,5.12561 -2.00604,1.55514 -4.03304,3.09459 -5.90946,4.80211 -8.21313,3.6852 -7.38259,3.8901 -4.06212,0.75796 1.39739,-1.25462 2.781,-2.51745 4.25588,-3.68163 1.4059,-1.12565 2.9089,-2.11403 4.3177,-3.2346 1.54433,-1.07137 3.1766,-1.97991 4.63945,-3.1777 1.63695,-1.25894 3.19047,-2.62148 4.8031,-3.9114 2.61782,-1.94389 5.80499,-3.57094 8.50807,-5.13957 0.27057,-0.15702 1.08842,-0.6173 0.8186,-0.459 -1.49157,0.87506 -2.98931,1.73958 -4.48396,2.60937 2.72261,-1.64311 5.20874,-3.63151 7.53055,-5.8023 1.14371,-1.06504 1.72113,-1.56472 2.78509,-2.70578 1.54771,-1.65983 2.92181,-3.47597 4.50446,-5.10429 1.44005,-1.48199 3.08441,-2.77638 4.84692,-3.85929 1.61026,-1.17655 3.29002,-2.26978 4.75443,-3.6329 1.30769,-1.2697 2.59886,-2.56805 3.64537,-4.06864 7.22189,-3.37206 6.89568,-4.30325 4.60523,-0.16255 -0.7595,1.32787 -1.59577,2.61132 -2.33399,3.95152 -0.65923,1.28317 -1.40875,2.49101 -2.33417,3.60235 -0.94362,1.03344 -1.99793,1.94268 -2.9768,2.943 -1.57244,1.37062 -3.17638,2.69899 -4.7639,4.0532 -1.53391,1.30756 -3.04024,2.65543 -4.43294,4.1139 -1.04775,1.09496 -1.98645,2.28501 -3.08729,3.32972 -2.78934,2.27673 -5.97327,4.07168 -9.29409,5.45131 -1.57601,0.64755 -3.12073,1.36952 -4.62423,2.17193 -2.39774,1.28029 -0.67899,0.37375 4.00285,-2.35707 0.23858,-0.13916 -0.48175,0.27027 -0.72182,0.40684 -0.82646,0.47018 -0.7116,0.37535 -1.47592,0.96295 -0.24209,0.18612 -0.47601,0.38263 -0.71401,0.57395 -3.33825,2.84518 -6.94044,5.12795 -10.91408,7.09931 -2.3266,1.2132 -12.41134,6.25368 -1.87161,0.5068 -0.60771,0.2744 -0.50006,0.41376 -1.02559,-0.15853 -0.0259,-0.0282 0.0742,-0.0204 0.11224,-0.0246 0.48108,-0.0537 0.96744,-0.0722 1.4411,-0.18319 1.055,-0.21792 2.1109,-0.44778 3.14133,-0.76371 0.56451,-0.17222 1.1174,-0.34571 1.65245,-0.59941 0.22454,-0.10646 0.87694,-0.46724 0.66321,-0.34046 -7.41266,4.39721 -5.77204,3.39608 -3.84058,2.20599 1.73078,-1.15559 3.53239,-2.23057 5.00082,-3.72931 1.15749,-1.16479 2.35323,-2.28587 3.67538,-3.26454 2.02983,-1.19485 4.0564,-2.39526 6.0895,-3.58454 0.2061,-0.12056 0.83359,-0.46605 0.62787,-0.34484 -1.58719,0.93511 -3.17702,1.86579 -4.77249,2.78668 -0.22585,0.13037 0.43847,-0.28271 0.66328,-0.41486 2.03483,-1.19618 4.07568,-2.38211 6.11538,-3.56996 0.22723,-0.13234 0.45693,-0.26038 0.6854,-0.39057 0.70988,-0.38106 1.43364,-0.72728 2.15141,-1.09262 0.2327,-0.11845 0.9175,-0.49853 0.69287,-0.36541 -5.70866,3.38281 -6.25995,3.76445 -4.17715,2.38679 1.18165,-0.74418 2.29808,-1.58543 3.50718,-2.28723 1.1443,-0.84335 1.99499,-2.01785 2.9622,-3.04976 0.3374,-0.38874 0.69777,-0.7572 1.03362,-1.14728 0.71493,-0.83036 1.29377,-1.78596 2.14964,-2.4886 1.2875,-1.23402 2.44482,-2.58476 3.70086,-3.85041 1.25958,-1.36345 2.4192,-2.80984 3.80494,-4.05544 0.9477,-1.14273 1.88341,-2.30961 2.69586,-3.55182 0.1511,-0.27784 0.31318,-0.54998 0.45342,-0.83346 0.0459,-0.0928 0.0316,-0.23675 0.12312,-0.28521 11.40219,-6.03817 7.13621,-3.8644 5.32227,-2.54136 -0.25471,0.20937 -0.45564,0.48807 -0.73746,0.65922 -2.42175,1.47076 -4.71808,2.93622 -7.24779,4.11248 -0.80973,0.42906 -1.65999,0.75093 -2.50983,1.09016 -0.24818,0.1224 -0.4999,0.23775 -0.74549,0.36526 -0.11546,0.06 -0.45382,0.25461 -0.34129,0.18933 10.81933,-6.2774 2.55935,-1.43343 -1.1416,0.6173 -0.1372,0.0715 -0.5452,0.29252 -0.41161,0.21449 1.70678,-0.99696 6.84979,-3.94863 5.13159,-2.97151 -1.97428,1.12274 -3.90679,2.31928 -5.89982,3.40839 -1.74055,0.95114 3.42352,-2.00408 5.14211,-2.99433 0.25009,-0.14411 -0.96952,0.62829 -0.73113,0.46395 -0.81885,0.64895 -1.7056,1.22804 -2.43574,1.97461 -0.75924,1.01654 -1.388,2.12454 -2.28292,3.03312 -0.89605,1.10644 -1.66141,2.29613 -2.44312,3.48389 -0.98165,1.28494 -1.90168,2.60292 -2.66763,4.03069 -0.83991,1.38781 -1.92755,2.55962 -3.22188,3.542 -2.03045,1.20276 -4.05786,2.41068 -6.09137,3.60829 -0.21953,0.12929 -0.88747,0.5009 -0.66754,0.37227 1.59058,-0.93023 3.18694,-1.85054 4.77962,-2.77718 0.22409,-0.13038 -0.45364,0.25161 -0.67388,0.38841 -0.48833,0.30332 -0.83132,0.56261 -1.29522,0.8973 -1.03243,0.79844 -2.1217,1.52055 -3.13354,2.34345 -0.84314,0.67612 -1.74983,1.28527 -2.46068,2.10958 -1.01431,0.88404 -2.0003,1.78733 -2.93299,2.75872 -1.15283,1.02732 -2.50772,1.76283 -3.7681,2.64739 -2.04409,1.19065 -4.08751,2.38245 -6.13227,3.57195 -0.48909,0.28452 -0.92625,0.53286 -1.42089,0.80764 -0.25096,0.13942 -1.00201,0.56074 -0.75472,0.41492 0.50113,-0.2955 14.47769,-8.446 -1.49626,0.89843 -1.18387,0.6518 -2.37765,1.2852 -3.62955,1.79866 9.71632,-5.6775 4.80474,-2.95118 2.7415,-1.38948 -2.52711,2.48421 -5.53468,4.25388 -8.7902,5.75557 -1.60301,0.76222 -3.2428,1.26829 -5.04572,1.10583 -2.45225,-0.20273 -4.88954,-0.59201 -7.0809,-1.78758 -2.43584,-1.48626 -4.419,-3.30055 -6.15402,-5.57203 -1.86495,-2.43333 -3.56331,-4.96395 -4.83965,-7.76384 -0.60921,-1.26007 -1.19217,-2.53663 -1.85223,-3.77136 -0.32601,-0.60985 -0.70488,-1.19046 -1.03035,-1.80059 -0.12741,-0.23884 -0.23136,-0.48948 -0.34704,-0.73422 -0.16015,-0.58857 -0.33832,-1.27543 -0.10295,-1.88265 0.97231,-2.50851 8.96896,-0.6597 6.73878,-4.39731 1.72454,-0.861 3.57873,-1.43029 5.3744,-2.12207 0.28056,-0.0851 0.55692,-0.1855 0.84168,-0.25523 0.22459,-0.055 0.85425,-0.27416 0.68351,-0.11823 -4.54564,4.15127 -2.97936,3.4129 -5.89701,4.04754 -2.18897,0.70709 -4.50025,2.59088 4.26133,-2.66962 0.10011,-0.0601 -0.21358,0.12424 -0.33012,0.1171 -0.22493,-0.0138 -0.30297,-0.13454 -0.41888,-0.26935 1.08139,0.0644 2.1682,-0.001 3.24905,0.0877 0.16771,0.0228 0.34063,0.021 0.50313,0.0683 0.32108,0.0935 1.02425,0.74857 0.67772,0.96514 -1.89523,1.1845 -3.85013,2.27085 -5.78486,3.38968 -0.14398,0.0833 -0.29993,0.14386 -0.44989,0.2158 -1.46404,0.66397 -2.99364,1.18198 -4.59037,1.41445 -0.86237,0.0934 -2.92229,0.40608 -2.91003,-1.06014 10e-4,-0.15964 0.10787,-0.30051 0.1618,-0.45077 0.73064,-0.76105 1.52428,-1.46481 2.3417,-2.12963 0.76515,-0.70736 1.48889,-1.46051 2.36731,-2.04143 2.50456,-2.20276 5.49077,-4.30242 8.8457,-4.6617 1.19093,0.0302 2.35996,0.23869 3.53737,0.40759 0.83219,0.12618 2.19644,0.37578 1.88902,1.52389 -0.31731,0.46699 -0.63804,0.61986 -1.10385,0.92484 -0.51958,0.34016 -0.94441,0.7957 -1.481,1.11191 -0.81177,0.62724 -1.61077,1.26683 -2.39706,1.92657 -0.88546,0.76045 -1.62238,1.6829 -2.26981,2.65165 -0.6624,1.07775 -1.42577,2.12536 -1.28385,3.46281 0.0618,1.41249 0.16873,2.84058 0.76659,4.14521 0.84252,1.67365 1.74216,2.53095 3.34332,3.50859 2.10999,1.14027 4.10686,1.39621 6.47974,1.52973 2.7043,0.0716 5.41028,-0.0249 8.11219,-0.14342 2.08387,-0.12131 4.16797,-0.33397 6.25758,-0.25288 4.74965,0.25732 -0.95627,3.30867 -4.19768,4.43073 -0.17132,0.0824 -0.67756,0.34414 -0.51395,0.2473 1.654,-0.97909 6.67691,-3.8103 4.98678,-2.89499 -2.65975,1.44041 -4.78086,3.15145 -7.552,4.03249 -1.06818,0.3834 -2.14885,0.6216 -3.29395,0.5465 -1.15647,0.003 -2.31296,-0.004 -3.46943,-0.001 -1.39693,5.9e-4 -2.79381,-0.0157 -4.19074,-0.0112 -1.68243,-3.4e-4 -3.36481,0.005 -5.04723,0.009 -1.24177,-0.003 -2.48663,-0.001 -3.7233,-0.12948 -1.52119,-0.17576 -3.02859,-0.45638 -4.55023,-0.63133 -2.16382,-0.39231 -4.2823,-1.01102 -6.30137,-1.88972 -1.90602,-0.87883 -3.83471,-1.75362 -5.58203,-2.92552 -0.7719,-0.58933 -1.87756,-1.34905 -1.8048,-2.44211 0.90327,-2.3273 0.16293,-0.59447 5.87508,-3.57256 0.31352,-0.16346 0.79184,0.59632 0.83248,0.78475 0.0322,0.1493 -0.0128,0.3052 -0.0193,0.4578 -0.80039,1.8166 -2.16148,3.29118 -3.4434,4.78408 -1.97986,1.93403 -4.01582,3.80867 -6.10155,5.62666 -2.92789,2.6783 -5.65504,5.54582 -8.28564,8.5172 -1.4301,1.43693 -3.3153,3.46188 -5.02564,4.53875 -2.28746,1.44024 -4.62037,2.80984 -6.98482,4.11985 -0.47685,0.26419 -1.00192,0.43621 -1.52366,0.59423 -0.43633,0.13214 -0.89345,0.18206 -1.34017,0.27309 -0.35947,-0.0137 -0.72504,0.0262 -1.07842,-0.0411 -0.68136,-0.12978 -1.52972,-0.64783 -1.53146,-1.44732 -6.8e-4,-0.31063 0.46237,-1.25926 0.55112,-1.45937 1.60264,-3.16408 3.32512,-6.27011 5.10147,-9.33934 2.07618,-3.69545 4.4745,-7.22174 6.0993,-11.15385 1.13482,-2.70414 2.25851,-5.46466 2.66019,-8.38875 1.39129,-1.69956 0.10436,-0.15072 5.44886,-3.22995 0.12642,-0.0728 -0.25857,0.14345 -0.3613,0.24705 -0.47155,0.47551 -0.70691,1.14076 -1.0083,1.72098 -0.89907,1.99343 -1.58769,4.07028 -2.31648,6.1298 -1.31748,3.70187 -2.4026,7.47799 -3.72461,11.1769 -0.86179,2.35598 -1.55746,4.77855 -2.70881,7.01988 -1.1767,2.38791 -2.36296,4.79063 -3.8647,6.99433 -0.16248,0.21719 -0.33641,0.42626 -0.48744,0.65156 -0.11372,0.16963 -0.12542,0.43464 -0.30542,0.53112 -1.97539,1.05885 -4.00321,2.02591 -6.07229,2.88745 -0.10199,0.0425 -0.11948,-0.19584 -0.1272,-0.30604 -0.0205,-0.29227 0.22206,-0.56669 0.1842,-0.85945 0.32497,-1.43206 0.70324,-2.85689 1.18791,-4.24318 0.75782,-2.13975 1.48588,-4.29066 2.2202,-6.43884 0.78708,-2.17556 1.75501,-4.27475 2.7571,-6.35895 0.28423,-0.64324 0.53875,-1.3001 0.8462,-1.93258 0.5555,-1.14276 1.29327,-2.19397 1.7883,-3.36926 1.02455,-2.0299 2.07436,-4.04208 3.19189,-6.02282 1.07264,-2.26597 2.19676,-4.49842 3.35884,-6.71994 1.06824,-2.36686 2.10847,-4.74384 3.18289,-7.10788 1.43692,-3.21344 2.81205,-6.4624 4.48316,-9.56358 0.25573,-0.43724 0.49076,-0.88725 0.7672,-1.3117 1.04851,-1.60994 2.4385,-2.96444 3.57981,-4.50408 0.16998,-0.17663 0.76384,-0.82631 0.85621,-0.80908 0.20166,0.0376 0.25582,0.51336 0.44232,0.42791 9.44527,-4.32796 6.56932,-4.03297 4.57911,-2.57126 -1.03155,0.63105 -2.08665,1.21666 -2.87007,2.1705 -0.86294,1.10508 -1.49871,2.33727 -1.92191,3.67766 -0.41345,1.25801 -0.83729,2.49144 -0.96815,3.82101 -0.16887,1.36583 -0.48423,2.70354 -0.71444,4.05946 -0.36953,2.026 -0.71877,4.05779 -1.27205,6.04432 -0.37219,1.55976 -0.77533,3.11183 -1.09317,4.684 -0.34272,1.47988 -0.90694,2.88059 -1.5656,4.24802 -0.6386,1.2555 -1.37237,2.49758 -1.66409,3.89088 -0.42842,1.41695 -1.13529,2.69978 -1.63544,4.0898 -0.65769,1.5293 -1.4404,2.99669 -2.32309,4.40863 -0.83115,1.36545 -1.62323,2.7594 -2.29786,4.20951 -0.73245,1.71551 -1.53532,3.38601 -2.4298,5.02428 -0.84618,1.79954 -1.46396,3.68378 -1.92017,5.61993 -0.0719,0.25798 -0.31229,1.08618 -0.3654,1.39446 -0.12245,0.71086 -0.16779,1.43915 -0.48586,2.10653 -0.48246,1.04545 -1.28874,1.88721 -1.92618,2.83897 -3.16132,1.83881 -5.02169,4.54695 -8.22627,3.15248 -1.45332,-0.67184 -2.79055,-1.60932 -4.35017,-2.02816 -2.52516,-0.41115 -5.08259,-0.29861 -7.616,0.0126 -2.56974,0.34142 -5.14089,0.79141 -7.56655,1.74015 0,0 5.07776,-3.97512 5.07776,-3.97512 z"
   inkscape:connector-curvature="0" /><path
   style="fill:#000000;stroke:#000000;stroke-width:0.55242717;stroke-opacity:1"
   d="M 108.68534,279.16387 C 103.04725,277.35243 94.027355,272.71715 88.692969,268.8899 76.1725,259.90688 55.927293,240.55157 45.916644,227.99386 23.935238,200.4196 9.6008205,168.99485 3.2153364,134.38155 0.08350976,117.4051 -0.02560378,115.08952 -0.27197834,60.374516 -0.43286248,24.645274 -0.32126335,9.0970374 0.10750018,7.5047307 0.8952473,4.5792615 3.1129305,1.9839373 5.9110335,0.71293554 8.0117323,-0.2412796 10.525471,-0.3011769 48.47078,-0.3011769 c 37.945311,0 40.459048,0.0598973 42.559746,1.01411244 7.548271,3.42870426 8.232701,13.79615246 1.192006,18.05595946 -1.68492,1.019422 -3.402173,1.082128 -36.846412,1.345469 l -35.079126,0.276213 -0.165338,36.18398 c -0.177557,38.858275 0.32673,54.768343 2.127438,67.119903 1.286403,8.8238 4.230224,22.37921 5.03875,23.20194 0.356266,0.36253 0.416385,-0.13649 0.174887,-1.4516 l -0.368004,-2.00403 27.808271,-0.28041 c 15.294548,-0.15422 55.153412,-0.31497 88.575252,-0.35723 33.42185,-0.0423 92.21391,-0.21073 130.64903,-0.37438 l 69.88204,-0.29756 0.99052,-2.86546 c 3.3106,-9.57714 5.77863,-23.27164 6.44015,-35.73486 0.26609,-5.013279 0.6664,-9.612236 0.88957,-10.219906 1.36857,-3.726447 5.70381,-6.867713 9.51328,-6.893208 2.23493,-0.01497 5.47371,1.294475 7.20876,2.914479 2.75832,2.575432 3.1383,4.022504 3.00311,11.436495 -0.20953,11.49117 -1.58253,21.72707 -4.58135,34.15471 -0.90374,3.74525 -1.64317,6.9148 -1.64317,7.04344 0,0.12864 6.21954,0.23389 13.82121,0.23389 h 13.8212 l -0.37093,1.51917 c -0.20401,0.83555 -0.70859,2.49018 -1.12128,3.67695 -0.8685,2.49756 -0.51764,3.47964 0.39131,1.0953 0.9323,-2.44558 3.16213,-11.95034 4.39901,-18.75098 2.53314,-13.92779 2.74537,-18.98508 2.75162,-65.570779 l 0.006,-44.056067 H 295.6642 c -85.99285,0 -104.18155,-0.12848 -105.66033,-0.746354 -2.39022,-0.998698 -5.18041,-4.269915 -5.89012,-6.905569 -1.39518,-5.1812964 1.79584,-10.7269351 7.04625,-12.24559943 1.43364,-0.41467973 34.97514,-0.54318989 111.97971,-0.42903671 l 109.93301,0.16296702 2.06171,1.28190772 c 1.13395,0.7050493 2.6255,2.0723066 3.31457,3.0383495 1.18985,1.6681307 1.26673,2.3813805 1.52906,14.1860529 l 0.27621,12.429612 42.8564,0.276213 42.8564,0.276214 2.08844,1.593151 c 4.34008,3.310807 4.15211,1.269109 4.16575,45.246823 0.0146,47.067195 -0.23897,50.336495 -5.02222,64.750315 -10.85379,32.70672 -37.97472,56.77352 -72.58166,64.40811 -5.00985,1.10522 -7.45337,1.24106 -26.2403,1.45873 l -20.71601,0.24001 -2.43739,3.68298 c -10.97229,16.57961 -24.91395,31.95754 -42.31768,46.67726 -11.39963,9.64158 -18.43696,14.0099 -29.85857,18.53424 l -5.56024,2.20253 -97.19121,0.17525 -97.19122,0.17526 z m 175.39563,-40.28834 c -0.45575,-0.29454 -1.20153,-0.53551 -1.65728,-0.53551 -0.73657,0 -0.73657,0.0595 0,0.53551 0.45575,0.29453 1.20153,0.5355 1.65728,0.5355 0.73657,0 0.73657,-0.0595 0,-0.5355 z m 3.39009,-0.43518 c -0.39855,-0.13285 -0.98728,0.0211 -1.3083,0.34212 -0.40994,0.40994 -0.19425,0.48183 0.72463,0.24154 0.74699,-0.19534 0.99741,-0.44575 0.58367,-0.58366 z m 4.89632,-2.60317 c 0.7136,-0.75959 1.17315,-1.38107 1.02123,-1.38107 -0.15192,0 -0.86006,0.62148 -1.57366,1.38107 -0.7136,0.75958 -1.17315,1.38106 -1.02123,1.38106 0.15191,0 0.86006,-0.62148 1.57366,-1.38106 z m -11.36304,-16.24281 c -0.14533,-0.14533 -0.69335,0.18378 -1.21783,0.73136 -0.91112,0.95124 -0.89934,0.96302 0.26424,0.26424 0.66981,-0.40225 1.09893,-0.85027 0.95359,-0.9956 z m 1.97178,-0.60622 c 0,-0.30384 -0.10963,-0.55243 -0.24361,-0.55243 -0.13399,0 -0.39725,0.24859 -0.58504,0.55243 -0.18778,0.30383 -0.0781,0.55242 0.24361,0.55242 0.32177,0 0.58504,-0.24859 0.58504,-0.55242 z M 76.230245,211.39694 c -2.050885,-0.10629 -5.406881,-0.10629 -7.457766,0 -2.050886,0.10629 -0.372889,0.19326 3.728883,0.19326 4.101772,0 5.779769,-0.087 3.728883,-0.19326 z m 114.395195,-0.004 c -18.43445,-0.0807 -48.7627,-0.0807 -67.39612,-4e-5 -18.63341,0.0807 -3.55068,0.14672 33.51719,0.14673 37.06786,2e-5 52.31338,-0.066 33.87893,-0.14669 z m 51.33296,0.0334 c -0.53171,-0.13894 -1.40179,-0.13894 -1.9335,0 -0.53171,0.13896 -0.0967,0.25265 0.96675,0.25265 1.06342,0 1.49846,-0.11369 0.96675,-0.25265 z m 40.3457,-0.0245 c -1.43303,-0.11338 -3.91895,-0.11456 -5.52427,-0.003 -1.60532,0.11194 -0.43284,0.20471 2.60551,0.20615 3.03835,0.002 4.35179,-0.0901 2.91876,-0.20354 z m 61.04135,0.002 c -1.28213,-0.11586 -3.51946,-0.11724 -4.97184,-0.003 -1.45238,0.11417 -0.40337,0.20897 2.33115,0.21065 2.73451,0.002 3.92282,-0.0917 2.64069,-0.20759 z M 429.1543,168.1838 c 6.06536,-1.44969 12.66022,-4.34702 18.03532,-7.92348 4.95969,-3.30007 13.51559,-11.76076 16.16593,-15.98604 l 1.64532,-2.62304 10.06812,-0.001 10.06813,-0.001 -0.52651,1.38482 c -0.28958,0.76165 -0.93193,2.19105 -1.42744,3.17646 -0.81866,1.628 -0.81975,1.71412 -0.0119,0.94297 1.30222,-1.24315 4.63205,-9.73718 6.11638,-15.60222 2.26775,-8.96053 2.50282,-13.41815 2.50445,-47.492563 l 0.002,-32.455074 h -35.92081 -35.92082 l 0.15116,9.529369 0.15115,9.529368 22.3733,0.276214 c 19.75365,0.243874 22.57581,0.387086 24.10288,1.223118 2.14192,1.172648 4.48813,3.903119 5.03781,5.862904 0.22779,0.812129 0.40867,10.425919 0.40196,21.363977 -0.0135,22.052647 -0.23365,24.014747 -3.74193,33.354817 -5.79159,15.41896 -18.42122,27.67703 -34.38656,33.37492 -3.29636,1.17644 -9.68168,2.47194 -16.5496,3.3577 -0.9115,0.11757 0.359,0.10928 2.82334,-0.0184 2.46433,-0.12768 6.44181,-0.7009 8.83883,-1.27382 z m -3.59276,-20.80251 c 9.80709,-2.9114 18.39668,-10.21729 22.65175,-19.26649 2.98982,-6.35842 3.42426,-9.29008 3.47912,-23.47816 l 0.0502,-12.982037 h -15.74418 -15.74417 l -0.34665,11.877187 c -0.45014,15.42279 -1.81837,25.70205 -5.87558,44.14223 l -0.29243,1.32914 4.4214,-0.36873 c 2.43176,-0.2028 5.762,-0.76672 7.40053,-1.25314 z"
   id="path1487"
   inkscape:connector-curvature="0" /></svg>