<?xml version="1.0" encoding="UTF-8" standalone="no"?>
<!-- Generator: Adobe Illustrator 19.0.0, SVG Export Plug-In . SVG Version: 6.00 Build 0)  -->

<svg
   xmlns:dc="http://purl.org/dc/elements/1.1/"
   xmlns:cc="http://creativecommons.org/ns#"
   xmlns:rdf="http://www.w3.org/1999/02/22-rdf-syntax-ns#"
   xmlns:svg="http://www.w3.org/2000/svg"
   xmlns="http://www.w3.org/2000/svg"
   xmlns:sodipodi="http://sodipodi.sourceforge.net/DTD/sodipodi-0.dtd"
   xmlns:inkscape="http://www.inkscape.org/namespaces/inkscape"
   version="1.1"
   id="Capa_1"
   x="0px"
   y="0px"
   viewBox="0 0 512 280.36328"
   xml:space="preserve"
   sodipodi:docname="cup_0.svg"
   width="512"
   height="280.36328"
   inkscape:version="0.92.5 (2060ec1f9f, 2020-04-08)"><metadata
   id="metadata3907"><rdf:RDF><cc:Work
       rdf:about=""><dc:format>image/svg+xml</dc:format><dc:type
         rdf:resource="http://purl.org/dc/dcmitype/StillImage" /></cc:Work></rdf:RDF></metadata><defs
   id="defs3905">
		
	</defs><sodipodi:namedview
   pagecolor="#ffffff"
   bordercolor="#666666"
   borderopacity="1"
   objecttolerance="10"
   gridtolerance="10"
   guidetolerance="10"
   inkscape:pageopacity="0"
   inkscape:pageshadow="2"
   inkscape:window-width="1920"
   inkscape:window-height="1024"
   id="namedview3903"
   showgrid="false"
   inkscape:zoom="1.1490485"
   inkscape:cx="28.283264"
   inkscape:cy="131.15095"
   inkscape:window-x="0"
   inkscape:window-y="30"
   inkscape:window-maximized="1"
   inkscape:current-layer="g3834"
   inkscape:snap-grids="true"
   inkscape:snap-to-guides="true" />
<g
   id="g3834"
   transform="translate(0,-175.33)">
	<path
   d="m 10,0.00390625 c -5.522,0 -10,4.47700005 -10,9.99999975 v 86.666016 c 0,37.799998 10.160813,74.864598 29.382812,107.183598 12.963001,21.797 29.781516,41.0444 49.478516,56.8164 17.862475,16.66511 34.677732,19.69336 34.677732,19.69336 l 193.23047,-0.30859 c 0,0 20.14315,-5.8472 34.36914,-19.38477 0.83639,-0.79591 1.78176,-1.55748 2.80664,-2.29492 16.94192,-14.0497 31.65434,-30.7118 43.49414,-49.37109 h 28.22852 c 53.118,0 96.33203,-43.21599 96.33203,-96.33399 V 41.169922 c 0,-5.523 -4.477,-10 -10,-10 H 420 V 10.003906 C 420,4.4809063 415.522,0.00390625 410,0.00390625 H 194 c -5.522,0 -10,4.47700005 -10,9.99999975 0,5.523 4.478,10 10,10 H 400 V 96.669922 C 400,164.01792 364.04342,226.61192 305.98242,260.66992 H 114.01758 C 55.956578,226.61292 20,164.01692 20,96.669922 V 20.003906 h 67 c 5.522,0 10,-4.477 10,-10 C 97,4.4809063 92.522,0.00390625 87,0.00390625 Z M 420,51.169922 h 72 v 61.499998 c 0,42.09 -34.24203,76.33399 -76.33203,76.33399 h -17.02149 c 3.193,-6.521 6.04511,-13.197 8.53711,-20 h 8.48438 c 31.063,0 56.33203,-25.27199 56.33203,-56.33399 V 81.169922 c 0,-5.523 -4.478,-10 -10,-10 h -42 z m 0,40 h 32 v 21.499998 c 0,20.034 -16.29803,36.33399 -36.33203,36.33399 h -2.27149 C 417.76148,131.99791 420,114.41492 420,96.669922 Z"
   transform="translate(0,175.33)"
   id="path3830"
   inkscape:connector-curvature="0" />
</g>



<g
   id="g3858"
   transform="translate(0,-175.33)">
	<g
   id="g3856">
		<path
   d="m 150.28,178.26 c -1.86,-1.86 -4.44,-2.93 -7.07,-2.93 -2.63,0 -5.21,1.07 -7.07,2.93 -1.859,1.87 -2.93,4.44 -2.93,7.07 0,2.63 1.07,5.21 2.93,7.08 1.86,1.86 4.44,2.92 7.07,2.92 2.63,0 5.21,-1.06 7.07,-2.92 1.869,-1.87 2.93,-4.44 2.93,-7.08 0,-2.63 -1.061,-5.21 -2.93,-7.07 z"
   id="path3854"
   inkscape:connector-curvature="0" />
	</g>
</g>
<g
   id="g3864"
   transform="translate(0,-175.33)">
	<g
   id="g3862">
		<path
   d="m 362,262 c -5.522,0 -10,4.477 -10,10 0,37.119 -15.056,73.598 -41.308,100.083 -3.888,3.922 -3.859,10.254 0.063,14.142 1.95,1.933 4.495,2.898 7.04,2.898 2.574,-10e-4 5.148,-0.989 7.103,-2.962 C 354.832,355.961 372,314.351 372,272 c 0,-5.523 -4.478,-10 -10,-10 z"
   id="path3860"
   inkscape:connector-curvature="0" />
	</g>
</g>
<g
   id="g3870"
   transform="translate(0,-175.33)">
	<g
   id="g3868">
		<path
   d="m 293.885,399.225 c -2.714,-4.811 -8.813,-6.51 -13.623,-3.797 l -0.228,0.129 c -4.811,2.714 -6.51,8.813 -3.797,13.623 1.838,3.258 5.227,5.089 8.719,5.089 1.664,0 3.352,-0.417 4.904,-1.292 l 0.228,-0.129 c 4.811,-2.714 6.51,-8.813 3.797,-13.623 z"
   id="path3866"
   inkscape:connector-curvature="0" />
	</g>
</g>
<g
   id="g3872"
   transform="translate(0,-175.33)">
</g>
<g
   id="g3874"
   transform="translate(0,-175.33)">
</g>
<g
   id="g3876"
   transform="translate(0,-175.33)">
</g>
<g
   id="g3878"
   transform="translate(0,-175.33)">
</g>
<g
   id="g3880"
   transform="translate(0,-175.33)">
</g>
<g
   id="g3882"
   transform="translate(0,-175.33)">
</g>
<g
   id="g3884"
   transform="translate(0,-175.33)">
</g>
<g
   id="g3886"
   transform="translate(0,-175.33)">
</g>
<g
   id="g3888"
   transform="translate(0,-175.33)">
</g>
<g
   id="g3890"
   transform="translate(0,-175.33)">
</g>
<g
   id="g3892"
   transform="translate(0,-175.33)">
</g>
<g
   id="g3894"
   transform="translate(0,-175.33)">
</g>
<g
   id="g3896"
   transform="translate(0,-175.33)">
</g>
<g
   id="g3898"
   transform="translate(0,-175.33)">
</g>
<g
   id="g3900"
   transform="translate(0,-175.33)">
</g>
</svg>