<?xml version="1.0" encoding="UTF-8" standalone="no"?>
<!-- Generator: Adobe Illustrator 19.0.0, SVG Export Plug-In . SVG Version: 6.00 Build 0)  -->

<svg
   xmlns:dc="http://purl.org/dc/elements/1.1/"
   xmlns:cc="http://creativecommons.org/ns#"
   xmlns:rdf="http://www.w3.org/1999/02/22-rdf-syntax-ns#"
   xmlns:svg="http://www.w3.org/2000/svg"
   xmlns="http://www.w3.org/2000/svg"
   xmlns:sodipodi="http://sodipodi.sourceforge.net/DTD/sodipodi-0.dtd"
   xmlns:inkscape="http://www.inkscape.org/namespaces/inkscape"
   version="1.1"
   id="Capa_1"
   x="0px"
   y="0px"
   viewBox="0 0 512 336.67001"
   xml:space="preserve"
   sodipodi:docname="cup_0.svg"
   width="512"
   height="336.67001"
   inkscape:version="0.92.5 (2060ec1f9f, 2020-04-08)"><metadata
   id="metadata3907"><rdf:RDF><cc:Work
       rdf:about=""><dc:format>image/svg+xml</dc:format><dc:type
         rdf:resource="http://purl.org/dc/dcmitype/StillImage" /></cc:Work></rdf:RDF></metadata><defs
   id="defs3905" /><sodipodi:namedview
   pagecolor="#ffffff"
   bordercolor="#666666"
   borderopacity="1"
   objecttolerance="10"
   gridtolerance="10"
   guidetolerance="10"
   inkscape:pageopacity="0"
   inkscape:pageshadow="2"
   inkscape:window-width="1920"
   inkscape:window-height="1024"
   id="namedview3903"
   showgrid="false"
   inkscape:zoom="0.8125"
   inkscape:cx="173.36375"
   inkscape:cy="118.43778"
   inkscape:window-x="0"
   inkscape:window-y="30"
   inkscape:window-maximized="1"
   inkscape:current-layer="Capa_1" />
<g
   id="g3834"
   transform="translate(0,-175.33)">
	<g
   id="g3832">
		<path
   d="m 502,206.5 h -82 v -21.167 c 0,-5.523 -4.478,-10 -10,-10 H 194 c -5.522,0 -10,4.477 -10,10 0,5.523 4.478,10 10,10 h 206 v 76.666 c 0,67.348 -35.957,129.942 -94.018,164 H 114.018 C 55.957,401.942 20,339.347 20,272 v -76.666 h 67 c 5.522,0 10,-4.477 10,-10 0,-5.523 -4.478,-10 -10,-10 H 10 c -5.522,0 -10,4.477 -10,10 V 272 c 0,37.8 10.16,74.864 29.382,107.183 12.963,21.797 29.783,41.045 49.48,56.817 H 10 c -5.522,0 -10,4.477 -10,10 0,36.393 29.607,66 66,66 h 312 c 36.393,0 66,-29.607 66,-66 0,-5.523 -4.478,-10 -10,-10 h -92.862 c 18.129,-14.516 33.812,-31.983 46.302,-51.667 h 28.227 C 468.785,384.333 512,341.118 512,288 v -71.5 c 0,-5.523 -4.477,-10 -10,-10 z M 422.905,456 C 418.327,476.572 399.931,492 378,492 H 66 C 44.069,492 25.674,476.572 21.095,456 h 90.244 197.322 z M 420,272 v -5.5 h 32 V 288 c 0,20.034 -16.299,36.333 -36.333,36.333 h -2.271 C 417.761,307.327 420,289.745 420,272 Z m 72,16 c 0,42.09 -34.243,76.333 -76.333,76.333 h -17.02 c 3.193,-6.521 6.045,-13.197 8.537,-20 h 8.483 C 446.73,344.333 472,319.062 472,288 v -31.5 c 0,-5.523 -4.478,-10 -10,-10 h -42 v -20 h 72 z"
   id="path3830"
   inkscape:connector-curvature="0" />
	</g>
</g>



<g
   id="g3858"
   transform="translate(0,-175.33)">
	<g
   id="g3856">
		<path
   d="m 150.28,178.26 c -1.86,-1.86 -4.44,-2.93 -7.07,-2.93 -2.63,0 -5.21,1.07 -7.07,2.93 -1.859,1.87 -2.93,4.44 -2.93,7.07 0,2.63 1.07,5.21 2.93,7.08 1.86,1.86 4.44,2.92 7.07,2.92 2.63,0 5.21,-1.06 7.07,-2.92 1.869,-1.87 2.93,-4.44 2.93,-7.08 0,-2.63 -1.061,-5.21 -2.93,-7.07 z"
   id="path3854"
   inkscape:connector-curvature="0" />
	</g>
</g>
<g
   id="g3864"
   transform="translate(0,-175.33)">
	<g
   id="g3862">
		<path
   d="m 362,262 c -5.522,0 -10,4.477 -10,10 0,37.119 -15.056,73.598 -41.308,100.083 -3.888,3.922 -3.859,10.254 0.063,14.142 1.95,1.933 4.495,2.898 7.04,2.898 2.574,-10e-4 5.148,-0.989 7.103,-2.962 C 354.832,355.961 372,314.351 372,272 c 0,-5.523 -4.478,-10 -10,-10 z"
   id="path3860"
   inkscape:connector-curvature="0" />
	</g>
</g>
<g
   id="g3870"
   transform="translate(0,-175.33)">
	<g
   id="g3868">
		<path
   d="m 293.885,399.225 c -2.714,-4.811 -8.813,-6.51 -13.623,-3.797 l -0.228,0.129 c -4.811,2.714 -6.51,8.813 -3.797,13.623 1.838,3.258 5.227,5.089 8.719,5.089 1.664,0 3.352,-0.417 4.904,-1.292 l 0.228,-0.129 c 4.811,-2.714 6.51,-8.813 3.797,-13.623 z"
   id="path3866"
   inkscape:connector-curvature="0" />
	</g>
</g>
<g
   id="g3872"
   transform="translate(0,-175.33)">
</g>
<g
   id="g3874"
   transform="translate(0,-175.33)">
</g>
<g
   id="g3876"
   transform="translate(0,-175.33)">
</g>
<g
   id="g3878"
   transform="translate(0,-175.33)">
</g>
<g
   id="g3880"
   transform="translate(0,-175.33)">
</g>
<g
   id="g3882"
   transform="translate(0,-175.33)">
</g>
<g
   id="g3884"
   transform="translate(0,-175.33)">
</g>
<g
   id="g3886"
   transform="translate(0,-175.33)">
</g>
<g
   id="g3888"
   transform="translate(0,-175.33)">
</g>
<g
   id="g3890"
   transform="translate(0,-175.33)">
</g>
<g
   id="g3892"
   transform="translate(0,-175.33)">
</g>
<g
   id="g3894"
   transform="translate(0,-175.33)">
</g>
<g
   id="g3896"
   transform="translate(0,-175.33)">
</g>
<g
   id="g3898"
   transform="translate(0,-175.33)">
</g>
<g
   id="g3900"
   transform="translate(0,-175.33)">
</g>
</svg>