<?xml version="1.0" encoding="UTF-8" standalone="no"?>
<!-- Generator: Adobe Illustrator 19.0.0, SVG Export Plug-In . SVG Version: 6.00 Build 0)  -->

<svg
   xmlns:dc="http://purl.org/dc/elements/1.1/"
   xmlns:cc="http://creativecommons.org/ns#"
   xmlns:rdf="http://www.w3.org/1999/02/22-rdf-syntax-ns#"
   xmlns:svg="http://www.w3.org/2000/svg"
   xmlns="http://www.w3.org/2000/svg"
   xmlns:sodipodi="http://sodipodi.sourceforge.net/DTD/sodipodi-0.dtd"
   xmlns:inkscape="http://www.inkscape.org/namespaces/inkscape"
   version="1.1"
   id="Capa_1"
   x="0px"
   y="0px"
   viewBox="0 0 512 280.36328"
   xml:space="preserve"
   sodipodi:docname="cup_1-3.svg"
   width="512"
   height="280.36328"
   inkscape:version="0.92.5 (2060ec1f9f, 2020-04-08)"><metadata
   id="metadata3907"><rdf:RDF><cc:Work
       rdf:about=""><dc:format>image/svg+xml</dc:format><dc:type
         rdf:resource="http://purl.org/dc/dcmitype/StillImage" /><dc:title /></cc:Work></rdf:RDF></metadata><defs
   id="defs3905">
		
	</defs><sodipodi:namedview
   pagecolor="#ffffff"
   bordercolor="#666666"
   borderopacity="1"
   objecttolerance="10"
   gridtolerance="10"
   guidetolerance="10"
   inkscape:pageopacity="0"
   inkscape:pageshadow="2"
   inkscape:window-width="1920"
   inkscape:window-height="1024"
   id="namedview3903"
   showgrid="false"
   inkscape:zoom="1.1490485"
   inkscape:cx="232.39238"
   inkscape:cy="25.9888"
   inkscape:window-x="0"
   inkscape:window-y="30"
   inkscape:window-maximized="1"
   inkscape:current-layer="Capa_1"
   inkscape:snap-grids="true"
   inkscape:snap-to-guides="true" />
<g
   id="g3834"
   transform="translate(0,-175.33)"
   style="stroke:#000000;stroke-opacity:1">
	<path
   d="m 10,0.00390625 c -5.522,0 -10,4.47700005 -10,9.99999975 v 86.666016 c 0,37.799998 10.160813,74.864598 29.382812,107.183598 12.963001,21.797 29.781516,41.0444 49.478516,56.8164 17.862475,16.66511 34.677732,19.69336 34.677732,19.69336 l 193.23047,-0.30859 c 0,0 20.14315,-5.8472 34.36914,-19.38477 0.83639,-0.79591 1.78176,-1.55748 2.80664,-2.29492 16.94192,-14.0497 31.65434,-30.7118 43.49414,-49.37109 h 28.22852 c 53.118,0 96.33203,-43.21599 96.33203,-96.33399 V 41.169922 c 0,-5.523 -4.477,-10 -10,-10 H 420 V 10.003906 C 420,4.4809063 415.522,0.00390625 410,0.00390625 H 194 c -5.522,0 -10,4.47700005 -10,9.99999975 0,5.523 4.478,10 10,10 H 400 V 96.669922 C 400,164.01792 364.04342,226.61192 305.98242,260.66992 H 114.01758 C 55.956578,226.61292 20,164.01692 20,96.669922 V 20.003906 h 67 c 5.522,0 10,-4.477 10,-10 C 97,4.4809063 92.522,0.00390625 87,0.00390625 Z M 420,51.169922 h 72 v 61.499998 c 0,42.09 -34.24203,76.33399 -76.33203,76.33399 h -17.02149 c 3.193,-6.521 6.04511,-13.197 8.53711,-20 h 8.48438 c 31.063,0 56.33203,-25.27199 56.33203,-56.33399 V 81.169922 c 0,-5.523 -4.478,-10 -10,-10 h -42 z m 0,40 h 32 v 21.499998 c 0,20.034 -16.29803,36.33399 -36.33203,36.33399 h -2.27149 C 417.76148,131.99791 420,114.41492 420,96.669922 Z"
   transform="translate(0,175.33)"
   id="path3830"
   inkscape:connector-curvature="0"
   style="stroke:#000000;stroke-opacity:1" />
</g>



<g
   id="g3858"
   transform="translate(0,-175.33)">
	<g
   id="g3856">
		<path
   d="m 150.28,178.26 c -1.86,-1.86 -4.44,-2.93 -7.07,-2.93 -2.63,0 -5.21,1.07 -7.07,2.93 -1.859,1.87 -2.93,4.44 -2.93,7.07 0,2.63 1.07,5.21 2.93,7.08 1.86,1.86 4.44,2.92 7.07,2.92 2.63,0 5.21,-1.06 7.07,-2.92 1.869,-1.87 2.93,-4.44 2.93,-7.08 0,-2.63 -1.061,-5.21 -2.93,-7.07 z"
   id="path3854"
   inkscape:connector-curvature="0" />
	</g>
</g>
<g
   id="g3864"
   transform="translate(0,-175.33)">
	<g
   id="g3862">
		<path
   d="m 362,262 c -5.522,0 -10,4.477 -10,10 0,37.119 -15.056,73.598 -41.308,100.083 -3.888,3.922 -3.859,10.254 0.063,14.142 1.95,1.933 4.495,2.898 7.04,2.898 2.574,-10e-4 5.148,-0.989 7.103,-2.962 C 354.832,355.961 372,314.351 372,272 c 0,-5.523 -4.478,-10 -10,-10 z"
   id="path3860"
   inkscape:connector-curvature="0" />
	</g>
</g>
<g
   id="g3870"
   transform="translate(0,-175.33)">
	<g
   id="g3868">
		<path
   d="m 293.885,399.225 c -2.714,-4.811 -8.813,-6.51 -13.623,-3.797 l -0.228,0.129 c -4.811,2.714 -6.51,8.813 -3.797,13.623 1.838,3.258 5.227,5.089 8.719,5.089 1.664,0 3.352,-0.417 4.904,-1.292 l 0.228,-0.129 c 4.811,-2.714 6.51,-8.813 3.797,-13.623 z"
   id="path3866"
   inkscape:connector-curvature="0" />
	</g>
</g>
<g
   id="g3872"
   transform="translate(0,-175.33)">
</g>
<g
   id="g3874"
   transform="translate(0,-175.33)">
</g>
<g
   id="g3876"
   transform="translate(0,-175.33)">
</g>
<g
   id="g3878"
   transform="translate(0,-175.33)">
</g>
<g
   id="g3880"
   transform="translate(0,-175.33)">
</g>
<g
   id="g3882"
   transform="translate(0,-175.33)">
</g>
<g
   id="g3884"
   transform="translate(0,-175.33)">
</g>
<g
   id="g3886"
   transform="translate(0,-175.33)">
</g>
<g
   id="g3888"
   transform="translate(0,-175.33)">
</g>
<g
   id="g3890"
   transform="translate(0,-175.33)">
</g>
<g
   id="g3892"
   transform="translate(0,-175.33)">
</g>
<g
   id="g3894"
   transform="translate(0,-175.33)">
</g>
<g
   id="g3896"
   transform="translate(0,-175.33)">
</g>
<g
   id="g3898"
   transform="translate(0,-175.33)">
</g>
<g
   id="g3900"
   transform="translate(0,-175.33)">
</g>
<path
   style="fill:none;stroke:none;stroke-width:0.86746746px;stroke-linecap:butt;stroke-linejoin:miter;stroke-opacity:1"
   d="m -0.05877771,278.88879 2.46212971,-90.27831 510.276368,-0.92593 0.61554,92.13016 z"
   id="path68"
   inkscape:connector-curvature="0" /><path
   style="fill:#000000;stroke:#000000;stroke-width:0.43514264;stroke-opacity:1"
   d="m 327.3859,208.64983 c 4.4251,-4.84425 10.91573,-12.68903 13.59548,-16.43192 l 2.56645,-3.58464 h 15.80651 c 8.69358,0 15.8065,0.0919 15.8065,0.20422 0,0.83361 -10.82961,17.63327 -13.81642,21.43299 l -0.76085,0.96794 -17.89069,0.11992 -17.89068,0.11991 z"
   id="path4784"
   inkscape:connector-curvature="0" /><path
   style="fill:#000000;stroke:#000000;stroke-opacity:1"
   id="path4788"
   d="m 52.600358,209.95657 c -2.170957,-2.02685 -4.120324,-4.27425 -6.019999,-6.55281 -1.428802,-2.00546 -2.984183,-3.93441 -4.321154,-6.004 -0.887518,-2.3325 -0.378687,-0.70733 5.710354,-3.45826 0.168046,-0.0759 0.288274,0.23005 0.434251,0.34272 0.743669,0.57398 1.476155,1.15357 2.199274,1.75375 1.818997,1.32619 3.375814,2.95132 5.022309,4.47412 1.262309,1.00271 2.307522,2.21235 3.375908,3.40661 0.774244,0.79699 1.502138,1.63816 2.15262,2.53937 1.728898,2.85865 -2.521166,3.24762 -5.456904,4.76794 -0.161024,0.0834 -1.117609,-0.37518 -1.172451,-0.39891 -1.907102,-0.933 -3.358984,-2.51494 -4.746579,-4.08123 -1.164531,-1.38971 -2.111359,-2.94354 -2.919586,-4.56208 -0.434139,-1.13286 -1.055899,-2.17888 -1.481148,-3.31413 -1.20736,-3.62171 0.915587,-2.59311 5.654489,-4.94122 0.193592,0.20521 0.404665,0.39524 0.580778,0.61564 0.968307,1.21181 1.679765,2.63136 2.509672,3.9358 1.248862,1.96295 1.012581,1.57587 2.390351,3.47445 2.673771,3.65756 5.800029,6.944 8.918352,10.21827 2.917723,2.97358 5.969873,5.89397 9.523863,8.10716 0.679765,0.42332 1.391507,0.79298 2.08726,1.18947 4.924236,2.32663 10.275875,3.17593 15.643327,3.69545 5.962905,0.44659 11.946375,0.33108 17.919945,0.45409 5.83796,0.10972 11.67631,0.3024 17.51554,0.21736 2.22795,-0.01 4.44921,-0.18882 6.66998,-0.34531 0,0 -4.96985,3.66004 -4.96985,3.66004 v 0 c -2.19651,0.12901 -4.39415,0.26189 -6.59581,0.24956 -5.8207,0.0297 -11.63905,-0.16034 -17.45808,-0.27909 -6.004602,-0.0816 -12.017246,-0.0146 -18.011036,-0.45052 -5.434121,-0.57108 -10.852439,-1.50061 -15.828099,-3.8785 -0.707428,-0.4086 -1.432282,-0.78842 -2.122284,-1.22581 -3.56622,-2.26061 -6.589975,-5.26528 -9.564685,-8.2284 -3.162833,-3.27476 -6.358334,-6.54484 -9.020442,-10.25338 -1.371325,-1.87759 -1.174501,-1.568 -2.455806,-3.47953 -0.818924,-1.22173 -1.543788,-2.63877 -2.588495,-3.69467 -0.156003,-0.15767 -0.355283,-0.26564 -0.532925,-0.39846 1.79504,-1.07005 3.61113,-2.10555 5.38512,-3.21015 0.0554,-0.0345 -0.150303,-0.0698 -0.19457,-0.0218 -0.06583,0.0713 -0.0497,0.18977 -0.05006,0.28682 -0.0015,0.39961 0.125659,0.80202 0.228239,1.18259 0.385159,1.12589 0.99665,2.15353 1.407663,3.27066 0.772329,1.57381 1.632916,3.11109 2.781046,4.44743 1.325705,1.49548 2.72077,3.02971 4.633274,3.75568 0.184809,0.0399 0.365589,0.11037 0.554426,0.11974 0.141777,0.007 0.538009,-0.15004 0.419827,-0.0714 -1.685259,1.1213 -3.442444,2.13076 -5.149615,3.2184 -0.06245,0.0398 0.177103,-0.005 0.210315,-0.0716 0.09851,-0.1963 -0.200946,-0.58984 -0.256246,-0.68571 -0.638205,-0.88451 -1.361008,-1.70193 -2.102661,-2.50042 -1.021228,-1.20145 -2.074377,-2.36631 -3.282706,-3.38781 -1.617411,-1.53264 -3.174269,-3.13486 -4.992302,-4.43898 -0.732278,-0.5777 -1.461093,-1.15969 -2.253957,-1.65416 -0.135362,-0.0844 -0.546561,-0.13912 -0.417838,-0.23335 0.732927,-0.53654 7.240463,-4.54222 5.266293,-3.32688 0.396278,0.82466 0.929578,1.53653 1.446869,2.29009 0.860729,1.25387 1.711188,2.5151 2.642265,3.71905 1.87539,2.27245 3.825994,4.51734 6.148771,6.34804 0,0 -5.467091,3.40825 -5.467091,3.40825 z"
   inkscape:connector-curvature="0" /><path
   style="fill:#000000;stroke:#000000;stroke-opacity:1"
   id="path4790"
   d="m 308.13946,210.94713 c 3.83703,-0.21612 7.67919,-0.16292 11.5169,-0.0101 5.16207,0.14023 10.18155,1.26308 15.06396,2.87246 1.69302,0.62455 3.42271,1.20059 5.01947,2.05575 0.27501,0.14728 0.54418,0.30962 0.79032,0.50127 0.12919,0.10059 0.45525,0.26757 0.3257,0.36768 -1.79482,1.38685 -3.78009,2.50797 -5.67013,3.76195 -2.40716,-0.49947 -4.80093,-1.02503 -7.23666,-1.36996 -2.66073,-0.37293 -5.3177,-0.85478 -7.8073,-1.88702 -2.19111,-1.22784 -3.47036,-2.83879 -4.318,-5.16843 -0.0527,-0.36248 -0.16808,-0.72128 -0.15821,-1.08745 0.0794,-2.94393 3.05473,-5.20944 5.13287,-6.86584 3.49134,-2.38955 2.31152,-1.64207 8.48276,-5.08021 0.856,-0.4769 2.65742,-1.32822 3.70297,-1.2691 0.22966,0.013 0.43108,0.16071 0.64661,0.24106 0.12659,0.21999 0.31748,0.41392 0.37977,0.65997 0.40862,1.61404 -1.52053,4.6377 -2.28514,5.97611 -1.41886,2.33795 -3.10581,4.48357 -4.93444,6.51019 -0.59524,0.002 -0.48045,0.75419 -0.84963,0.97841 -0.15946,0.0969 -0.009,-0.42491 0.13551,-0.54306 0.1839,-0.15047 0.43455,-0.19249 0.64914,-0.29453 0.26686,-0.1269 0.53,-0.26146 0.79501,-0.39219 1.73812,-0.90004 3.43757,-1.87548 5.25998,-2.59741 0.64002,-0.31046 1.38014,-0.33652 2.02768,-0.62067 0.0777,-0.0341 0.27612,-0.19746 0.20574,-0.15002 -5.78274,3.89785 -3.3545,3.59655 -6.18201,3.8368 -3.10258,0.81326 -6.05351,2.10724 -8.98635,3.38572 -3.77897,1.75466 -7.3366,3.92944 -11.01389,5.87888 -3.59438,1.77492 -7.43601,2.99359 -11.28995,4.06452 -3.42437,1.01628 -6.93719,1.61478 -10.48085,2.00906 -2.037,0.14882 -4.05715,0.23056 -6.05804,0.65626 -1.29588,0.40605 -2.56629,0.86734 -3.88657,1.19353 -0.0435,0.008 -0.77379,0.18083 -0.85608,0.0538 -0.99915,-1.54175 0.35375,-4.51245 0.87161,-5.99218 2.21068,-4.97695 6.4926,-8.30855 10.89169,-11.26553 4.34894,-2.38659 6.15434,-3.91746 10.17551,-5.0815 3.30612,-0.95705 6.7763,-1.28421 10.18964,-1.5908 1.49276,-0.10715 3.00919,-0.21902 4.50617,-0.0874 0.28164,0.0248 1.23304,0.0625 1.36818,0.54802 0.0917,0.32931 -0.0773,0.67927 -0.11602,1.01891 -5.32706,4.69703 -12.24,6.66457 -18.8708,8.62765 -5.66361,1.47585 -11.17909,3.40723 -16.62303,5.54074 -1.61044,0.61674 -3.17351,1.34786 -4.77337,1.99007 -0.33242,0.13344 -0.66747,0.2605 -1.0048,0.38096 -0.15738,0.0562 -0.36115,0.26758 -0.47873,0.14883 -0.22059,-0.22279 -0.17796,-0.60127 -0.26694,-0.90191 0.27251,-0.22624 0.52379,-0.48082 0.81753,-0.6787 0.5326,-0.35879 1.09312,-0.67515 1.65466,-0.9867 2.53529,-1.40663 5.05033,-2.85326 7.63484,-4.16729 0.93784,-0.47682 1.94601,-0.80043 2.91973,-1.19891 4.13754,-1.69321 2.19733,-0.93907 6.55568,-2.51754 3.50432,-1.14983 7.01353,-2.28741 10.54582,-3.34904 2.31942,-0.69709 4.63835,-1.29638 6.89077,-2.18865 -4.2256,-7.61093 -3.45863,2.87239 -5.56388,3.02224 -0.47855,0.0341 -0.95553,-0.0996 -1.43522,-0.10791 -0.73736,-0.0127 -1.47606,-0.003 -2.21195,0.0448 -1.98961,0.13038 -4.04268,0.45021 -6.01259,0.72014 -3.54139,0.5791 -7.13609,0.95816 -10.63194,1.79438 -0.44852,0.10729 -1.7186,0.6292 -1.33009,0.38072 1.66689,-1.06608 3.46856,-1.90507 5.20285,-2.8576 0.12552,-0.0858 0.22464,-0.25161 0.37658,-0.25742 0.45833,-0.0175 0.90597,0.14863 1.36269,0.19085 0.623,0.0576 1.24823,0.10021 1.87383,0.10837 3.03258,0.0396 6.08633,-0.24852 9.10999,-0.42859 4.53075,-0.31806 9.06597,-0.60992 13.61053,-0.52239 1.73323,0.0334 4.4645,0.17657 6.21678,0.2608 4.24227,0.35529 8.49161,0.61782 12.73574,0.94475 3.962,0.31822 7.93651,0.41339 11.9094,0.46616 3.03625,0.0906 6.06818,-0.005 9.07285,-0.45663 1.66072,-0.33233 3.32159,-0.73777 4.89163,-1.38558 1.84406,-0.76087 4.64639,-2.50945 -3.08407,1.87568 2.42626,-1.51619 4.18785,-3.74872 5.90719,-5.98265 0.98303,-1.02698 2.12946,-2.90602 3.35462,-3.64536 1.99987,-1.20682 4.03885,-2.3476 6.05827,-3.52141 1.07739,-0.34298 2.20103,-0.46481 3.29381,-0.74744 1.33657,-0.3841 2.59056,-0.96354 3.86554,-1.50879 0.32091,-0.0774 1.18532,-0.62347 1.53106,-0.5173 0.12769,0.0392 0.24099,0.15912 0.2797,0.28696 0.23892,0.78897 0.005,0.74985 -0.51377,1.22274 -3.66607,2.32238 -7.47215,4.43357 -11.23201,6.59566 -2.01229,1.07136 -5.98924,3.25834 3.15659,-1.85016 0.19688,-0.10997 -0.37684,0.24801 -0.56054,0.37881 -0.43444,0.30931 -0.57256,0.43528 -0.98028,0.77179 -0.15011,0.13329 -0.30397,0.26248 -0.45032,0.39989 -0.0201,0.0188 -0.61356,0.68672 -0.65197,0.70253 -6.09419,2.50908 -7.07776,4.08048 -5.48554,1.85369 1.2581,-1.40298 2.72954,-2.57347 4.20519,-3.73399 2.00857,-1.56331 2.49038,-1.98486 6.33368,-3.39394 0.25992,-0.0953 0.21846,0.53611 0.18146,0.81047 -0.0717,0.53165 -1.26974,2.14071 -1.58065,2.60982 -0.24006,0.18132 -1.62544,2.60934 -1.77385,2.67377 -6.21345,2.69726 -5.94888,4.50816 -5.95799,1.55813 0.3843,-2.17893 1.32075,-4.24258 2.3099,-6.21048 1.65714,-2.94422 1.80075,-2.4201 6.75065,-3.88747 0.24741,-0.0733 -0.30699,0.41488 -0.46127,0.62173 -0.20179,0.27053 -0.40463,0.54028 -0.60695,0.81043 -1.06016,1.49801 -2.37779,2.78492 -3.45372,4.26927 -1.24998,1.81996 -0.37069,0.61153 -5.74686,2.36402 -0.21935,0.0715 0.31144,-0.34053 0.47213,-0.50607 0.55351,-0.57024 1.1429,-1.05872 1.77417,-1.53934 2.25267,-1.70153 4.73104,-2.93387 7.22204,-4.33862 0.8947,-0.50455 0.75484,0.32191 0.75647,0.91028 -2.4161,2.15775 -5.23417,3.85527 -7.99394,5.53683 -4.95221,3.10623 -10.10426,5.80995 -15.49397,8.0468 -1.90531,0.84111 -3.97416,1.14441 -5.98534,1.62031 0.70969,-0.87628 -1.255,0.6075 -0.96778,0.40747 1.86884,-1.30148 3.66662,-2.71011 5.59906,-3.91513 0.22229,-0.13861 0.5219,-0.0465 0.78323,-0.0647 1.12913,-0.0786 1.46093,-0.0826 2.67411,-0.13303 3.69487,-0.0456 7.36217,-0.5087 11.02035,-0.98497 2.31652,-0.27132 4.61462,-0.6721 6.93049,-0.94931 0.65654,-0.11132 2.40544,-0.21435 1.69178,1.06653 -0.11621,0.20856 -0.37366,0.29732 -0.56048,0.44599 -2.60097,0.86085 -4.74885,3.08791 -7.38288,4.06458 -1.68489,0.62474 -3.46067,0.92456 -5.22695,1.20505 -2.30679,0.29659 -0.0117,0.012 -2.09875,0.24283 -0.21154,0.0234 -0.42415,0.0413 -0.6335,0.0796 -0.0765,0.014 -0.28343,0.12197 -0.22032,0.0766 5.40444,-3.88721 3.24308,-3.49086 5.90759,-3.88673 2.23985,-0.1924 4.48882,-0.24236 6.73543,-0.29035 2.04641,-0.20448 4.16043,-0.10017 6.14966,-0.67742 2.61544,-1.52117 -2.87277,1.67433 -4.32381,2.4255 -0.22169,0.11477 0.38942,-0.31717 0.54998,-0.50831 0.19381,-0.23071 0.35903,-0.48599 0.50615,-0.74894 0.43364,-0.77505 0.56358,-1.2583 0.86096,-2.0972 0.55441,-1.7871 0.78698,-3.64796 0.88362,-5.51015 0.0395,-1.23773 0.65799,-2.33504 0.71332,-3.56557 -0.13509,-0.73896 -0.89782,-0.80284 -1.52666,-0.86339 -0.77517,-0.0337 -1.55161,-0.0128 -2.32718,-0.004 -0.77847,-0.18528 -1.58342,-0.22672 -2.36596,-0.3814 -0.19267,-0.35358 -0.3583,-0.47978 -0.20407,-0.91201 0.13588,-0.3808 0.76183,-0.80884 1.08159,-0.99592 1.99481,-1.16702 4.00715,-2.30381 6.01073,-3.45571 0.88553,-0.4849 1.83229,-0.84884 2.78143,-1.18583 0.13089,-0.0638 0.5189,-0.26409 0.39268,-0.19145 -6.46268,3.71922 -7.69487,4.34074 0.73256,-0.46154 0.44356,-0.25276 0.91636,-0.44555 1.35945,-0.70264 -1.69084,0.97067 -3.37891,1.94616 -5.0725,2.91202 -0.29196,0.1665 0.57011,-0.35638 0.86087,-0.52498 1.97697,-1.14641 3.95764,-2.28642 5.93554,-3.43123 1.87473,-1.0851 7.48553,-5.78664 -5.12416,4.01774 -2.21643,0.98978 -4.4586,1.91162 -6.61196,3.03517 -0.42999,0.22282 -0.86015,0.44532 -1.28997,0.66847 -0.80146,0.41608 -1.61027,0.81837 -2.40378,1.24946 -0.39866,0.21657 -1.57962,0.89338 -1.1841,0.67112 4.48366,-2.51963 5.51183,-3.19897 2.89252,-1.54352 -2.94501,2.01516 -5.8616,4.07881 -8.66864,6.28325 -1.1818,0.9419 -2.29216,1.96643 -3.41066,2.98086 -0.57633,0.52272 -1.18304,1.01028 -1.68091,1.60988 0.11755,-0.19593 0.0537,-0.1147 0.51144,-0.25687 3.30281,-1.02583 -2.07609,0.80235 2.30634,-0.64192 1.42934,-0.47106 1.8284,-0.67717 3.25217,-1.28089 -0.94425,0.69042 4.56882,-2.44266 3.42927,-1.82704 -1.21183,0.65468 -2.37045,1.41044 -3.61178,2.00731 -0.58512,0.28134 1.09458,-0.69867 1.63585,-1.05722 1.41988,-0.94054 1.55966,-1.06177 2.91054,-2.03788 1.65823,-1.22461 3.20058,-2.59776 4.8855,-3.78649 1.12495,-3.54925 5.59712,-2.76137 8.08379,-4.30457 -12.12473,5.77541 -5.46108,3.73178 -4.2408,2.27275 0.15309,-0.18305 0.15892,-0.2479 0.24073,-0.46088 -0.16406,-1.22046 -0.8785,-2.33646 -1.37283,-3.45651 -0.0589,-0.13355 -0.74542,-1.78893 -0.83087,-1.75533 -0.0564,0.0222 -0.0233,0.20572 0.031,0.17902 1.8624,-0.91499 3.67209,-1.93359 5.50814,-2.90039 -0.28248,0.86459 -0.68215,1.67901 -1.13467,2.46589 -0.50876,0.84677 -1.18562,1.56827 -1.78976,2.34399 -0.93112,1.26592 -1.87556,2.51834 -2.76758,3.81269 -1.93317,2.78687 -4.36747,5.15221 -6.85886,7.431 -2.7023,2.3937 -5.61793,4.54981 -8.6951,6.43586 -5.08512,3.37215 -9.06277,4.96229 -14.65192,6.53857 -3.53619,0.9322 -6.95711,2.23622 -10.41889,3.40606 -3.86831,1.43408 -7.87108,2.38861 -11.89915,3.23805 -2.46786,0.38541 -4.93877,0.88737 -7.42859,1.11325 -0.13111,-0.0536 -0.35346,-0.0248 -0.39333,-0.16073 -0.31268,-1.0658 0.36526,-1.2517 1.17272,-1.70961 2.40402,-1.36334 4.80956,-2.72666 7.26354,-3.99789 0.86816,-0.44973 4.20695,-1.69113 5.0235,-2.00261 5.64487,-2.3052 11.61732,-3.5385 17.5795,-4.6878 0.61942,-0.15718 2.37001,-0.8543 1.85827,-0.47155 -1.3659,1.02161 -2.95092,1.72076 -4.49561,2.44413 -0.12772,0.0598 0.19805,-0.27598 0.1336,-0.40142 -0.13506,-0.26285 -0.40823,-0.43288 -0.64977,-0.60314 -1.23206,-0.86842 -1.79464,-0.98005 -3.27123,-1.57565 -6.35681,-1.90185 -12.8859,-3.1792 -19.42133,-4.28911 -6.02893,-1.00107 -12.10725,-1.64696 -18.15391,-2.52316 -3.97062,-0.55866 -7.94416,-1.10177 -11.90998,-1.69298 -0.52082,-0.16899 -2.71167,-0.29067 -2.98484,-0.95617 -0.10305,-0.25107 -0.18061,-0.66212 0.045,-0.81295 5.2916,-3.53734 4.35319,-3.2257 7.92819,-3.74978 4.33168,-0.48409 8.73991,-0.0221 12.96431,1.00685 0.89944,0.21908 1.78217,0.50178 2.67326,0.75266 2.6484,1.02499 5.72607,1.82116 7.54912,4.1609 0.0829,0.21228 0.22099,0.41063 0.24874,0.63684 0.14334,1.16829 -0.8875,2.13333 -1.78504,2.67639 -6.11316,3.69888 -4.72066,3.05804 -8.60836,4.57978 -4.2985,1.62012 -8.72647,2.8415 -13.13286,4.12246 -2.92915,0.93379 -5.9677,1.75753 -8.63583,3.32934 1.70937,-0.95798 3.41874,-1.91595 5.12811,-2.87392 0.0285,-0.0505 0.0282,-0.14209 0.0854,-0.15149 0.26057,-0.0428 0.5281,0.007 0.79217,0.007 0.46427,-2.8e-4 0.92863,0.002 1.39279,-0.009 1.77046,-0.0397 1.81535,-0.0683 3.64762,-0.20524 1.9782,-0.21546 3.9544,-0.44864 5.93197,-0.66969 0.53824,-0.0602 2.16836,-0.28233 2.83755,-0.22155 0.21437,0.0195 0.40931,0.1334 0.61396,0.2001 0.0604,0.27319 0.24869,0.54804 0.18123,0.81958 -0.16105,0.64833 -1.42433,1.69796 -1.77568,2.0134 -1.71213,1.53716 -3.50241,2.96752 -5.32279,4.37265 -4.02012,2.87551 -8.01738,6.02746 -12.68036,7.83647 -0.2753,0.1068 -0.34538,-0.47906 -0.51808,-0.71859 0.13266,-0.48328 0.19299,-0.99252 0.39798,-1.44984 0.27863,-0.6216 0.66266,-1.19205 1.04035,-1.75895 1.97359,-2.9622 4.24842,-5.2245 6.91161,-7.54597 3.02831,-2.35888 6.39352,-4.20581 9.75618,-6.04948 0.52693,-0.28891 1.09179,-0.17607 0.8717,0.75277 -0.0821,0.34663 -0.45469,0.54849 -0.68203,0.82274 -2.6527,2.37485 -5.3139,4.80406 -8.30047,6.75905 -1.98966,1.00045 -3.8391,2.35081 -5.96899,3.00136 -0.36941,0.11283 -0.18772,-0.78845 -0.0708,-1.15658 0.1413,-0.44496 0.5014,-0.79109 0.80258,-1.14782 1.29063,-1.52868 2.89897,-2.67865 4.52333,-3.81444 4.73542,-2.6862 5.34835,-3.44715 9.03279,-4.81543 1.22678,-0.45558 3.15337,-1.26591 4.49761,-0.81302 0.36117,0.12168 0.63246,0.42543 0.94869,0.63814 0.121,0.44246 0.33955,0.86927 0.363,1.32738 0.0597,1.16714 -0.47286,2.44737 -0.93296,3.46145 -0.9954,2.19389 -2.30095,3.97689 -3.77336,5.86163 -3.65367,3.98212 -8.39791,6.97682 -13.46005,8.86043 -0.24506,-0.045 -0.57631,0.0569 -0.73517,-0.135 -0.96865,-1.17037 0.83474,-3.59066 1.36042,-4.45321 1.54278,-2.53149 1.23827,-1.98796 3.16234,-4.46665 0.75534,-0.74471 1.45736,-1.54767 2.266,-2.23412 0.84999,-0.72157 1.74886,-1.39179 2.69678,-1.97881 4.31201,-2.6703 8.46513,-5.23767 13.29467,-6.72953 0.84204,-0.26011 1.70454,-0.44868 2.55682,-0.67302 2.90443,-0.5329 5.89259,-0.92687 8.83001,-0.39121 0.54912,0.10014 1.11093,0.19243 1.62158,0.41784 0.52725,0.23273 0.96794,0.62588 1.4519,0.93883 0.39525,0.44132 0.85355,0.83341 1.18574,1.32396 1.45034,2.14173 1.63158,5.0318 0.75831,7.42992 -0.24812,0.68137 -0.65086,1.29602 -0.9763,1.94402 -3.12066,4.6935 -8.08624,7.5339 -12.78153,10.41584 -5.76645,3.36453 -11.35926,7.18105 -17.6818,9.42863 -0.95534,0.18842 -2.33859,0.77028 -3.26825,0.0868 -1.07819,-0.79269 -1.22584,-2.31507 -1.41567,-3.50152 -0.11514,-3.36928 1.30582,-6.20421 3.44272,-8.75594 0.70561,-0.84259 1.5112,-1.59613 2.2668,-2.3942 2.47702,-2.27482 5.06839,-4.45591 7.97678,-6.16767 3.94972,-2.32464 6.56591,-4.14205 10.53416,-5.47221 0.8609,-0.28858 1.75109,-0.48106 2.62664,-0.72158 0.84067,-0.11418 1.67586,-0.28096 2.52201,-0.34253 2.44542,-0.17797 5.53558,0.0549 7.80286,1.08135 0.45431,0.20567 0.8648,0.49688 1.2972,0.74533 1.63408,1.20583 3.08131,3.05625 3.0585,5.20555 -0.004,0.42249 -0.13099,0.83482 -0.19648,1.25222 -0.23064,0.44948 -0.40616,0.93182 -0.69192,1.34843 -1.68761,2.46044 -4.6508,4.19165 -7.16647,5.68305 -0.0165,-5.27159 -6.08518,5.86647 -8.57881,3.97665 -1.39039,-1.05372 -0.51507,-3.43263 -0.229,-4.68987 0.30539,-0.76441 0.55235,-1.55485 0.91619,-2.29325 1.582,-3.21065 4.04821,-6.11777 6.70924,-8.48785 0.63596,-0.56643 1.3244,-1.07103 1.9866,-1.60654 5.55737,-4.03628 11.24145,-6.92881 17.75716,-8.79575 2.09401,-0.40306 4.30815,-1.20278 6.45397,-0.74412 1.29999,0.55492 1.50419,1.8786 0.9434,3.12245 -0.2435,0.54009 -0.60383,1.01949 -0.90575,1.52924 -2.68012,3.47056 -6.05769,6.34271 -9.61169,8.88287 -2.57226,1.57267 -4.35836,2.68985 -7.57862,4.22398 -0.2673,0.12733 -0.64065,0.12826 -0.88754,-0.0352 -1.16241,-0.76944 -1.27248,-3.04522 -1.39421,-4.20346 -0.0327,-4.12927 1.3955,-8.14185 3.50276,-11.66298 0.47644,-0.79612 1.04046,-1.53645 1.56069,-2.30467 1.40873,-1.74462 2.94836,-3.48955 4.88357,-4.67742 2.20835,-1.35554 4.44777,-2.66179 6.71567,-3.91518 0.39301,-0.2172 0.82249,-0.36871 1.25488,-0.48986 0.33103,-0.0927 0.68047,-0.0985 1.02071,-0.14775 0.30074,0.0822 0.62804,0.0983 0.90224,0.24666 1.49045,0.80672 1.68314,2.99849 1.24705,4.43639 -0.18419,0.60732 -0.51578,1.15974 -0.77366,1.73961 -0.51116,0.6095 -0.9764,1.26066 -1.53347,1.8285 -1.09958,1.12086 -3.20612,2.77012 -4.42367,3.69396 -1.11377,0.8451 -4.61119,3.38136 -5.73659,4.13512 -1.0518,0.70446 -2.1379,1.3563 -3.20685,2.03445 -5.91789,3.3172 -11.62783,7.5069 -18.32977,9.08664 -0.36267,-0.01 -0.76615,0.13739 -1.08801,-0.03 -0.39247,-0.20416 -0.65495,-0.61266 -0.87986,-0.99361 -0.79022,-1.33847 -0.85188,-3.30249 -0.5351,-4.77727 0.14881,-0.69283 0.44427,-1.34583 0.66641,-2.01874 0.36998,-0.71225 0.68682,-1.45473 1.10994,-2.13676 1.77088,-2.85451 4.41825,-5.56031 7.18082,-7.4663 0.61547,-0.42463 1.27896,-0.77507 1.91844,-1.16261 3.36277,-1.91176 6.6097,-4.13525 10.47376,-4.74874 0.79893,-0.12684 1.42025,-0.20451 2.17717,0.10799 0.26246,0.10835 0.47276,0.31463 0.70915,0.47195 0.10001,0.3088 0.28924,0.60199 0.30003,0.92641 0.0791,2.37829 -3.30562,4.23512 -4.98908,5.17605 -2.56208,1.43202 -5.15468,2.80872 -7.73201,4.21307 -3.84473,1.77197 -7.82098,3.28655 -11.93895,4.28462 -0.30574,0.064 -0.60707,0.22911 -0.91722,0.19196 -2.64597,-0.31694 -0.1686,-6.62007 0.23241,-7.75779 1.22504,-2.98708 2.95312,-5.71513 5.338,-7.90754 0.44299,-0.40723 0.88491,-0.82653 1.39499,-1.14575 2.12204,-1.32804 4.32383,-2.52417 6.48574,-3.78626 0.21497,-0.0115 0.49323,-0.18726 0.6449,-0.0345 0.22844,0.2301 0.31872,0.62161 0.25325,0.93917 -0.12353,0.59918 -1.4726,1.86226 -1.77797,2.14916 -0.96566,0.90725 -1.87859,1.60437 -2.91586,2.43734 -2.74965,2.29281 -5.67644,4.34858 -8.69583,6.26582 -0.31814,0.3473 -1.36242,0.60366 -1.33247,1.18473 0.0216,0.43434 0.0724,0.50792 -0.26273,0.98361 -0.91366,1.29684 -3.25878,2.4077 -4.59798,3.18268 -2.30844,1.31377 -4.61688,2.62754 -6.92531,3.94132 -0.58438,0.32405 -2.32721,1.31413 -1.75314,0.97214 4.34811,-2.59022 7.69955,-4.22619 -3.79918,2.14666 -0.70136,0.38871 -3.53833,1.75001 -4.25414,2.0966 -3.2132,1.59613 -6.59009,2.83679 -9.80486,4.42536 -2.70371,1.50615 -5.54402,2.76245 -8.41851,3.90303 -2.65589,1.15739 -5.35633,2.26097 -7.9303,3.59615 -2.66388,1.59746 0.68142,-0.41571 4.06517,-2.30799 0.28905,-0.16164 -0.53391,0.39388 -0.7792,0.61639 0,0 -5.93976,2.49801 -5.93976,2.49801 v 0 c 1.80849,-2.42121 5.03263,-3.26614 7.60572,-4.76663 2.58469,-1.23652 5.2163,-2.38483 7.86321,-3.48002 2.88115,-1.18596 5.71008,-2.49541 8.45098,-3.97957 3.19592,-1.49111 6.49718,-2.75021 9.66071,-4.31459 0.71226,-0.34877 1.42808,-0.69039 2.13679,-1.04632 0.70857,-0.35586 2.75674,-1.55443 2.11485,-1.08894 -1.02886,0.74612 -4.38954,2.56408 -3.28414,1.93691 2.38211,-1.35156 4.73852,-2.74795 7.11453,-4.11019 0.58923,-0.33782 2.35884,-1.34683 1.781,-0.98989 -1.21916,0.75309 -2.47059,1.45262 -3.70588,2.17893 1.55635,-0.89889 3.0892,-1.74592 4.50532,-2.85327 0.12798,-0.10006 0.2915,-0.16036 0.39481,-0.28572 0.0482,-0.0585 0.0179,-0.15064 0.0269,-0.22596 -0.26382,-1.22336 0.14345,-1.21142 1.17424,-1.92689 3.07785,-1.90197 6.09808,-3.90053 8.85784,-6.25257 1.37016,-1.09012 2.68649,-2.17214 3.94177,-3.39193 0.22813,-0.22169 0.4056,-0.51405 0.68702,-0.66235 0.12006,-0.0633 0.39383,-0.0445 0.3968,0.0912 0.003,0.1374 -0.26135,0.0851 -0.39203,0.12763 1.38959,-0.8252 2.72733,-1.74472 4.16875,-2.47561 0.54726,-0.27749 -1.00162,0.71151 -1.47042,1.1074 -2.4576,2.07537 -4.25687,4.71299 -5.50044,7.67075 -0.61991,1.74409 -0.96941,2.4504 -1.25403,4.23217 -0.0104,0.0651 -0.24711,1.77502 0.0581,2.14715 0.2388,0.29112 1.27986,-0.0435 1.37521,-0.063 4.01832,-0.97285 7.90115,-2.43762 11.63213,-4.21475 -0.8833,0.57676 -1.91972,0.96891 -2.64991,1.7303 -0.57806,0.60275 1.4769,-0.78456 2.17805,-1.23828 1.06964,-0.69217 2.52593,-1.71858 2.85125,-3.08151 0.0382,-0.16011 -0.0274,-0.32808 -0.0411,-0.49211 -0.18504,-0.0977 -0.35405,-0.2352 -0.55512,-0.29319 -1.0542,-0.30404 -2.38003,0.0797 -3.37589,0.37696 -0.57238,0.17085 -2.1247,1.00132 -1.69241,0.5891 0.96499,-0.9202 2.23772,-1.45069 3.35658,-2.17603 -0.65849,0.36957 -1.341,0.69927 -1.97547,1.1087 -2.77997,1.79398 -5.47033,4.4351 -7.27122,7.21384 -0.41832,0.64547 -0.73373,1.35208 -1.1006,2.02812 -0.67144,1.84471 -1.14337,3.00509 -0.71623,5.00132 0.0978,0.45687 0.40817,1.46876 1.01302,1.66662 0.30149,0.0986 0.63355,-0.0332 0.95033,-0.0498 1.67502,-0.43083 3.25153,-0.99637 4.83231,-1.7092 0.78729,-0.35502 2.41589,-1.97696 2.3378,-1.11687 -0.084,0.92541 -3.21369,1.85691 -2.3697,1.46818 1.07695,-0.49604 2.04847,-1.19466 3.07271,-1.79198 1.0629,-0.66446 2.14461,-1.29973 3.18869,-1.99339 1.15384,-0.76657 4.5005,-3.20253 5.64775,-4.06875 1.17435,-0.88668 3.25449,-2.50191 4.35453,-3.54563 0.54047,-0.5128 1.01616,-1.0898 1.52425,-1.6347 0.26066,-0.51802 0.58251,-1.00953 0.78199,-1.55405 0.37504,-1.02378 0.50692,-3.07402 -0.83802,-3.54091 -0.23456,-0.0814 -0.49456,-0.0448 -0.74185,-0.0672 -0.298,0.0719 -0.60525,0.11269 -0.894,0.21562 -0.60071,0.21411 -8.36438,3.96604 2.7203,-1.76418 0.58952,-0.30475 -1.11946,0.71654 -1.64308,1.12425 -1.73995,1.35477 -1.93701,1.7307 -3.45008,3.41199 -0.52789,0.74586 -1.10162,1.46132 -1.58367,2.23759 -2.09388,3.37189 -3.53015,7.2621 -3.50303,11.25613 0.12862,1.14316 0.0789,1.78397 0.58604,2.79054 0.10233,0.2031 0.22776,0.44378 0.44218,0.51959 0.22578,0.0798 0.90681,-0.24823 0.70959,-0.1124 -1.72298,1.18664 -6.74583,3.9592 -3.19366,1.98505 3.6004,-2.43165 6.98891,-5.24818 9.71534,-8.64994 0.59217,-0.90998 2.26761,-2.91289 0.4028,-3.47968 -2.05273,-0.23672 -4.1171,0.41819 -6.10264,0.83705 -2.04046,0.59826 -4.0338,1.25274 -5.97841,2.12466 -0.74438,0.33376 -2.82464,1.59516 -2.2019,1.06821 0.27098,-0.22931 6.53246,-3.84786 0.97084,-0.43765 -0.67259,0.51873 -1.37172,1.00477 -2.01778,1.5562 -2.61911,2.23548 -5.21179,5.15604 -6.78017,8.23831 -0.35535,0.69836 -0.59193,1.45104 -0.88789,2.17657 -0.26702,1.09262 -0.64493,2.02021 -0.45642,3.15149 0.10539,0.63249 0.50854,0.5945 1.0165,0.45347 0.33916,-0.0942 1.26499,-0.61026 0.96895,-0.41984 -1.33919,0.86141 -2.73836,1.62579 -4.10754,2.43869 2.56971,-1.45093 5.37448,-3.02405 7.25571,-5.363 0.28495,-0.35428 0.48958,-0.76625 0.73436,-1.14938 0.0937,-0.35351 0.2524,-0.69594 0.28125,-1.06053 0.028,-0.35371 -0.0418,-0.71089 -0.1136,-1.05837 -0.32359,-1.56576 -1.30709,-2.77813 -2.59976,-3.66979 -0.40347,-0.22192 -0.78758,-0.48342 -1.21042,-0.66575 -3.01986,-1.30216 -6.8012,-1.13468 -9.95007,-0.54974 -0.85193,0.24955 -1.7193,0.45143 -2.5558,0.74864 -0.90932,0.32308 -2.13778,1.91185 -2.67399,1.10952 -0.52614,-0.78728 3.18758,-2.04518 2.40356,-1.51418 -0.91168,0.61747 -1.88508,1.14167 -2.78673,1.77369 -2.09517,1.46865 -3.2991,2.59328 -5.23132,4.2617 -0.73769,0.76078 -1.52513,1.47631 -2.21309,2.28235 -1.32105,1.54782 -2.52732,3.45617 -3.10169,5.43259 -0.31495,1.08377 -0.27854,1.68465 -0.3265,2.78392 0.12424,0.87146 0.16557,2.31603 1.09564,2.82495 0.8688,0.4754 2.11752,-0.16843 2.95285,-0.31971 1.50017,-0.55841 1.50018,-0.5278 3.03825,-1.23962 0.66992,-0.31004 2.54946,-1.44899 1.99469,-0.96201 -0.85586,0.75128 -1.99669,1.10706 -2.91976,1.77404 -1.58961,1.1486 6.97759,-4.3067 5.06496,-2.9936 4.62544,-2.82031 9.51697,-5.56012 12.7422,-10.04998 0.33957,-0.59866 0.75487,-1.16031 1.01873,-1.79599 0.89986,-2.16791 0.85267,-4.89666 -0.51283,-6.86841 -0.30517,-0.44065 -0.73398,-0.78134 -1.10096,-1.17202 -0.44956,-0.25981 -0.86658,-0.58657 -1.34866,-0.77945 -0.48953,-0.19586 -1.01674,-0.28752 -1.5367,-0.37496 -2.86337,-0.4815 -5.77286,-0.0622 -8.58912,0.49887 -2.24446,0.62079 -2.92107,0.73496 -5.11228,1.64879 -0.9277,0.3869 -1.7723,1.56492 -2.73389,1.27226 -0.86634,-0.26368 2.87614,-2.11815 2.33135,-1.39477 -1.28078,1.70065 -4.04815,1.86553 -4.95804,4.02633 -0.58774,0.74526 -1.21462,1.46124 -1.76321,2.23577 -0.49008,0.69192 -1.86311,3.01705 -2.32231,3.86224 -0.20385,0.37519 -0.37067,0.76946 -0.56667,1.1488 -0.0548,0.10601 -0.28011,0.23405 -0.18518,0.30635 0.13861,0.10557 0.3468,-0.0341 0.5202,-0.0512 1.87134,-0.75119 5.85737,-2.80104 -2.00197,1.45574 -0.54451,0.29491 1.05213,-0.65577 1.55014,-1.02379 1.57867,-1.16658 1.87319,-1.56281 3.29729,-2.96996 1.53278,-1.88461 2.72113,-3.4516 3.7722,-5.6634 0.45466,-0.95677 0.90589,-1.98408 0.97377,-3.06411 0.0185,-0.29483 -0.0841,-0.5848 -0.12608,-0.8772 -0.24539,-0.13228 -0.46341,-0.33922 -0.73617,-0.39683 -1.24998,-0.26402 -3.10147,0.50824 -4.21664,0.94775 -0.62313,0.24559 -2.36313,1.2217 -1.84373,0.79882 1.02223,-0.83227 2.25421,-1.36712 3.38131,-2.05067 -1.7983,1.18142 -1.70778,1.02309 -3.27426,2.42792 -0.41024,0.36791 -0.80493,0.75349 -1.1875,1.15009 -0.27766,0.28785 -0.47892,0.65226 -0.79161,0.90161 -1.68911,1.34691 -9.25935,-9.14265 -5.65932,3.15868 3.10772,-1.70475 5.67435,-4.28114 8.33246,-6.59063 0.0651,-0.0562 0.95957,-1.20174 1.17525,-0.21724 0.0309,0.14095 -0.52431,0.23816 -0.40074,0.16367 1.40609,-0.84759 2.82617,-1.672 4.25231,-2.48538 1.20138,-0.6852 -5.20064,3.05441 -3.46326,2.28496 -0.63966,0.5338 -1.30303,1.04042 -1.91899,1.60141 -1.86417,1.6978 -3.58194,3.62321 -4.986,5.72074 -0.35051,0.52362 -0.62719,1.0933 -0.95814,1.62949 -0.1766,0.28613 -0.3759,0.5576 -0.56385,0.8364 -0.26189,1.8479 0.01,0.0524 -4.61622,2.88353 -0.43246,0.26467 0.87124,-0.51921 1.29803,-0.79293 1.81192,-1.16206 3.53942,-2.44826 5.28987,-3.6989 2.1089,-1.60082 1.72359,-1.25906 3.69051,-2.94095 0.507,-0.43353 1.00879,-0.87319 1.50656,-1.31729 0.25328,-0.22598 1.31863,-1.26692 1.77765,-1.53427 0.086,-0.0501 0.19744,-0.0259 0.29616,-0.0389 -1.00427,-0.23844 -2.107,-0.0207 -3.11186,0.0832 -1.98038,0.2048 -3.95638,0.44846 -5.93748,0.6466 -1.59045,0.11862 -3.68099,0.38105 -5.26664,0.20303 -0.86102,-0.0967 -2.08776,-0.58522 -1.59977,-0.99146 1.74735,-1.45463 3.84065,-2.43439 5.76097,-3.65158 2.70242,-1.34958 5.618,-2.19878 8.50489,-3.05431 4.4285,-1.28046 8.8699,-2.53872 13.16431,-4.23062 2.74667,-1.17999 3.11715,-1.43433 -2.09023,1.57476 -0.39344,0.22734 0.77331,-0.48103 1.12982,-0.76278 0.25279,-0.19979 0.82574,-0.6983 0.86424,-1.12837 0.0145,-0.16243 -0.0903,-0.31342 -0.13541,-0.47012 -1.6322,-2.23887 -4.58356,-3.0266 -7.02387,-4.01772 -0.87075,-0.24696 -1.73204,-0.53013 -2.61226,-0.74089 -4.25463,-1.0187 -8.70735,-1.33234 -13.03857,-0.66108 -0.49416,0.11109 -1.86867,0.66094 -1.48246,0.33326 1.35441,-1.14915 3.06721,-1.80777 4.48361,-2.87959 0.14667,-0.11098 -0.3916,-0.20887 -0.54205,-0.10308 -0.11314,0.0796 0.20039,0.20194 0.32897,0.25291 0.57619,0.22841 1.77708,0.43438 2.33405,0.54538 3.92049,0.62189 7.84444,1.22292 11.77389,1.78542 5.99356,0.92124 12.01713,1.63863 17.99765,2.64848 6.62117,1.14074 13.23399,2.42971 19.70657,4.24628 1.341,0.52693 3.79615,1.27295 4.54046,2.72877 0.1488,0.29106 0.31065,0.78698 0.0465,0.97956 -4.72211,3.44295 -4.5041,3.20788 -8.13603,3.99775 -5.94075,1.08128 -11.85467,2.38235 -17.44655,4.72715 -0.89892,0.35565 -1.80451,0.69488 -2.69676,1.06695 -0.80598,0.33609 -3.00427,1.68464 -2.39697,1.05714 5.11007,-5.28006 4.19754,-1.89202 2.38381,-1.54404 -0.17489,0.0335 -1.06435,-0.3337 -0.47934,-0.23584 2.42225,-0.24024 4.83609,-0.62094 7.23039,-1.05263 4.01967,-0.83376 7.99149,-1.84894 11.84323,-3.28958 3.46316,-1.17938 6.89382,-2.46907 10.43987,-3.38525 2.2409,-0.65571 4.44569,-1.35139 6.58714,-2.28995 0.45022,-0.19732 1.74925,-0.88804 1.33992,-0.61588 -1.30028,0.86455 -2.68198,1.59989 -4.02297,2.39983 3.13415,-1.83045 6.08228,-3.98382 8.8283,-6.35619 2.45247,-2.21353 4.85023,-4.50931 6.7538,-7.22856 0.87135,-1.28157 1.75791,-2.54516 2.65965,-3.80437 0.58998,-0.77746 1.23704,-1.5017 1.82069,-2.28459 0.47826,-0.72519 0.92069,-1.50978 1.14902,-2.35097 6.18392,-3.75599 5.1543,-5.2304 6.72429,-1.36995 0.54418,1.23256 1.29617,2.3946 1.6082,3.71335 0.0263,0.74657 -0.2836,1.28431 -0.93368,1.66406 -1.96348,1.14696 -3.93057,2.28775 -5.89585,3.43163 -0.41323,0.17018 -0.84025,0.287 -1.25464,0.4528 -2.0276,0.81126 -4.87699,3.31599 4.18333,-2.5244 -1.7883,1.14966 -3.38341,2.55743 -5.07743,3.83709 -4.71361,3.45655 -9.73915,6.52468 -15.01446,9.04299 -1.46595,0.59989 -1.88239,0.80919 -3.35571,1.26928 -0.86454,0.26999 -2.49701,0.95696 -3.39138,0.29071 -0.1933,-0.144 -0.23689,-0.41987 -0.35533,-0.6298 0.4614,-0.86261 1.02058,-1.1641 1.75496,-1.81594 1.15211,-1.02262 2.2691,-2.08607 3.47116,-3.05186 2.77385,-2.22724 5.69905,-4.25455 8.5906,-6.32449 4.12594,-2.60881 8.34665,-5.06308 12.71863,-7.23441 2.23775,-1.11563 4.54031,-2.0909 6.8213,-3.114 -1.61166,1.31638 -3.21644,2.64123 -4.83497,3.94915 -0.0443,0.0358 -0.20007,0.10846 -0.15089,0.0798 1.69049,-0.98361 3.37889,-1.97084 5.07491,-2.94487 0.29167,-0.16751 -0.57143,0.35512 -0.86223,0.52412 -1.98101,1.15129 -3.96075,2.30475 -5.94112,3.45712 -0.29804,0.15344 -0.59869,0.3018 -0.89576,0.45712 -0.15751,0.0823 -0.62284,0.34272 -0.46938,0.25304 10.78518,-6.30266 2.51049,-1.285 -1.18554,0.58271 -0.92241,0.36873 -1.8506,0.72514 -2.70807,1.23535 1.66173,-0.96884 3.32356,-1.9375 4.98519,-2.90652 0.15582,-0.0909 -0.31392,0.17794 -0.46778,0.2721 -0.12654,0.0774 -0.25214,0.15676 -0.37318,0.24255 -0.10013,0.071 -0.17241,0.19113 -0.2897,0.22726 -0.21545,0.0664 -0.30519,-0.0935 -0.41552,-0.21349 0.74625,0.13704 1.50357,0.25998 2.261,0.2978 0.8014,-0.008 1.61026,-0.0373 2.40415,0.0928 0.9395,0.22566 1.73743,0.64838 1.97397,1.66522 -0.002,0.37918 0.0125,0.84563 -0.0668,1.21569 -0.1718,0.80146 -0.64678,1.53883 -0.65348,2.38301 -0.14874,1.91966 -0.37493,3.84 -0.89817,5.69898 -1.41535,4.5246 -2.6695,5.53947 -8.40147,7.49844 -2.01995,0.38604 -4.09587,0.34827 -6.14075,0.50364 -2.27919,0.062 -4.55978,0.14334 -6.82699,0.40021 -2.71688,0.0613 -0.99077,0.14317 4.44732,-3.83852 0.0516,-0.0378 0.128,0.007 0.19189,0.004 0.41843,-0.0212 1.16254,-0.0965 1.52301,-0.1393 0.3647,-0.0433 0.72812,-0.0969 1.09218,-0.1453 1.31637,-0.22418 2.61686,-0.46525 3.8889,-0.88409 2.19358,-0.72226 6.70442,-3.35977 -2.27834,1.74986 0.18468,-0.11137 0.34121,-0.29923 0.55404,-0.33413 0.19511,-0.032 0.73486,0.19738 0.54201,0.24099 -0.37633,0.0851 -1.03306,-0.15552 -1.39447,0.0494 -2.27153,0.25276 -4.52908,0.61126 -6.80095,0.86129 -3.67367,0.45115 -7.35695,0.82631 -11.05803,0.95944 -3.25763,0.23527 -0.0973,-0.002 -2.77073,0.22093 -0.2872,0.024 -1.06495,0.26931 -0.86219,0.0645 3.4046,-3.43922 3.00372,-3.53957 5.6522,-4.1444 1.97658,-0.43275 3.97725,-0.81292 5.83793,-1.64168 2.11994,-0.88026 4.20439,-1.80921 6.24141,-2.87067 0.64304,-0.33507 2.5225,-1.4272 1.91673,-1.02868 -1.06836,0.70281 -2.20506,1.29578 -3.30759,1.94367 2.67433,-1.60432 5.31276,-3.29006 7.76257,-5.22483 0.4224,0.19714 0.67951,0.27802 0.59033,0.40175 -0.0847,0.11748 -0.51183,0.27086 -0.38706,0.19734 9.01966,-5.31489 5.53958,-3.38403 3.70753,-2.04757 -0.15098,0.10775 -1.1167,0.79218 -1.26067,0.91392 -0.18976,0.16045 -0.35678,0.34601 -0.53428,0.51992 -0.15356,0.15045 -0.26688,0.35651 -0.45891,0.45316 -2.05403,1.0339 -4.1456,1.99328 -6.24877,2.92315 -0.0838,0.037 0.10213,-0.15208 0.15319,-0.22812 1.14786,-1.45968 2.39851,-2.82484 3.53511,-4.29319 0.18885,-0.26459 0.37693,-0.52973 0.56654,-0.79378 0.13964,-0.19445 0.20951,-0.46992 0.4212,-0.5817 9.19822,-4.85691 6.72952,-4.15111 4.9456,-1.29199 -1.029,1.85489 -1.90674,3.85391 -2.38572,5.92338 -0.19611,2.7891 0.14466,0.41291 -5.77406,3.7066 -0.0995,0.0554 0.24669,-0.01 0.33019,-0.0872 0.68148,-0.63161 1.01074,-1.76157 1.66804,-2.42219 0.13589,-0.20668 1.39372,-2.27592 1.54126,-2.36656 0.11066,-0.068 0.24364,0.20952 0.35936,0.15056 1.84743,-0.9413 3.58974,-2.07641 5.40101,-3.08554 0.18734,-0.10438 -0.35099,0.2465 -0.52649,0.36975 -1.45477,1.13609 -2.94927,2.23011 -4.19428,3.60547 -2.06981,1.78597 -0.28764,0.31036 -6.45386,3.13586 -0.0298,0.0137 0.0554,-0.0358 0.0795,-0.0581 0.093,-0.0862 0.18576,-0.17304 0.27122,-0.26671 0.77801,-0.85278 -0.0494,-0.0414 0.82055,-0.86202 2.71627,-2.42665 6.07491,-3.95343 9.25533,-5.69051 -9.51517,5.51537 -1.8419,1.07265 0.35723,-0.2439 0.18002,-0.11069 0.32989,-0.31009 0.54007,-0.33208 0.24036,-0.0251 0.56291,0.32867 0.51623,0.37514 -0.17768,0.17688 -1.26799,0.33009 -1.42036,0.56004 -1.28801,0.561 -2.5897,1.08795 -3.95412,1.43763 -1.07104,0.23679 -2.1852,0.36851 -3.17256,0.87418 1.62288,-0.95351 3.24576,-1.90701 4.86864,-2.86051 -0.2132,0.13975 -0.43939,0.26146 -0.63961,0.41924 -1.10723,0.8725 -1.92296,2.07678 -2.8732,3.10095 -1.73812,2.25427 -3.45187,4.55649 -5.81511,6.20842 -2.18306,1.24947 -4.34377,2.53884 -6.54919,3.74842 -1.82163,0.99908 -4.15698,1.36609 -6.16664,1.78337 -3.00688,0.3855 -6.03251,0.44158 -9.06112,0.32704 -3.98024,-0.088 -7.96193,-0.19881 -11.93327,-0.49219 -4.1919,-0.30059 -8.37451,-0.68664 -12.56111,-1.0522 -2.24479,-0.11945 -3.89881,-0.227 -6.16087,-0.26507 -4.52071,-0.0761 -9.0326,0.21599 -13.54037,0.51979 -3.116,0.21878 -6.26318,0.56751 -9.39113,0.54283 -0.43737,-0.003 -2.95095,-0.11324 -3.51978,-0.34137 -0.39734,-0.15936 -0.67396,-0.5281 -1.01094,-0.79215 1.91235,-1.16118 3.76682,-2.42351 5.73703,-3.48353 0.37705,-0.20286 0.83392,-0.19538 1.25406,-0.27785 0.65205,-0.12799 1.30648,-0.2439 1.96189,-0.3534 2.8336,-0.47343 5.67963,-0.87506 8.52234,-1.28835 2.82277,-0.39293 5.68299,-0.90246 8.54608,-0.8277 0.54468,0.0142 1.11278,-0.0144 1.62583,0.16904 0.43339,0.15499 1.45123,0.49545 1.11695,0.81185 -1.64234,1.55449 -3.84034,2.38887 -5.76051,3.58331 -2.1949,0.73097 -4.43004,1.30436 -6.64853,1.9593 -3.52348,1.04021 -7.02149,2.16756 -10.49846,3.35338 -3.63525,1.35636 -3.1295,1.12232 -6.60282,2.58974 -0.99537,0.42053 -2.80901,2.35432 -2.97539,1.28666 -0.0286,-0.18358 5.63921,-3.42824 1.3579,-0.9602 -0.25897,0.14928 -0.51741,0.29947 -0.77612,0.4492 -0.19512,-0.16069 -0.50035,-0.24403 -0.58535,-0.48208 -0.0437,-0.12227 0.24986,-0.0713 0.3721,-0.1151 0.31527,-0.11286 0.62854,-0.23139 0.93993,-0.35456 1.56009,-0.61713 3.0935,-1.3008 4.66594,-1.88727 5.40598,-2.06187 10.89226,-3.8813 16.4848,-5.37517 2.93512,-0.90186 5.9039,-1.75311 8.74147,-2.94011 0.72755,-0.30435 2.76411,-1.48373 2.14839,-0.99095 -1.10866,0.88732 -2.44004,1.45343 -3.65162,2.19405 -0.36445,0.22278 0.73997,-0.42691 1.10996,-0.64037 0.17198,-0.0691 0.42481,-0.046 0.51595,-0.20736 0.057,-0.10092 -0.18264,-0.15416 -0.29434,-0.18508 -0.42595,-0.11792 -1.49647,-0.15715 -1.85852,-0.16498 -1.44285,-0.0312 -1.68869,0.0144 -3.2191,0.0976 -2.45142,0.20773 -4.89546,0.43902 -7.30507,0.96351 -0.91419,0.19899 -1.82537,0.42019 -2.71782,0.70101 -0.84975,0.26739 -2.73907,1.79975 -2.50124,0.94126 0.29104,-1.05059 1.82439,-1.19387 2.73659,-1.79081 -4.36227,2.83321 -8.66451,6.00576 -10.9293,10.84895 -0.38824,1.10631 -0.82062,2.19536 -1.04817,3.35119 -0.0741,0.37664 -0.0586,0.76608 -0.11348,1.146 -0.0151,0.10424 -0.16634,0.22297 -0.0957,0.30112 0.171,0.18925 0.6151,-0.38286 0.75018,-0.1509 1.30236,-0.34137 2.5529,-0.85211 3.87068,-1.13476 1.98267,-0.34563 3.9832,-0.36291 5.98521,-0.53818 3.51246,-0.39144 6.98144,-1.03706 10.3711,-2.05507 3.81162,-1.10067 7.62326,-2.29644 11.15732,-4.12862 3.67615,-1.97985 7.25623,-4.14937 11.0714,-5.86068 3.0005,-1.29552 6.10706,-2.74233 9.33394,-3.33659 2.72384,0.13079 1.01844,-0.1048 -4.08073,3.97614 -0.17854,0.14289 -2.05458,0.41884 -2.15607,0.67958 -1.79058,0.78777 -3.49107,1.7515 -5.24495,2.61519 -0.25197,0.10867 -1.29005,0.59923 -1.62509,0.5886 -0.24101,-0.008 -0.48594,-0.11477 -0.67171,-0.26851 -0.63452,-0.52513 0.44631,-1.303 0.69593,-1.57804 1.8826,-1.98823 3.63747,-4.08713 5.08136,-6.42245 0.71897,-1.21932 2.36945,-3.86636 2.40724,-5.31462 0.002,-0.0794 -0.061,-0.14671 -0.0915,-0.22006 -0.86618,-0.094 -1.67013,0.25317 -2.45573,0.59839 -0.48298,0.21225 -1.86566,0.97961 -1.42333,0.69211 0.65894,-0.42829 6.57991,-3.92339 2.07742,-1.11488 -1.83802,1.39189 -5.01271,3.67918 -5.24787,6.20709 -0.0299,0.32149 0.0636,0.6426 0.0955,0.9639 0.73631,2.12906 1.95845,3.70918 4.01906,4.7233 2.46258,0.96695 5.06411,1.43804 7.67939,1.79256 1.45171,0.21906 1.41185,0.1996 2.8532,0.47072 1.18541,0.22297 2.43046,0.59902 3.6451,0.62319 0.2372,0.005 0.47114,-0.0563 0.7067,-0.0845 -1.65845,1.17225 -3.26428,2.42274 -4.97536,3.51676 -0.0794,0.0508 -0.0768,-0.17856 -0.14676,-0.24181 -0.20103,-0.18182 -0.42025,-0.34614 -0.65435,-0.48277 -1.52007,-0.88718 -3.21668,-1.43603 -4.84826,-2.06728 -4.89032,-1.60862 -9.73284,-2.65159 -14.90573,-2.77269 -3.92762,-0.11563 -7.86798,-0.11852 -11.77981,0.30627 0,0 5.16793,-3.83399 5.16793,-3.83399 z"
   inkscape:connector-curvature="0" /><g
   id="g890"><path
     inkscape:connector-curvature="0"
     id="path4599"
     d="M 108.4103,256.81966 C 100.37213,251.74841 90.332009,244.0673 82.459523,236.96622 75.768257,230.93062 65.247475,219.64108 61.329957,214.2927 l -1.915688,-2.61538 H 185.18354 c 124.55432,0 125.79259,0.0119 128.18336,1.23077 3.05088,1.55543 5.17642,1.55309 8.8092,-0.01 2.70324,-1.1629 3.99653,-1.23024 20.6846,-1.07692 l 17.80108,0.16353 -4.86242,5.84616 c -12.67294,15.23686 -28.39196,29.0857 -44.47254,39.1814 l -5.22466,3.28013 h -96.09345 -96.09346 z m 182.55273,-19.57591 c 2.77853,-1.83006 4.25002,-4.87662 4.25002,-8.7992 0,-3.8968 -1.82709,-6.7478 -5.51997,-8.61338 -3.31525,-1.67482 -5.65991,-1.73004 -9.00245,-0.21205 -8.04185,3.65218 -7.60448,15.84806 0.67627,18.85755 3.11459,1.13194 6.70625,0.67048 9.59613,-1.23292 z"
     style="fill:#000000;stroke:#000000;stroke-width:0.61538464;stroke-opacity:1" /><path
     inkscape:connector-curvature="0"
     id="path4782"
     d="m 182.12841,211.36947 -122.756895,-0.11031 -3.473983,-4.89459 c -3.346281,-4.71467 -6.09123,-8.94209 -9.3942,-14.46773 L 44.942685,189.28598 168.822,188.96658 C 236.95562,188.7909 298.33844,188.693 305.22827,188.749 l 12.52695,0.10184 -4.19229,4.50613 c -2.30576,2.47837 -4.56079,5.31768 -5.01119,6.30957 -1.58167,3.48329 -0.85843,8.20358 1.65978,10.83264 l 1.14618,1.19665 -3.2362,-0.10803 c -1.7799,-0.0594 -58.4768,-0.15766 -125.99309,-0.21833 z"
     style="fill:#000000;stroke:#000000;stroke-width:0.43514264;stroke-opacity:1" /><path
     inkscape:connector-curvature="0"
     d="m 310.57492,201.64411 c 0.66092,-1.41223 1.28393,-2.84187 1.9458,-4.2546 0.0416,-0.28819 0.97187,-1.56053 0.45724,-1.75304 -0.62447,0.0564 -1.21534,-0.13591 -1.82504,-0.23912 -0.77443,-0.11561 -1.55805,-0.14573 -2.3399,-0.15904 -0.31962,-0.009 -0.23147,0.0323 -0.39273,-0.58954 -0.0239,-0.0922 0.0969,-0.43645 0.17652,-0.48551 4.19224,-2.58212 3.86367,-2.4046 6.04841,-3.54227 0.72462,-0.32912 1.53052,-0.34902 2.28891,-0.54676 0.9272,-0.1611 1.80896,-0.47708 2.73507,-0.64742 1.04276,-0.13998 2.09352,-0.15322 3.14353,-0.1566 1.35496,-0.004 2.70991,0.004 4.06487,0.003 1.18128,-0.003 2.36256,-0.002 3.54384,-0.005 0.91437,-0.0921 1.79091,0.0952 2.68737,0.23444 1.20373,0.2088 2.41255,0.40491 3.585,0.75774 1.47331,0.45191 3.00711,0.60997 4.53809,0.7045 1.2257,0.061 2.45322,0.0565 3.68002,0.0507 0.79613,-0.008 1.59223,-0.0133 2.3884,-0.0136 0.73344,0.0425 1.48877,-0.10249 2.20251,0.0911 0.5859,0.24041 1.34814,0.41483 1.81305,0.86228 -7.26278,4.5935 -3.67449,3.84628 -7.57249,2.57829 -0.69635,-0.17937 -1.42185,-0.17191 -2.13588,-0.18055 -0.76347,0.002 -1.52688,0.008 -2.29032,1.6e-4 -1.73713,-0.0793 -3.25061,0.42877 -4.74343,1.27164 1.49866,-0.83752 2.94607,-1.77416 4.49597,-2.51256 0.38963,-0.18563 -0.67297,0.54216 -0.9853,0.84001 -0.36273,0.34593 -0.70981,0.70919 -1.03718,1.08875 -1.14616,1.32888 -2.15678,2.79594 -3.23008,4.18355 -1.61494,2.17204 -3.58688,4.03022 -5.44097,5.98906 -1.64944,1.74263 -1.51623,1.62911 -3.10412,3.45717 -2.17437,2.54927 -4.01862,5.34986 -6.06124,8.00057 -0.69474,0.96636 -0.36534,0.49264 -0.99084,1.41933 0,0 -5.84802,2.55491 -5.84802,2.55491 v 0 c 0.64653,-0.95904 0.30847,-0.46437 1.01562,-1.48302 2.1563,-2.65027 4.06616,-5.48602 6.25566,-8.11042 1.62035,-1.90461 1.38162,-1.66821 3.06827,-3.47766 1.81863,-1.95104 3.79043,-3.76577 5.40124,-5.90259 1.08907,-1.4008 1.11997,-1.42186 2.16446,-2.83864 0.98398,-1.3347 0.89226,-1.33054 1.97828,-2.49462 2.2313,-2.39169 3.00614,-2.15282 7.26266,-4.67859 1.61438,-0.75712 3.21202,-1.15843 5.00753,-1.09328 0.7713,-0.0118 1.54312,-0.02 2.31427,0.004 0.76416,0.0274 1.53583,0.0689 2.25779,0.34711 3.63286,1.41707 2.2547,0.86036 -3.30376,4.47496 -0.50596,-0.25133 -1.02218,-0.50639 -1.58869,-0.58297 -0.70958,-0.0262 -1.42044,-0.004 -2.13036,-0.01 -0.7908,0.003 -1.58157,0.005 -2.37237,-6e-4 -1.22299,-0.008 -2.44651,-0.0295 -3.66691,-0.1158 -1.56196,-0.12658 -3.11573,-0.34774 -4.62022,-0.80238 -1.17674,-0.29751 -2.37758,-0.48389 -3.57602,-0.6722 -0.8717,-0.13345 -1.73939,-0.19017 -2.62223,-0.16021 -1.17436,-0.004 -2.34873,-0.004 -3.52308,-0.0109 -1.35643,-0.004 -2.71295,-0.006 -4.0693,0.013 -1.03376,0.0273 -2.07499,0.0587 -3.0907,0.27098 -0.9131,0.21565 -1.81231,0.48639 -2.73592,0.65846 -0.75788,0.14249 -1.52242,0.28876 -2.19122,0.6971 -2.16139,1.21221 1.06169,-0.59247 4.9973,-2.96587 0.0445,-0.0268 -0.32232,0.10341 -0.32737,0.0996 -0.5591,-0.41916 -0.41675,-0.38066 -0.20393,-0.3595 0.79142,0.0577 1.58647,0.0929 2.3678,0.24293 0.68416,0.12572 1.44193,0.11902 2.03904,0.49943 0.83625,0.88446 0.28409,1.58533 -0.13952,2.55019 -0.68103,1.3922 -1.33252,2.79751 -1.89342,4.24286 0,0 -5.87196,2.65667 -5.87196,2.65667 z"
     id="path4792"
     style="fill:#000000;stroke:#000000;stroke-opacity:1" /></g><path
   style="fill:#000000;stroke:#000000;stroke-width:0.87028527;stroke-opacity:1"
   d="M 108.09923,278.77783 C 97.593286,275.20435 89.071217,269.71998 74.735121,257.30637 53.683293,239.07761 38.834912,220.93864 25.667326,197.36452 c -4.797038,-8.58821 -13.124811,-27.3156 -12.146813,-27.3156 0.279269,0 0.120463,-0.48954 -0.352902,-1.08786 -0.917496,-1.15969 -5.1027557,-13.55139 -5.8052447,-17.18813 -0.3660664,-1.89512 -0.9221258,-4.31278 -1.7013944,-7.39743 -0.1209222,-0.47866 -0.479154,-1.65354 -0.7960706,-2.61085 -0.3169167,-0.95732 -0.806203,-3.30709 -1.0873029,-5.22172 -0.2810999,-1.91462 -0.6540987,-4.26439 -0.828886,-5.22171 C 2.4475813,128.57652 1.5006153,121.20954 1.1588205,117.39666 0.98718941,115.48203 0.82302628,89.438743 0.79401349,59.522686 L 0.74126297,5.129856 3.392532,2.7214904 6.043801,0.31312499 48.579686,0.35957518 c 41.305065,0.045106 42.600476,0.0972585 44.768139,1.80234072 1.227738,0.9657398 2.68383,3.263141 3.235765,5.105336 0.855133,2.8541771 0.761717,3.8445851 -0.631767,6.6980211 -3.110042,6.368444 -3.262629,6.391694 -41.956241,6.393223 l -34.22896,0.0014 0.441469,47.64812 c 0.242808,26.206465 0.634628,48.823004 0.870711,50.258974 0.236083,1.43597 0.693188,4.37319 1.015789,6.52714 0.322601,2.15396 0.755225,4.7964 0.961387,5.8721 0.206163,1.07569 0.544634,2.83801 0.752158,3.91628 0.207525,1.07826 1.140399,4.8092 2.073053,8.29098 0.932656,3.48178 1.707085,6.41899 1.720956,6.52714 0.787784,6.1424 15.68486,40.05618 19.009449,43.27575 1.208837,1.17066 1.252018,1.11732 0.41825,-0.51667 -0.923827,-1.81047 -0.81955,-1.82577 16.347927,-2.39938 9.502726,-0.31752 70.675669,-0.56129 135.939889,-0.54173 l 118.6622,0.0356 2.4939,-2.8579 c 4.76354,-5.45878 13.72819,-19.83003 17.91804,-28.72445 7.98486,-16.95066 12.42061,-34.47233 13.8125,-54.56087 0.73774,-10.647373 0.78881,-10.840516 3.50995,-13.271849 4.07774,-3.643462 8.87798,-3.459476 12.82918,0.49172 2.84247,2.842464 2.95897,3.217644 2.95897,9.528562 0,26.067357 -10.04104,59.500007 -24.73978,82.373567 -1.99933,3.11127 -3.87177,6.04848 -4.16098,6.52714 -0.52364,0.86665 28.13692,0.87472 32.01873,0.009 1.30766,-0.29162 3.04861,-3.01574 6.25013,-9.77975 2.44068,-5.15655 5.18565,-11.33367 6.09994,-13.72696 0.91428,-2.39328 1.98419,-5.13468 2.37755,-6.09199 0.39337,-0.95732 0.79799,-2.0343 0.89917,-2.39329 0.10117,-0.35899 0.28185,-0.84853 0.40152,-1.08786 0.24159,-0.48318 0.24551,-0.4983 1.23933,-4.78657 0.38826,-1.67529 0.94258,-3.43762 1.23183,-3.91628 0.28924,-0.47866 0.61192,-1.26191 0.71706,-1.74057 0.10514,-0.47866 0.43097,-1.84936 0.72408,-3.046 0.29309,-1.19664 0.67671,-2.95897 0.85248,-3.91628 0.17578,-0.95732 0.55205,-2.71964 0.83617,-3.91629 0.28412,-1.19664 0.72441,-3.54641 0.97843,-5.22171 0.25402,-1.6753 0.65705,-4.22088 0.89562,-5.65685 0.23856,-1.43597 0.64681,-3.98156 0.9072,-5.65686 0.26038,-1.6753 0.67025,-24.291836 0.91079,-50.258973 l 0.43736,-47.212951 H 296.70852 c -112.17977,0 -107.83782,0.180028 -110.97052,-4.601081 -1.29479,-1.976114 -1.69364,-4.789661 -1.2402,-8.7488717 0.10085,-0.880606 1.31731,-2.7350584 2.70326,-4.1210055 l 2.51991,-2.51990379 112.01007,-0.0191498 c 100.04559,-0.0171047 112.21691,0.12573098 113.94654,1.33721079 3.56467,2.4967918 4.01232,4.5275551 3.78043,17.149802 l -0.21984,11.966423 h 41.8666 c 45.60281,0 46.18953,0.05816 49.35802,4.892474 1.48059,2.259029 1.59069,5.109984 1.59069,41.19367 0,21.321672 -0.27849,41.312256 -0.61885,44.423526 -1.09939,10.04961 -2.19641,16.24904 -3.15703,17.84085 -0.28886,0.47866 -0.63711,1.5893 -0.7739,2.46809 -0.47171,3.03048 -5.45647,14.10017 -9.27727,20.60209 -7.56055,12.86593 -20.5512,25.7796 -33.66461,33.46516 -5.72457,3.35508 -17.3446,8.52739 -17.3446,7.72043 0,-0.27661 -0.58744,-0.0154 -1.30543,0.58048 -0.71798,0.59588 -1.30542,0.79169 -1.30542,0.43515 0,-0.35655 -0.48954,-0.25391 -1.08786,0.22808 -1.04957,0.84552 -4.82543,1.86502 -9.35557,2.52608 -1.19664,0.17462 -3.74222,0.54853 -5.65685,0.83093 -1.91463,0.2824 -11.90115,0.46909 -22.19228,0.41486 l -18.71113,-0.0986 -3.81406,6.0106 c -11.71508,18.46184 -36.42448,43.62633 -54.05991,55.05556 -5.57998,3.61629 -17.54054,9.34828 -20.42639,9.78915 -0.49258,0.0753 -1.39719,0.45008 -2.01024,0.83297 -0.61305,0.38289 -44.73509,0.58336 -98.04897,0.44549 -87.2604,-0.22564 -97.35444,-0.39356 -101.14388,-1.68248 z m 150.55055,-18.87177 c -26.40901,-0.12784 -69.87976,-0.12787 -96.60167,-7e-5 -26.72191,0.12781 -5.11454,0.2324 48.01637,0.23243 53.13092,4e-5 74.9943,-0.10453 48.5853,-0.23236 z m -157.8061,-8.38217 c 0,-0.18252 -1.468607,-1.38566 -3.26357,-2.67365 l -3.26357,-2.34181 3.013128,2.67366 c 2.968042,2.63365 3.514012,2.99749 3.514012,2.3418 z m -6.962283,-5.19013 c 0,-0.16514 -0.881163,-1.0463 -1.958141,-1.95814 l -1.958142,-1.65788 1.657884,1.95814 c 1.558003,1.84017 2.258399,2.35433 2.258399,1.65788 z m 235.088043,-2.09302 c 1.08252,-1.38033 1.05174,-1.41111 -0.32859,-0.32859 -1.44968,1.13692 -1.91069,1.85159 -1.19441,1.85159 0.18071,0 0.86606,-0.68535 1.523,-1.523 z m -239.439469,-1.3713 c 0,-0.15589 -1.076978,-1.23287 -2.393285,-2.39329 l -2.393284,-2.10984 2.109841,2.39329 c 1.971971,2.23688 2.676728,2.79239 2.676728,2.10984 z m 244.550169,-2.76256 c 1.12419,-1.19664 1.84816,-2.17571 1.60883,-2.17571 -0.23933,0 -1.35493,0.97907 -2.47912,2.17571 -1.12419,1.19664 -1.84816,2.17572 -1.60884,2.17572 0.23933,0 1.35493,-0.97908 2.47913,-2.17572 z M 288.4542,238.7771 c 1.29419,-0.49205 2.13648,-1.11122 1.87176,-1.37593 -0.26471,-0.26472 -1.35585,-0.0132 -2.42475,0.5588 -2.66785,1.42779 -7.99389,-0.22679 -10.34293,-3.21311 -1.93447,-2.45928 -2.35428,-2.11218 -0.84845,0.70149 0.97048,1.81336 5.35203,4.12956 7.92496,4.18933 0.80649,0.0187 2.52523,-0.36853 3.81941,-0.86058 z m 55.63422,-7.80821 c 3.32492,-3.3506 5.8495,-6.092 5.61017,-6.092 -0.23933,0 -3.15553,2.7414 -6.48046,6.092 -3.32492,3.3506 -5.8495,6.09199 -5.61017,6.09199 0.23933,0 3.15553,-2.74139 6.48046,-6.09199 z m -262.391017,4.97899 c 0,-0.13349 -2.643491,-2.77698 -5.874425,-5.87442 l -5.874426,-5.63171 5.631714,5.87442 c 5.230975,5.45642 6.117137,6.27226 6.117137,5.63171 z m 193.803247,-9.98313 c -0.2189,-0.83765 -0.39801,-0.1523 -0.39801,1.523 0,1.6753 0.17911,2.36064 0.39801,1.523 0.21889,-0.83765 0.21889,-2.20835 0,-3.046 z m 78.1609,-5.43929 c 0.86636,-0.95731 1.37939,-1.74057 1.14006,-1.74057 -0.23933,0 -1.14398,0.78326 -2.01034,1.74057 -0.86636,0.95732 -1.37939,1.74057 -1.14006,1.74057 0.23933,0 1.14398,-0.78325 2.01034,-1.74057 z m -125.47116,-9.35542 c -29.75926,-0.12696 -78.71281,-0.12699 -108.78566,-5e-5 -30.072836,0.12693 -5.72434,0.23082 54.10777,0.23085 59.83211,2e-5 84.43717,-0.10384 54.67789,-0.2308 z m 81.91988,-12.83685 1.61189,-2.61086 -1.87529,1.65789 c -1.03141,0.91183 -1.87529,2.24989 -1.87529,2.97347 0,1.4812 -0.0556,1.53378 2.13869,-2.0205 z m 28.08938,-2.69772 c -0.46035,-0.46035 -4.11951,4.2404 -4.11951,5.29213 0,0.32182 1.02779,-0.63634 2.284,-2.12925 1.2562,-1.49292 2.08218,-2.91621 1.83551,-3.16288 z m 90.74158,-7.6778 c 4.23551,-0.79674 7.47026,-1.66187 10.00828,-2.67667 0.95732,-0.38277 4.02592,-1.60298 6.81914,-2.71158 12.13111,-4.8147 27.59541,-18.00575 34.37192,-29.31924 2.99573,-5.00142 8.63573,-17.44663 9.32744,-20.5819 0.21625,-0.98021 0.59708,-2.66336 0.84628,-3.74034 0.4485,-1.93829 1.27389,-7.70559 1.46348,-10.22585 0.054,-0.71799 0.0366,-16.0894 -0.0389,-34.158702 l -0.1371,-32.853269 h -36.11684 -36.11684 v 9.573138 9.573138 h 21.78509 c 32.28287,0 30.86717,-1.21557 30.86717,26.503633 0,17.881942 -0.29832,22.799642 -1.71827,28.324342 -0.30756,1.19664 -0.70215,2.76315 -0.87687,3.48114 -0.17472,0.71798 -0.34765,1.40333 -0.38427,1.523 -0.0366,0.11966 -0.051,0.4215 -0.0319,0.67075 0.0191,0.24925 -1.55457,3.50791 -3.49699,7.24148 -7.44999,14.31983 -20.95032,25.08199 -35.77499,28.51902 -6.92425,1.60536 -9.57852,1.84916 -15.622,1.43493 l -6.71868,-0.46051 -1.10702,3.38066 c -0.60886,1.85935 -2.41894,6.26884 -4.02241,9.79886 -1.60348,3.53003 -2.9154,6.81108 -2.9154,7.29124 0,0.84439 24.57153,0.35671 29.5897,-0.58727 z m -2.37699,-40.8344 c 7.40808,-2.28804 14.75151,-7.91355 19.61773,-15.02837 1.01849,-1.48911 2.74505,-5.45253 3.83681,-8.8076 1.77488,-5.45439 1.95736,-7.49399 1.72383,-19.26724 l -0.26118,-13.167104 -14.96881,0.01332 c -8.23285,0.007 -15.42743,0.305061 -15.98797,0.661617 -0.67435,0.428955 -0.96878,3.295213 -0.87028,8.471957 0.12707,6.67791 -0.40607,14.96052 -1.53993,23.92394 -1.01028,7.98648 -1.48508,10.93754 -2.65314,16.49032 -1.91663,9.11135 -1.99173,8.88742 2.81894,8.40528 2.27362,-0.22788 6.00141,-0.99114 8.284,-1.69613 z"
   id="path892"
   inkscape:connector-curvature="0" /></svg>