<?xml version="1.0" encoding="iso-8859-1"?>
<!-- Generator: Adobe Illustrator 19.0.0, SVG Export Plug-In . SVG Version: 6.00 Build 0)  -->
<svg version="1.1" id="Capa_1" xmlns="http://www.w3.org/2000/svg" xmlns:xlink="http://www.w3.org/1999/xlink" x="0px" y="0px"
	 viewBox="0 0 508.256 508.256" style="enable-background:new 0 0 508.256 508.256;" xml:space="preserve">
<g>
	<g>
		<path style="fill:#FDE6A6;" d="M313.897,116.756h0.594C314.491,116.756,314.029,115.594,313.897,116.756z"/>
		<path style="fill:#FDDD88;" d="M170.491,116.756h0.594C170.953,115.594,170.491,116.756,170.491,116.756z"/>
	</g>
	<g>
		<path d="M457.129,153.318c-3.332-5.32-8.536-9.024-14.653-10.429l-32.22-7.403l14.876-4.164
			c12.326-3.45,19.753-16.615,16.297-28.964c-3.451-12.326-16.614-19.751-28.965-16.297l-69.365,19.414
			c-1.806-3.286-4.374-6.098-7.467-8.191c14.077-26.198,34.359-70.656,34.359-89.782c0-4.665-4.41-8.274-8.985-7.352
			c-27.528,5.561-53.194,8.127-78.433,7.852c-25.943-0.285-58.23-3.507-78.517-7.835c-6.272-1.338-11.305,5.68-7.997,11.194
			c4.944,8.239,7.972,16.951,9.637,25.731c-25.461,0.78-51.866-2.305-71.851-12.298c-5.383-2.692-11.738,2.018-10.753,7.941
			c6.286,37.709,18.966,59.818,31.68,76.522h-0.282c-12.958,0-23.5,10.542-23.5,23.5c0,11.917,8.919,21.784,20.431,23.293
			c-8.391,14.054-20.375,27.389-32.966,41.382c-26.776,29.757-57.125,63.484-67.336,117.942
			c-4.886,26.057-4.723,50.438,0.485,72.468c4.862,20.567,14.123,39.182,27.523,55.329c17.788,21.434,42.227,38.065,72.637,49.433
			c27.393,10.24,58.765,15.652,90.726,15.652s63.333-5.412,90.726-15.652c30.41-11.368,54.849-28,72.637-49.433
			c13.4-16.147,22.661-34.762,27.523-55.329c5.208-22.03,5.371-46.412,0.485-72.468c-10.211-54.457-40.559-88.184-67.335-117.941
			c-9.09-10.103-17.738-19.735-24.989-29.511l90.413,20.773c9.578,2.201,19.785-1.989,25.076-10.266
			C461.87,170.852,461.898,160.93,457.129,153.318z M416.507,100.506c4.465-1.252,9.23,1.438,10.477,5.895
			c1.249,4.466-1.436,9.229-5.895,10.476l-40.299,11.279c-0.329,0.092-0.642,0.211-0.947,0.343l-33.852-7.778v-0.479
			L416.507,100.506z M322.491,108.256c4.687,0,8.5,3.813,8.5,8.5v32c0,4.687-3.813,8.5-8.5,8.5s-8.5-3.813-8.5-8.5v-32
			C313.991,112.069,317.804,108.256,322.491,108.256z M215.664,17.502c20.152,3.119,45.536,5.266,66.745,5.499
			c23.093,0.252,46.465-1.767,71.152-6.167c-4.527,18.507-19.063,51.422-32.85,76.497c-9.555,0.72-17.53,7.174-20.486,15.926
			h-20.823c-0.47-1.014-0.992-2.124-1.572-3.358c-6.439-13.687-19.839-42.168-19.839-66.397c0-4.658-4.399-8.269-8.971-7.354
			c-8.728,1.746-18.33,3.159-28.321,4.044C219.652,29.934,218.027,23.666,215.664,17.502z M197.119,109.256h-23.205
			c-0.168-0.263-0.348-0.521-0.552-0.767c-12.545-15.091-25.274-32.548-32.786-64.704c18.75,6.4,41.815,9.238,66.725,8.362
			l14.865-0.939c7.011-0.643,14.125-1.569,21.291-2.782c2.339,23.203,12.939,47.045,19.379,60.83h-49.939H197.119z M419.12,318.138
			c8.683,46.311,0.336,85.155-24.81,115.453c-31.006,37.36-87.761,59.665-151.819,59.665s-120.813-22.305-151.819-59.665
			c-25.146-30.298-33.492-69.142-24.81-115.453c9.436-50.319,38.288-82.384,63.744-110.673
			c15.221-16.916,29.601-32.916,38.817-51.209h18.317c4.143,0,7.5-3.358,7.5-7.5s-3.357-7.5-7.5-7.5h-32.25
			c-4.687,0-8.5-3.813-8.5-8.5s3.813-8.5,8.5-8.5h144.5v17h-76.5c-4.143,0-7.5,3.358-7.5,7.5s3.357,7.5,7.5,7.5h77.734
			c3.138,9.29,11.93,16,22.266,16c1.194,0,2.366-0.091,3.513-0.263c8.37,12.108,18.573,23.471,29.373,35.473
			C380.833,235.756,409.684,267.819,419.12,318.138z M445.497,167.695c-1.05,4.568-5.613,7.432-10.188,6.381l-89.79-20.63
			c0.308-1.516,0.471-3.084,0.471-4.69v-12.645l93.125,21.396C443.629,158.544,446.535,163.177,445.497,167.695z"/>
		<path d="M261.991,221.761v-13.005c0-10.752-8.748-19.5-19.5-19.5s-19.5,8.748-19.5,19.5v13.998c-27.792,6.199-48,30.906-48,60.002
			c0,33.911,27.589,61.5,61.5,61.5h12c12.406,0,22.5,10.093,22.5,22.5s-10.094,22.5-22.5,22.5h-18c-9.099,0-16.5-7.402-16.5-16.5
			c0-10.752-8.748-19.5-19.5-19.5s-19.5,8.748-19.5,19.5c0,28.061,20.93,51.324,48,54.995v13.005c0,10.752,8.748,19.5,19.5,19.5
			s19.5-8.748,19.5-19.5v-13.998c27.792-6.199,48-30.906,48-60.002c0-33.911-27.589-61.5-61.5-61.5h-12
			c-12.406,0-22.5-10.093-22.5-22.5s10.094-22.5,22.5-22.5h18c9.099,0,16.5,7.402,16.5,16.5v12c0,10.752,8.748,19.5,19.5,19.5
			s19.5-8.748,19.5-19.5v-12C309.991,248.695,289.061,225.432,261.991,221.761z M294.991,288.756c0,2.481-2.019,4.5-4.5,4.5
			s-4.5-2.019-4.5-4.5v-12c0-17.369-14.131-31.5-31.5-31.5h-18c-20.678,0-37.5,16.822-37.5,37.5s16.822,37.5,37.5,37.5h12
			c25.641,0,46.5,20.86,46.5,46.5c0,23.724-17.768,43.587-41.328,46.205c-3.798,0.422-6.672,3.632-6.672,7.454v20.341
			c0,2.481-2.019,4.5-4.5,4.5s-4.5-2.019-4.5-4.5v-20c0-4.142-3.357-7.5-7.5-7.5c-22.332,0-40.5-18.168-40.5-40.5
			c0-2.481,2.019-4.5,4.5-4.5s4.5,2.019,4.5,4.5c0,17.369,14.131,31.5,31.5,31.5h18c20.678,0,37.5-16.822,37.5-37.5
			s-16.822-37.5-37.5-37.5h-12c-25.641,0-46.5-20.86-46.5-46.5c0-23.724,17.768-43.587,41.328-46.205
			c3.798-0.422,6.672-3.632,6.672-7.454v-20.341c0-2.481,2.019-4.5,4.5-4.5s4.5,2.019,4.5,4.5v20c0,4.142,3.357,7.5,7.5,7.5
			c22.332,0,40.5,18.168,40.5,40.5V288.756z"/>
	</g>
</g>
<g>
</g>
<g>
</g>
<g>
</g>
<g>
</g>
<g>
</g>
<g>
</g>
<g>
</g>
<g>
</g>
<g>
</g>
<g>
</g>
<g>
</g>
<g>
</g>
<g>
</g>
<g>
</g>
<g>
</g>
</svg>
