<?xml version="1.0" encoding="UTF-8" standalone="no"?> <svg width="64" height="64" viewBox="0 0 64 64" fill="none" xmlns="http://www.w3.org/2000/svg">
<path d="M32 26.9301C29.2741 26.9301 26.6095 27.7385 24.3432 29.2531C22.0769 30.7677 20.3106 32.9204 19.268 35.439C18.2253 37.9575 17.953 40.7287 18.4855 43.4021C19.018 46.0754 20.3314 48.5308 22.2596 50.4575C24.1878 52.3843 26.644 53.6959 29.3178 54.2265C31.9915 54.7571 34.7625 54.4827 37.2803 53.4382C39.7981 52.3937 41.9495 50.626 43.4625 48.3585C44.9754 46.0911 45.782 43.4259 45.78 40.7001C45.7747 37.0479 44.3208 33.547 41.7374 30.9655C39.1541 28.384 35.6521 26.9327 32 26.9301V26.9301ZM33 52.4301V49.4301C33 49.1648 32.8946 48.9105 32.7071 48.7229C32.5195 48.5354 32.2652 48.4301 32 48.4301C31.7348 48.4301 31.4804 48.5354 31.2929 48.7229C31.1053 48.9105 31 49.1648 31 49.4301V52.4301C28.2349 52.1924 25.6427 50.9854 23.6812 49.022C21.7197 47.0587 20.515 44.4654 20.28 41.7001H23.28C23.5452 41.7001 23.7995 41.5947 23.9871 41.4072C24.1746 41.2196 24.28 40.9653 24.28 40.7001C24.28 40.4348 24.1746 40.1805 23.9871 39.9929C23.7995 39.8054 23.5452 39.7001 23.28 39.7001H20.28C20.5217 36.9401 21.7293 34.3539 23.6902 32.3966C25.6511 30.4394 28.2396 29.2366 31 29.0001V32.0001C31 32.2653 31.1053 32.5196 31.2929 32.7072C31.4804 32.8947 31.7348 33.0001 32 33.0001C32.2652 33.0001 32.5195 32.8947 32.7071 32.7072C32.8946 32.5196 33 32.2653 33 32.0001V29.0001C35.7604 29.2366 38.3489 30.4394 40.3097 32.3966C42.2706 34.3539 43.4782 36.9401 43.72 39.7001H40.72C40.4548 39.7001 40.2004 39.8054 40.0129 39.9929C39.8253 40.1805 39.72 40.4348 39.72 40.7001C39.72 40.9653 39.8253 41.2196 40.0129 41.4072C40.2004 41.5947 40.4548 41.7001 40.72 41.7001H43.72C43.4849 44.4654 42.2803 47.0587 40.3188 49.022C38.3573 50.9854 35.7651 52.1924 33 52.4301V52.4301Z" fill="black"/>
<path d="M32 36.9C31.7348 36.9 31.4804 37.0054 31.2929 37.1929C31.1054 37.3805 31 37.6348 31 37.9V42C31 42.2652 31.1054 42.5196 31.2929 42.7071C31.4804 42.8947 31.7348 43 32 43C32.2652 43 32.5196 42.8947 32.7071 42.7071C32.8946 42.5196 33 42.2652 33 42V37.9C33 37.6348 32.8946 37.3805 32.7071 37.1929C32.5196 37.0054 32.2652 36.9 32 36.9Z" fill="black"/>
<path d="M60 58H57.11V45C57.0983 39.084 55.0015 33.3614 51.1881 28.8384C47.3747 24.3154 42.0889 21.2815 36.26 20.27V15.37H52.51C54.1376 15.3674 55.6978 14.7196 56.8487 13.5687C57.9996 12.4178 58.6474 10.8576 58.65 9.23V6H60C60.2652 6 60.5196 5.89464 60.7071 5.70711C60.8946 5.51957 61 5.26522 61 5C61 4.73478 60.8946 4.48043 60.7071 4.29289C60.5196 4.10536 60.2652 4 60 4H4C3.73478 4 3.48043 4.10536 3.29289 4.29289C3.10536 4.48043 3 4.73478 3 5C3 5.26522 3.10536 5.51957 3.29289 5.70711C3.48043 5.89464 3.73478 6 4 6H5.35V9.23C5.35264 10.8576 6.00038 12.4178 7.15129 13.5687C8.30219 14.7196 9.86238 15.3674 11.49 15.37H27.74V20.27C21.9111 21.2815 16.6253 24.3154 12.8119 28.8384C8.99854 33.3614 6.90169 39.084 6.89 45V58H4C3.73478 58 3.48043 58.1054 3.29289 58.2929C3.10536 58.4804 3 58.7348 3 59C3 59.2652 3.10536 59.5196 3.29289 59.7071C3.48043 59.8946 3.73478 60 4 60H60C60.2652 60 60.5196 59.8946 60.7071 59.7071C60.8946 59.5196 61 59.2652 61 59C61 58.7348 60.8946 58.4804 60.7071 58.2929C60.5196 58.1054 60.2652 58 60 58ZM7.35 9.23V6H56.65V9.23C56.6474 10.3272 56.2103 11.3787 55.4345 12.1545C54.6587 12.9303 53.6072 13.3674 52.51 13.37H11.51C10.965 13.3713 10.4251 13.2653 9.9211 13.0579C9.4171 12.8506 8.95887 12.546 8.57257 12.1616C8.18628 11.7771 7.87949 11.3204 7.66972 10.8174C7.45995 10.3144 7.35131 9.77499 7.35 9.23V9.23ZM29.74 15.37H34.26V20C33.51 19.93 32.76 19.89 32 19.89C31.24 19.89 30.49 19.89 29.74 20V15.37ZM8.89 58V45C8.89 41.9652 9.48776 38.96 10.6491 36.1562C11.8105 33.3524 13.5128 30.8047 15.6588 28.6588C17.8047 26.5128 20.3524 24.8105 23.1562 23.6491C25.96 22.4878 28.9652 21.89 32 21.89C35.0348 21.89 38.04 22.4878 40.8438 23.6491C43.6476 24.8105 46.1953 26.5128 48.3412 28.6588C50.4872 30.8047 52.1895 33.3524 53.3509 36.1562C54.5122 38.96 55.11 41.9652 55.11 45V58H8.89Z" fill="black"/>
</svg>
